<?xml version="1.0" encoding="utf-8"?>
<!-- Generator: Adobe Illustrator 26.2.0, SVG Export Plug-In . SVG Version: 6.00 Build 0)  -->
<svg version="1.1" id="Layer_1" xmlns="http://www.w3.org/2000/svg" xmlns:xlink="http://www.w3.org/1999/xlink" x="0px" y="0px"
	 viewBox="0 0 715 339.8" style="enable-background:new 0 0 715 339.8;" xml:space="preserve">
<style type="text/css">
	.st0{fill:#7D5F8B;}
	.st1{fill:#E8B7FE;}
	.st2{fill:#B999E6;}
	.st3{fill:#FCE48B;}
	.st4{fill:#DFC35E;}
	.st5{fill:#DEC25E;}
	.st6{fill:#E7B8FE;}
	.st7{fill:#C3A66C;}
	.st8{fill:#9C7E7F;}
	.st9{fill:#7D5F8C;}
	.st10{fill:#B772DC;}
	.st11{fill:#B771DC;}
	.st12{fill:#7F618E;}
	.st13{fill:#FEF7D8;}
	.st14{fill:#FEF7D7;}
	.st15{fill:#FCE58E;}
	.st16{fill:#FEF7D6;}
	.st17{fill:#FEF4CE;}
	.st18{fill:#FEF4CD;}
	.st19{fill:#FEF5D2;}
	.st20{fill:#82648C;}
	.st21{fill:#B771DB;}
	.st22{fill:#B872DC;}
	.st23{fill:#B873DD;}
	.st24{fill:#B873DC;}
	.st25{fill:#B974DD;}
	.st26{fill:#BA76DE;}
	.st27{fill:#BB78DF;}
	.st28{fill:#B570D9;}
	.st29{fill:#B470D8;}
	.st30{fill:#B370D7;}
	.st31{fill:#E6B6FD;}
	.st32{fill:#E5B6FD;}
	.st33{fill:#FCE48C;}
	.st34{fill:#E6B8FD;}
	.st35{fill:#E6B7FD;}
</style>
<g>
	<path class="st0" d="M211.2,64.3c6.1,0,11.9,0,17.6,0c2.1,0,2.7-1,3.3-2.9c7.1-23.1,23-37.6,44.4-47.9
		c19.5-9.3,39.6-15.2,61.2-13.2c36.8,3.4,65,20.1,81.8,53.9c3.9,7.9,3.7,7.7,12.5,7.6c30.8-0.3,61.6-0.5,92.5-0.6
		c58.3-0.1,116.6-0.7,174.9,0.1c2.5,0,5,0.1,7.4,0.6c6.6,1.4,7.9,3.7,7,10.5c-0.4,3.3,0,6.6,0.1,10c1.5,67.6,0.7,135.2,0.1,202.9
		c-0.1,13.5-0.1,27-0.2,40.5c-0.1,10.8-2.9,13.6-13.7,13.5c-47.8-0.2-95.6-0.5-143.4-0.7c-49.5-0.2-99-0.2-148.4-0.2
		c-74.1,0-148.3-0.2-222.4,0.3c-52.3,0.4-104.6-0.1-156.9-0.5c-4.2,0-8.3-0.5-12.4-0.8c-1.8-0.1-3.4-0.1-5.2,0.9
		c-5.5,3.3-10.7,0.3-11-6.2c-0.2-5-0.1-10-0.2-15c-0.3-64.1-0.7-128.3,0-192.4C0.6,108.4,1,91.9,2.7,75.5c0.5-4.7,3.7-7.4,10.4-8
		c9.8-0.9,19.6-1.8,29.4-2C51,65.4,59.5,63.7,68,65c2,0.3,2-1.3,2.5-2.5c2-4.9,3.8-10,5.9-14.8c1.4-3.1,3.4-5.1,7.3-5.7
		c17.5-2.9,35.2-2.5,52.8-3.4c22.5-1.1,44.9-1.6,67.4-2.2c10.9-0.3,13.8,3.5,11.3,14.1C214.1,55.2,212.5,59.7,211.2,64.3z"/>
	<path class="st1" d="M45.3,156.2c8.6,1.4,16.8-1.3,25.1-2.3c4.4-0.5,8.8-1.5,13.2-2.4c3.2-0.6,3.9,0.2,2.7,3.3
		c-9.4,24-17,48.6-24.7,73.2c-1.7,5.5-3.7,11-3.8,17c-0.1,2.9,0.6,5.5,3.4,6.6c2.8,1.2,5.4,1.2,8.3-1c9.4-7.3,17.7-15.9,26.8-23.5
		c7.4-6.1,14.5-12.6,21.7-19c1.5-1,3-1.9,4-3.4c11-9.9,22-19.7,33.1-29.6c1.4-1,2.9-1.9,3.9-3.4c11-9.9,22-19.8,33-29.6
		c1.5-0.9,3-1.9,4-3.4c12.4-12.3,26.1-23.3,38-36.1c3-3.3,6.3-6.5,6-11.5c1.2-0.9,2.5-1.1,3.9-0.7c3.4,2,7.1,1.7,10.7,0.7
		c2-0.4,4-0.5,6-0.4c8.6-0.3,17.1,0.8,25.7-0.7c7.3-0.8,14.7-0.4,22.1-0.3c44,0.2,87.9,0.1,131.9,0.1c36.5,0,72.9,0.1,109.4-0.1
		c5.7-0.2,11.5-0.1,17.2-0.1c10.2,0,20.3,0.6,30.5-0.3c3.8-0.4,7.6-0.1,11.4-0.5c10.6,0,21.1,0,31.7,0c2.1,0,4.3,0,6.4-0.7
		c3.1-0.6,6.2-0.5,9.3-0.4c7.6,0.3,15.3-0.1,22.9,0.2c3.9,0.9,7.3,2.5,8.9,6.6c0.7,2.6,0.3,5.3,0.6,7.9c0,3.1,0.1,6.1-0.5,9.2
		c-0.5,1.6-0.6,3.3-0.6,4.9c0.1,22.5-0.1,45,0.1,67.4c0,9.7,0.5,19.3-0.3,29c-1.4,4.7-0.7,9.6-0.7,14.3c-0.1,8.4-0.1,16.9,0,25.4
		c0.1,3.6,0.2,7.3-0.3,10.9c-1.2,3-0.2,6.3-1.5,9.3c-0.3,0.5-0.8,0.8-1.4,1c-3.1,0.5-5.7-1.2-8.5-1.9c-4-0.7-5.6-3.3-5.3-7.1
		c1.6-17.7,0.3-35.5,1.6-53.2c0.5-6.5-1.4-12.9-0.5-19.4c1.5-10.9,0.8-21.9,0.7-32.8c0-0.3,0-0.7-0.1-1c-0.2-2.9,1.2-5.3,2.4-7.7
		c1.5-2.4,1.5-4.9,0-7.3c-0.9-1.6-1.6-3.3-1.9-5.2c0.6-7.6-0.3-15.2,1.2-22.8c1.5-7.7,0.4-8.8-7.3-8.9c-15.5-0.1-30.9,1.4-46.4,1
		c-2.7-0.1-5.3,0.1-7.9-0.9c-0.3-0.1-0.6-0.2-0.9-0.4c-6.1-3.5-6.1-3.5-11.6,0.8c-6.7,1.8-13.6,1.6-20.3,1.2c-7-0.4-13.9,0.1-20.9,0
		c-13.6-0.2-27.2,2.5-40.8,0.5c-3.3-0.5-6.6,0.7-9.9,0.8c-14.1,0.6-28.2-0.4-42.4,0.1c-1.5,0.1-3-0.1-4.3-0.9
		c-4.3-3.2-9.3-4.4-14.4-5.8c-2.6-0.9-5.2-0.9-7.9-0.1c-5.5,0.3-8.7,4-11.7,7.9c-3.3,0.7-6.6,1.5-9.2-1.5c-1.7-5.9-5.9-7.5-11.5-7
		c-2.6,0-5.3-0.3-7.8,0.6c-1.6,0.3-3.2,0.4-4.9,0.4c-3.7,0-7.4-0.4-11,0.3c-2.1,0.6-4.1,1.5-5.3,3.6c-1.7,4.7-5.4,4.2-9.2,3.7
		c-1.6-0.4-2.5-1.6-3.4-2.9c-1.8-2.6-4.1-2.2-6.5-1.2c-1.4,0.9-2.4,2.2-3.5,3.5c-5.8,3-12,3.6-18.3,2c-0.4-0.3-0.8-0.6-1.1-1
		c-0.9-1.3-0.6-3.1-1.6-4.4c-1-1.1-2-2.1-3.1-3.1c-1.2-0.9-2.4-0.7-3.6,0.1c-2.3,1.4-3.1,3.9-4.2,6.1c-2.8,2.9-6,2.9-9.3,0.9
		c-0.5-4.2,0-8.9-5.3-10.8c-2-1.5-4.2-1-6.4-0.4c-0.5,0.2-0.9,0.3-1.4,0.3c-3.8,0.6-7.6-0.3-11.3,0.7c-0.5,0.2-1,0.2-1.5,0.3
		c-2.2,0.3-4.5,0-6.7,0.7c-0.7,0.2-1.4,0.3-2.2,0.4c-1.6,0.1-3.3,0-4.9,0.6c-4,1.6-9.4,1.3-10.4,7.2c-0.8,2.1-2.5,3-4.7,3.1
		c-0.5,0-1,0.2-1.5,0c-12.5-3.9-19.5,4.8-27,12.1c-11,10.6-23,20.1-35.9,28.3c-6.5,4.1-11.4,10.1-17,15.2
		c-4.7,4.2-9.3,8.6-14.5,12.2c-1.2,0.8-2,1.8-1.8,3.3c-1.8,2.8-4.5,4.8-7.3,6.5c-5.6,2.3-9.2,7.1-13.4,11
		c-6.6,6.3-12.7,13.2-19.4,19.4c-5.4,5-11.1,10-16.6,14.9c-11.2,9.8-22.6,19.4-34.8,28c-3.3,2.3-3.2,3.6,0.2,6
		c7.1,4.9,11.6,11.4,13,19.8c0.4,2.6,1.7,3.9,4.3,3.8c14.8-0.2,29.6,1.1,44.3-2.2c0.6,0.1,1.1,0.2,1.7,0.5c3.9,1.2,7.8,1.5,11.8,1.5
		c24.3,0,48.6,0.5,72.9-0.2c11.6-0.3,23.3-0.9,34.8-0.5c11.6,0.5,23.3,0.8,34.9,0.6c22.9-0.4,45.9-1.4,68.8-1
		c14.3,0.3,28.6-1.2,42.8,0c6.5,0.5,12.9-1.3,19.4-0.9c29.9,1.6,59.9,0.9,89.8,1c10,0,19.9-0.4,29.9-0.1c16,0.5,31.9-1.6,47.8-1.5
		c12.6,0.1,25.3,0.1,37.9,0.9c7.2,0.4,14.3-0.8,21.4-0.3c3.5,0.2,6.3,1.1,6.7,5.1c0.6,3.6,2.7,6.6,3.7,10c-1.4,2.5-3.8,2.7-6.2,2.8
		c-14.4,0.1-28.7-0.1-43.1,0.2c-21.6,0.1-43.3,0.1-64.9,0c-1.7,0-3.3-0.1-5-0.4c-2.3-0.7-4.6-0.8-6.9-0.8c-123.4,0-246.9,0-370.3,0
		c-2.2,0-4.3,0-6.4,0.7c-7.3,0.7-14.6,0.7-21.9,0.1c-8.1-1.1-16.2-1.4-24.2,0.1c-7.9,2.3-15.9,0.8-23.9,1.2c-3.6-0.3-7.2,0-10.8-0.2
		c-1.8-0.2-3.5-0.4-4.1-2.4c0-3.5,2.6-6,3.6-9.2c1.1-2.5,1.2-4.9,0-7.4c-1.7-3.2-3.1-6.6-5.6-9.4c-3.6-3.9-7.9-5.3-13.3-5.3
		c-9.2-0.1-15.1,5-20.4,11.3c-0.9,0.3-2,0.2-2.1-0.6c-0.7-5.7-3.5-11.5-0.4-17.3c4.3-1.9,5.7-5.9,7-9.9c0.8-10.1,0.6-20.2-0.1-30.3
		c-0.8-12.8-1-25.5,0.2-38.3c0.3-3.5,0.5-7,0.3-10.4c-0.4-7.8,0.9-15.6,1.1-23.3c0.1-1.8-0.3-3.9,1.8-4.8c2-0.9,2.8,1.2,4.1,2.1
		C44.1,155.6,44.7,156,45.3,156.2z"/>
	<path class="st2" d="M260,92.3c-2,0-4,0-6,0c-3.4,0.7-6.8,1.2-10-1c-1.4,0-2.7,0-4.1-0.1c-0.3-6.7-2.5-9-9.1-9
		c-8.6-0.1-17.3,0-26,0c-0.2-4.1,1.7-5.2,5.3-4.7c2.4,0.4,4.9,0.7,7.4,0.7c131.9,0,263.9,0.2,395.8-0.2c22.5-0.1,44.9-0.1,67.4-0.8
		c5.3-0.2,10.6-0.4,15.9-0.8c3.2-0.2,4.4,0.8,4.3,4.2c-1.6,31.1-0.5,62.3-1.4,93.4c-0.9,30-0.3,59.9-0.6,89.9
		c-0.2,17.8-0.1,35.6,0,53.5c0,3.9-1,5.2-5,5.1c-13.8-0.2-27.7-0.1-41.5,0c-203,1.8-406.1,0.5-609.2,1.1c-8.5,0-16.9,0.7-25.4,1.4
		c-3.2,0.3-3.9-0.9-3.8-3.5c0.2-4.3,0.7-8.6,0.7-12.9C15,242.9,15,177.5,15,112c0-9.6-1.5-19.2,0.9-28.7c0.6-2.4,0.7-3.9,3.7-3.9
		c13.5,0,27,0.2,40.4-1c3.5-0.3,4.7,0.7,3,4.2c-1.1,2.2-1.9,4.6-2.8,6.9c-3.2,0.6-6.5,0.4-9.7,0.8c-4.9,0.5-8.7,2.4-11.7,6.2
		c-5,2.8-7.1,7.2-7.7,12.7c-0.4,3.2-0.4,6.3-0.4,9.5c0.1,23.3-2.1,46.5-2.8,69.7c-0.3,11.5-0.7,22.9,0.5,34.4
		c1.2,12,0.1,23.9-0.8,35.9c-0.3,4.4,0.3,8.2,2.7,11.8c-2.7,5.6,1.1,11.2,0.1,16.8c0.6,0,1.2,0,1.8,0c1.3,1.5,0.5,3.2,0.4,4.8
		c-0.7,8.5,2.9,15,10,19.3c7,4.2,13.8,2.2,20.2-1.7c1.7-1,3-2.8,5.3-2.5c0.2,2,1.5,2.2,3.1,2.2c3.7,0.8,7.4,0.8,11.1,0
		c8-0.4,16.1,1,24-1c8-0.8,16-0.8,24,0c7.3,0,14.7,0,22,0c1.7-0.9,3.6-0.4,5.4-0.4c124.4,0,248.7,0,373.1,0c1.8,0,3.7-0.4,5.4,0.4
		c23.3,0,46.6,0,70,0c9.4,1.1,18.8,0.3,28.3,0.4c5.3,0.1,10.6,0.6,15.8-0.4c1.9,0.1,3.6-0.4,4.9-1.9c2.2-0.7,2.8,1.3,3.9,2.3
		c9.5,8.2,22.6,6.5,31.5-4.2c6.3-7.7,4.3-20.4-4.4-27.5c-1.2-1-3-1.6-3-3.6c0.4-0.1,0.8-0.1,1.1-0.2c1.4-2.9-0.3-6.1,1-8.9
		c0-3.7,0-7.3,0-11c1.1-7.2,0.2-14.5,0.5-21.7c0.2-6.1-0.5-12.2,0.5-18.3c0-9.7,0-19.3,0-29c0.9-1.7,0.5-3.6,0.5-5.4
		c0-20.7,0-41.5,0-62.2c0-1.8-0.4-3.7,0.4-5.4c0-3,0.1-6,0.1-9c0.8-2.7,0.8-5.3,0-8c-1.6-2.7-4.3-3.8-7-5.1c-8-0.8-16-0.8-24,0
		c-3,0-6,0-9,0c-10.9,1.1-21.8,0.2-32.7,0.5c-2.1,0.1-4.3-0.5-6.3,0.5c-3.3,0-6.6,0-10,0c-8.4,1.1-16.8,0.1-25.2,0.5
		c-1.9,0.1-4-0.5-5.8,0.5c-5.6,0-11.3,0-16.9,0c-1.6-0.9-3.3-0.5-4.9-0.5c-77.4,0-154.8,0-232.2,0c-1.6,0-3.3-0.4-4.9,0.5
		c-7.3,0-14.6,0-22,0c-6.7,1-13.5,0.2-20.2,0.5C263.9,91.9,261.9,91.3,260,92.3z"/>
	<path class="st3" d="M57,142.2c3.6-13.2,8.3-25.3,12.5-37.5c5.7-16.3,12-32.4,16.9-49c0.7-2.5,1.7-3.4,4.4-3.3
		c25.3,0.7,50.6-1,75.9-1.2c10-0.1,20-0.4,29.9-0.8c4.1-0.2,4.3,1,2.8,4.4c-3.6,8.4-6.9,16.9-10,25.5c-3,8.2,1.4,14.5,10.2,15.1
		c7.1,0.4,14.3,0.7,22.3,1.1C173.5,138.1,127,181,79.6,222.9c-0.4-0.3-0.8-0.6-1.2-1c4.4-13.3,8.7-26.7,13.2-39.9
		c3.7-10.8,7.8-21.6,11.7-32.4c0.7-1.9,1.4-3.8,1.7-5.7c0.8-5.6-3.3-9.3-8.8-8.1C83.5,138.8,70.7,140.6,57,142.2z"/>
	<path class="st3" d="M264.2,63.4c9.9-10.4,20.6-16.2,32.7-20c5.4-1.7,11.1-2,16.8-2.2c3.1-0.1,7.8,0.3,8.1-4
		c0.3-4.2-4.3-3.6-7.3-4.2c-6.1-1.3-12.1-0.3-17.7,1.5c-15.5,5-29.4,12.5-38.3,27c-1,1.7-10.6,3.5-11.9,2.2c-1.6-1.6,0-3.1,0.7-4.5
		c8.2-17.2,21.5-28.4,39.6-34.3c32.1-10.3,69.7,3.7,86.8,32.6c0.8,1.3,2.7,2.7,1.7,4.3c-0.8,1.3-2.8,0.6-4.2,0.6
		c-33.3,0.4-66.6,0.7-99.9,1C269.4,63.4,267.6,63.4,264.2,63.4z"/>
	<path class="st1" d="M39.1,95.2c0-1.7,1-3,2.3-3.6c6-2.6,12.2-4.7,18.8-2.2c-6.1,17.5-12.2,35-18.2,52.6
		c-1.9,5.5-1.8,10.4,3.4,14.2c-0.2,0-0.3,0-0.5,0c-2.2,0.6-3.2-4-5.3-1.8c-1,1.1-0.3,3.8-0.5,5.8c-1.3,21-2.6,42.1-1.8,63.1
		c0.4,11.3,0.8,22.5,0.8,33.8c0,1.7,0.7,3.7-1.1,5.1c-1.4-1.5-1.4-3.4-1.4-5.2c0.1-18.8-1.7-37.5-1-56.3c0.8-21.8,1.6-43.5,3.7-65.2
		c0.8-8,0.2-16,0.3-23.9c0-2.7-0.3-5.5,1.1-7.8C41.6,100.7,41.3,98,39.1,95.2z"/>
	<path class="st4" d="M350.1,15.3c10.7,2.5,20.7,6.5,30,13.5c-5.7,2.1-10.2,2.3-14.7-1.8c-5-4.7-11.2-7.7-17.3-10.8
		C348,14.4,349,14.9,350.1,15.3z"/>
	<path class="st5" d="M398.7,62.2c-3.6,0.4-7.9,0.9-8.4-5.2c0-0.5-0.4-1.3-0.2-1.4c3.6-2.4,7.9-2.1,11.7-1.9c3,0.1,3.7,4.5,4.7,7.4
		c0.3,0.8-1,1.1-1.8,1.1C402.9,62.3,401.1,62.2,398.7,62.2z"/>
	<path class="st5" d="M378.1,38.1c6.6,1.3,14-3,17.4,5.7C381.3,47.1,384.4,46.9,378.1,38.1z"/>
	<path class="st6" d="M158.9,171.9c-0.5,2-1.8,3.2-3.9,3.4C156,173.8,157.3,172.7,158.9,171.9z"/>
	<path class="st6" d="M195.9,138.9c-0.5,2.1-1.8,3.3-4,3.4C193,140.8,194.3,139.7,195.9,138.9z"/>
	<path class="st6" d="M121.9,204.9c-0.5,2.1-1.8,3.3-4,3.4C119,206.8,120.3,205.6,121.9,204.9z"/>
	<path class="st7" d="M350.1,15.3c-0.7,0.3-1.3,0.6-2,0.9c-1-0.3-2-0.6-3-0.9c-0.3-0.9-0.1-1.3,0.9-1.1
		C347.4,14.4,348.9,14.1,350.1,15.3z"/>
	<path class="st8" d="M346,14.2c-0.3,0.4-0.6,0.7-0.9,1.1c-0.7-0.5-1.5-1-2.2-1.5C344,12.9,345.1,13.4,346,14.2z"/>
	<path class="st6" d="M313,110.3c3.2,1.7,6.3,1.8,9.1-1c2,2.5,1.6,5.4,1.2,8.1c-1.6,11.2-0.2,22.6-1.7,33.8
		c-0.6,4.3-1.1,8.6-1.3,12.9c-0.3,8,2.9,11.5,10.7,11.6c7.2,0.1,14.3,0.1,21.5,0c7-0.1,9-1.9,10.3-8.9c0.6-3.1,0.7-6.3,0.7-9.4
		c-0.2-14.5,2.4-28.8,2.1-43.3c0-1.3,0.2-2.7,1.1-3.7c3.5-0.4,8,1.4,9.3-4.1c1.9,4.3,4.9,6.8,9.9,6.9c3.1,0.1,3.7,2.6,3.7,5.4
		c0.1,13.2-1.4,26.2-2.7,39.2c-0.3,3.2-0.6,6.3-0.2,9.4c0.3,2.4,1.1,4.7,3.9,5.1c2.9,0.4,4.8-1.2,5.9-3.7c1.7-4.2,2-8.7,2.2-13.2
		c0.5-12.4,1.8-24.8,0.5-37.3c-0.3-3,1.4-5.2,4.2-5c5.7,0.4,10.2-2.2,14.6-5.1c2.2,4.4,6.2,1.3,9.2,2.2c1.2,1.2,1.3,2.7,1,4.2
		c-2.7,14.5-2.1,29.1-3.2,43.7c-0.6,7.9,3.7,16.4,14.2,15.7c4.3-0.3,8.6,0,13-0.1c1.8,0,3.7-0.1,5.4-0.7c2.2-0.8,3.8-2.2,3.7-4.8
		c-0.1-2.6-1.9-3.8-4.2-4.2c-3.5-0.7-7-0.3-10.5-0.4c-9.7-0.1-10-0.4-9.9-10.2c0-0.3,0-0.7,0-1c0.1-6.6,1-7.5,7.5-7.7
		c2.5-0.1,5,0.1,7.5-0.2c3.3-0.4,6.7-1.2,6.5-5.4c-0.1-4-3.5-4.3-6.6-4.5c-2.8-0.2-5.7,0-8.5-0.1c-3.4-0.1-5.2-1.6-5.4-5.2
		c-0.2-4.2,0.1-8.3,1-12.4c0.6-3.1,2.5-4.1,5.4-3.7c1.2,0.2,2.3,0.4,3.4,0.6c8.2,1.5,9.5,0.8,12.4-6.6c1.4,0.7,2.7,1.2,4.6,1.2
		c10.1,0,20.2-1,30.3,0.5c2.7,0.4,5.6-0.6,8.3-0.6c18.2-0.4,36.4-0.3,54.5-1.2c7.3-0.4,14.4-0.6,21.7,0c6.8,0.5,13.7-0.5,20.6-0.8
		c0.1,0.1,0.3,0.2,0.4,0.3c1.7,2.1,2.3,5.7,6.2,5.2c3.9-0.5,2.5-4.5,4.2-6.4c2,0.9,4.2,1,6.4,0.9c17.2-0.3,34.4-0.5,51.7-1.1
		c4.8-0.1,6.7,1.3,6.3,6.2c-0.2,2.3-0.8,4.6-1,6.9c-0.5,7-0.8,14.1-1.1,21.1c-5.2-1.5-8.4-5.5-12-9.1c-1.4-1.4-1.4-3.7,0.1-5.5
		c1.4-1.6,3-1,4.5-0.2c1.5,0.7,3.2,1.8,4.4-0.2c1.1-1.9,0-3.5-1.3-4.9c-3.9-4.3-10.8-3.6-14.1,1.6c-3.7,5.8-2.6,13,2.6,17.5
		c2,1.7,4.4,3,6.2,5.1c1.3,1.5,2,3.2,1,5c-0.9,1.7-2.6,1.1-4,0.8c-2.4-0.5-4.9-0.9-6.2,1.7c-1.4,2.8,0.8,4.7,2.5,6.4
		c2.9,2.7,6.2,2.9,9.7,1.5c1.8-0.7,3.3-2.4,5.5-1.9c1.1,1.8,1,3.8,1,5.8c-0.1,11.1-0.9,22.2-0.7,33.3c0.2,16.2-1,32.4-0.3,48.6
		c0.3,6.3-1.3,12.5-1.2,18.8c0.1,4.1,0.5,7,5.2,7.5c-1.5,1.6-3.6,1.5-5.5,2c-12.1,3.2-17.1,9-18.2,21.4c-0.1,1.3-0.1,2.7-1.3,3.6
		c-0.6-4.6-3.5-5.2-7.6-5.1c-11.9,0.3-23.8,0.4-35.7,0c-13.7-0.4-27.5-0.5-41.2,0.2c-10.5,0.6-20.9,1.2-31.4,0.8
		c-24.1-0.8-48.1,0.2-72.2,0c-15.3-0.1-30.5-1-45.8-0.9c-3.8,0-7.6,0.6-11.4,0.8c-11.8,0.5-23.7,1-35.4,0.6c-15-0.4-30,0.2-45-0.4
		c-4.4-0.2-8.9,1.1-13.4,0.8c-14.8-0.9-29.5,0.7-44.2,0.1c-9.9-0.4-19.7-0.5-29.6-1.1c-8-0.5-15.9,1.2-23.9,1.1
		c-24.5-0.2-49,0-73.5-0.1c-3.4,0-7.2,0.4-9.8-2.9c-1-4.3,1-7.7,3-11.2c1-1.8,1.5-3.4-0.8-4.5c-3.9-1.9-5.7-5.4-6.9-9.3
		c-0.4-1.2-0.5-2.9-2.2-2.9c-1.4,0-1.6,1.5-1.9,2.6c-1.6,4.9-4,9.1-8.1,12.3c-1.7,1.3-1.7,2.6,0.5,3c6.7,1.1,11,5.6,15.5,10.1
		c-4.5,3.2-10,2.2-14.9,2.6c-9.6,0.7-19.3,0.1-29,0.3c-3.5,0.1-4.8-1-5.3-4.7c-1-8.2-5.4-14.7-12.5-19.1c-5.1-3.2-5.1-4.6-0.5-8.2
		c6.6-5.1,13.7-9.6,19.8-15.6c3.8-3.7,8.7-6.6,12.7-10.4c11-10.3,22.6-19.8,32.9-30.7c5.2-5.5,11-10.5,16.6-15.7
		c0.9-0.8,1.8-2.3,3.2-0.5c1.4,1.3,1,3,1.2,4.6c0.5,5,3.8,8.3,8.1,8.3c4.1,0,8.8-4.3,9.2-8.4c0.5-4.3-3-8.9-7.3-9.9
		c-1.4-0.3-3,0.4-4.2-0.8c-3.3-1-1.2-2.6,0-3.2c7.2-4,12.3-10.5,18.9-15.3c3-2.2,4.2-5.8,7.7-8.1c9.9-6.4,19.5-13.5,28.6-21.1
		c9.1-7.5,18-15.3,26.2-23.9c2.2-2.3,4.9-1.3,7.5-1c4.5,0.4,9.1,2.3,13.2-1.4c2.2,2.5,1.2,5.3,1,8.1c-1.1,13.4-3.8,26.7-3.5,40.2
		c0.2,10.7,3.3,13.9,14.1,14.2c5.7,0.1,11.3,0,17,0c2.2,0,4.3-0.2,6.4-0.7c3.3-0.8,7.2-1.5,6.9-5.8c-0.3-4.6-4.5-4.3-7.7-4.4
		c-6-0.3-12,0-18-0.1c-5.3-0.2-6.4-1.3-6.6-6.5c-0.3-5.7,0.9-11.3,1.3-16.9c0.5-6.1,1.8-12.2,1.7-18.4c-0.1-3.8,1.7-5.7,5.5-6.4
		c4.5-0.9,9-0.3,13.4-0.8C300,111.9,306.7,112.8,313,110.3z"/>
	<path class="st9" d="M366.7,110.4c1.2,10.8-0.1,21.6-1.1,32.4c-0.8,8.8,0.2,17.6-1.6,26.4c-1.2,6-3.6,8.1-9.9,8.2
		c-8,0.1-16,0.1-24,0c-8-0.1-12.3-4.8-11.3-12.7c2.4-18.3,2.2-36.8,3.3-55.2c-0.3-3.1,1.9-4.6,4-6.1c1.7-0.3,3.4-1.1,4.9,0.4
		c0.9,0.9,1.8,1.8,2.7,2.7c1.8,1.3,0,3.6,1.3,5l0,0c2.8,4.7,1.8,9.8,1.2,14.6c-1.1,9.8,0,19.6-1.5,29.4c-0.6,3.7,1.1,5.7,5.1,5.4
		c1.7-0.1,3.3,0,5-0.1c2.5-0.1,3.7-1.3,3.7-3.7c0.1-10.5,1.7-20.9,2.1-31.4c0.2-5.7,0.5-11.3,3.6-16.3c1-1,2-2,3-3
		c2.8-0.6,5.6-1.2,7.9,1.3C365.5,108.5,366.1,109.5,366.7,110.4z"/>
	<path class="st9" d="M313,110.3c-3.2,3.2-7,3.7-11.4,3.5c-7.6-0.2-15.3,0.3-22.9,1.3c-1.9,0.2-2.6,1-2.6,2.9
		c0,12.7-2.9,25.1-3.2,37.7c-0.1,3.4,0.6,4.7,4.3,4.5c6.8-0.3,13.6-0.2,20.5,0.1c3.9,0.1,8.1,0.7,8.4,5.8c0.3,4.9-3.5,6.4-7.5,7.1
		c-10.1,1.8-20.3,1-30.4,0.4c-6.7-0.4-9.9-4.4-10.2-11.3c-0.5-11.5,1-22.9,2.4-34.3c0.8-5.9,1.8-11.8,1.6-17.9
		c-0.4-4.3,2.5-5.7,5.8-6.7c1.7-0.5,3.5-0.9,5.3-1.4c1.6-1,3.5,0.2,5.1-0.9c0.6,0,1.3-0.1,1.9-0.1c2.3-1,4.9,0.3,7.2-0.8
		c0.3,0.1,0.5,0.1,0.8,0c4.3-1.5,8.8,0.4,13.1-1l-0.1,0c2.3-0.7,4.7-1.2,6.9,0.3C313.7,102.2,314.8,104.5,313,110.3z"/>
	<path class="st9" d="M39.1,95.2c5.6,2.3,6,3.5,2.4,7.8c-1,1.2-1.4,2.6-1.4,4.2c0.7,34.5-4.4,68.7-4.2,103.2
		c0.1,17.3,2.2,34.6,1,51.9c-1.4,3.4-1.5,8-6.8,8.2c-3.7-0.8-5.1-3.8-4.7-6.7c3-21.1,0.6-42.2,0.8-63.3c0.2-24.3,1.9-48.5,2.9-72.7
		c0.3-7.5-0.6-15,0.9-22.4C31.1,100.1,33.7,96.4,39.1,95.2z"/>
	<path class="st9" d="M459.9,107.4c1.2,5.3-0.8,8.3-6.2,8.8c-3.5,0.3-6.9-0.7-10.3-1.5c-2.2-0.5-3.5-0.2-3.6,2.4
		c-0.1,4.3-0.4,8.6-0.8,12.9c-0.2,2.8,0.9,3.4,3.5,3.3c3.5-0.2,7-0.3,10.5-0.1c3.7,0.3,7,1.6,7.2,6.1c0.2,4.7-3.2,6.4-7.1,6.8
		c-3.6,0.4-7.3,0.3-11,0.1c-3.1-0.2-3.9,0.9-4,3.9c-0.4,12.3-0.5,12.3,11.8,12.2c2.5,0,5-0.1,7.5,0.2c2.9,0.4,5.4,1.9,5.8,5.2
		c0.4,3.6-1.5,6-4.7,6.7c-8.7,1.8-17.6,1.9-26.2,0.2c-6.2-1.2-9.4-8.8-8.9-16.6c0.9-15.9,1.1-31.9,3.7-47.7c1-6.4,6-7.4,11.1-8.2
		c2.6-0.4,5.3-0.5,7.9,0.1C450.7,103.6,455.9,103.9,459.9,107.4z"/>
	<path class="st9" d="M650.9,298.3c-0.4-16.8,8-26,25-27c2.3,0.7,4.6,1.5,6.9,2.2c10.6,6,14.3,17.4,11.9,25
		c-2.7,8.9-9.2,13.8-18,16.1c-8.3,2.2-15-0.6-20.5-6.8c-0.4-0.5-0.9-0.9-1.4-1.4C652.3,304.3,651.4,301.4,650.9,298.3z"/>
	<path class="st9" d="M417.8,108.1c-2.5,5.8-7.5,6.7-12.8,6.4c-4-0.2-5,1-4.6,5.2c1.6,15.6,0.1,31.2-1.5,46.7
		c-0.2,1.6-1,3.2-1.8,4.6c-1.6,2.7-4.1,3.9-7.2,3.3c-3-0.6-4.4-2.9-4.8-5.7c-0.5-3.6-0.1-7.3,0.3-10.9c1.5-13.4,2.6-26.8,2.9-40.2
		c0.1-3.8-2.4-2.9-4.3-3c-6.6-0.7-8-2-8.1-8.1c1.1-2,3.2-2.3,5-3c4-1.4,8.2,0.3,12.2-1c1.6-0.1,3.2-0.1,4.8-0.2
		c2.6-1,5.5,0.3,8.2-0.8C411.3,101.4,416.4,101.7,417.8,108.1z"/>
	<path class="st9" d="M67.9,307.1c-5.5,5.2-11.9,8.9-19.6,7.6c-12.9-2.1-19.6-13.8-16.2-27.4c6.2-11.2,20.2-15.3,30.6-9
		c5,3,6.9,8.2,9.4,13c0.8,2.6,0.7,5.3,0.1,8C70.8,301.9,70.1,304.9,67.9,307.1z"/>
	<path class="st6" d="M354,109.3c-2.6,15.8-3.3,31.7-3.9,47.7c-0.2,4.2-0.8,6.3-5.5,5.4c-2.1-0.4-4.4-0.4-6.5-0.1
		c-4.8,0.8-5.4-1.4-5.2-5.6c0.8-15.1,1.3-30.3,2-45.4C341.6,113.2,347.9,112.3,354,109.3z"/>
	<path class="st9" d="M671.9,157.2c-7.2,5.4-13,5.4-17.6,0.1c-1.8-2.1-3.3-4.4-1.6-7.2c1.7-2.6,4.1-2.9,7-2c1.2,0.4,3,2,4,0.2
		c1.2-2.2-0.6-3.8-2.3-4.9c-4.5-3.1-9.1-6-10.2-12.2c-1-5.9,1.5-12,6.2-14.6c4.9-2.7,11.4-0.9,13.8,3.9c1,2,1.3,4.2-0.5,6
		c-1.6,1.6-3.3,0.8-5-0.2c-1.3-0.8-2.7-2.8-4.2-0.8c-1.5,2.1-0.6,4.3,1.3,5.7c3.5,2.6,7,5.1,10,8.2c0.6,1.3,1.1,2.7,1.7,4
		c1.3,2.6,1.3,5.3,0,7.9C673.7,153.2,672.8,155.2,671.9,157.2z"/>
	<path class="st6" d="M536,308.2c-128,0-255.9,0-383.9,0c1.5-1.6,3.4-1,5.2-1c124.5,0,249,0,373.5,0
		C532.5,307.3,534.5,306.6,536,308.2z"/>
	<path class="st10" d="M130,292.4c-1.5-0.1-3.2-0.3-4-1.7c-2.9-5.1-8-6.1-12.9-7.4c-1.1-0.3-2.4-0.4-2.7-1.8c-0.3-1.5,1-1.8,1.9-2.5
		c4.6-3.2,7.3-7.6,8.7-12.9c0.4-1.7,0.7-3.8,3.2-3.7c2.5,0.1,2.5,2.1,3,3.9c1.1,4.5,3,8.5,8,9.9c2.1,0.6,2.2,2,1.1,3.4
		c-3.1,3.7-3.8,8.4-5.3,12.7C130.7,292.4,130.4,292.4,130,292.4z"/>
	<path class="st11" d="M160,184.3c5.9-1.4,10.3,1,12.4,6.8c1.7,4.6-1.1,10.6-6,12.8c-4.5,2.1-9.7,0.2-12.4-4.2
		c-1.8-3-0.7-6.2-0.9-9.3C155.1,188,157.4,185.9,160,184.3z"/>
	<path class="st6" d="M308,91.3c1.5-1.5,3.5-0.9,5.2-0.9c77.2,0,154.4,0,231.6,0c1.8,0,3.7-0.6,5.2,0.9
		C469.3,91.3,388.6,91.3,308,91.3z"/>
	<path class="st12" d="M610.7,105.4c0.9,3.7,0.9,7.3-3.9,7.9c-5,0.7-6.5-2.8-6.9-7C602.3,100.9,604.5,100.7,610.7,105.4z"/>
	<path class="st6" d="M686.9,111.4c0,22.9,0,45.8,0,68.8c0,1.5,0.4,3-0.9,4.2c0-22.6,0-45.2,0-67.8
		C686,114.8,685.3,112.9,686.9,111.4z"/>
	<path class="st6" d="M650,308.3c-0.9,1-2,0.9-3.2,0.9c-12.6,0-25.1,0-37.7,0c-1.2,0-2.3,0.1-3.2-0.9
		C620.6,308.3,635.3,308.3,650,308.3z"/>
	<path class="st6" d="M685.9,213.3c0,11.8,0,23.5,0,35.3c0,1.6,0.5,3.4-0.9,4.7c0-11.6,0-23.2,0-34.8
		C685,216.7,684.3,214.8,685.9,213.3z"/>
	<path class="st6" d="M607.9,90.3c1.3-1.4,3.1-0.9,4.7-0.9c11.4,0,22.9,0,34.3,0c-1.5,1.6-3.4,0.9-5.2,1
		C630.5,90.4,619.2,90.3,607.9,90.3z"/>
	<path class="st6" d="M566.9,91.3c2.7-1.9,5.8-0.8,8.7-0.9c7.4-0.2,14.9-0.1,22.4-0.1c-2,1.8-4.4,0.9-6.7,0.9
		C583.2,91.4,575,91.3,566.9,91.3z"/>
	<path class="st6" d="M260,92.3c4.4-2,9.1-0.6,13.6-0.9c4.1-0.3,8.3,0,12.4,0c-3.7,2-7.7,0.7-11.6,0.9
		C269.6,92.5,264.8,92.3,260,92.3z"/>
	<path class="st6" d="M130,308.2c-8,0-16,0-24,0C114,306.6,122,306.6,130,308.2z"/>
	<path class="st6" d="M655.9,89.3c8-1.6,16-1.6,24,0C671.9,89.3,663.9,89.3,655.9,89.3z"/>
	<path class="st6" d="M301.1,99.4c-4.3,1.5-8.7,0.8-13.1,1C292.2,98.1,296.7,99.9,301.1,99.4z"/>
	<path class="st6" d="M393.2,102.4c-4,1.5-8.2,0.6-12.2,1C384.9,101.1,389.1,102.8,393.2,102.4z"/>
	<path class="st6" d="M244,91.3c3.2,1.1,6.6,1,10,1C250.5,93.7,247.1,94.6,244,91.3z"/>
	<path class="st6" d="M82.1,309.3c-3.7,1.5-7.4,1.6-11.1,0C74.7,309.3,78.4,309.3,82.1,309.3z"/>
	<path class="st6" d="M684.9,264.3c-0.4,3,1.1,6.1-1,8.9C684.4,270.2,682.9,267.1,684.9,264.3z"/>
	<path class="st6" d="M364.9,107.6c-2.5-1.6-5.2-1.4-7.9-1.3C359.9,105,362.8,104,364.9,107.6z"/>
	<path class="st6" d="M674.6,151.2c0.5-2.6,0.6-5.3,0-7.9C676.7,146,676.7,148.6,674.6,151.2z"/>
	<path class="st6" d="M445.9,102.2c-2.6,0-5.2-0.1-7.9-0.1C440.7,100.9,443.3,100.8,445.9,102.2z"/>
	<path class="st6" d="M406.2,101.4c-2.6,1.4-5.4,0.8-8.2,0.8C400.6,100.4,403.5,101.7,406.2,101.4z"/>
	<path class="st6" d="M72.1,299.2c0-2.7,0-5.3-0.1-8C73.6,293.9,73.5,296.6,72.1,299.2z"/>
	<path class="st6" d="M686.9,94.4c1.6,2.7,1.4,5.3,0,8C686.9,99.7,686.9,97,686.9,94.4z"/>
	<path class="st6" d="M287.2,100.4c-2.3,1.3-4.7,0.8-7.2,0.8C282.3,99.5,284.8,100.6,287.2,100.4z"/>
	<path class="st6" d="M307.9,99.7c-2.3-0.1-4.6-0.2-6.9-0.3C303.4,97.8,305.7,97.3,307.9,99.7z"/>
	<path class="st6" d="M335,111.4c-1.2-1.5-0.6-3.4-1.3-5C335.9,107.6,334.7,109.7,335,111.4z"/>
	<path class="st6" d="M330.9,103.7c-1.6-0.1-3.3-0.3-4.9-0.4C327.8,102,329.5,101.6,330.9,103.7z"/>
	<path class="st6" d="M278.2,101.4c-1.6,1.2-3.4,0.9-5.1,0.9C274.5,100.7,276.4,101.5,278.2,101.4z"/>
	<path class="st13" d="M140,85.6c-0.1,8-8.4,16-16.3,15.6c-7-0.3-13.4-6.1-12.8-13.7c0.5-7.1,9.1-16.2,15.8-16.1
		C134,71.7,140.1,78.2,140,85.6z"/>
	<path class="st14" d="M94.1,125.3c-3-4.1-6.1-7.9-11.3-9.3c-2.7-0.7-3.2-2.4-0.9-4.1c4.8-3.5,8.5-7.8,11.1-13.2
		c1.2-2.4,3.4-2.3,4.1,0.6c1.1,4.2,3.5,7.4,6.7,10.3c1.6,1.4,1.7,3.2,0.4,4.9c-2.8,3.5-5.6,7-6.4,11.6c-0.1,0.7-1.1,0.2-1.7,0
		c-1.5-3.8-1.1-7.4,0.8-10.9c1.4-2.4,1.9-4.5-0.8-6.4c-2.2-1.5-2.8,0.4-4.1,1.3c-2.9,2-1.5,3.6,0.2,5.6c1.9,2.1,2.9,4.8,3.2,7.7
		C95.6,124.4,95.7,125.7,94.1,125.3z"/>
	<path class="st15" d="M94.1,125.3c1.9-4.6-1.9-7.1-3.9-10.2c-0.6-0.9-1.8-1.4-3-2.2c2.2-2.1,4.8-3.3,6.1-5.9c0.4-0.8,1-1.4,1.9-0.7
		c1.5,1.3,2.9,2.7,4.3,4c2.5,2.4-0.9,3.3-1.4,4.9c-1.3,3.6-2.7,7.1-2,11.1C95.3,126.3,94.5,126.1,94.1,125.3z"/>
	<path class="st16" d="M158.5,102.4c-0.2,2.7-1.8,4.3-4.1,4.5c-2.8,0.2-4-1.9-4.4-4.4c-0.3-2.3,0.5-3.9,3.1-4.1
		C156.3,98.1,157.6,100,158.5,102.4z"/>
	<path class="st17" d="M134.3,141.2c-1.6-0.7-2.2-2.1-2-3.6c0.2-1.4,0.6-3.2,2.6-3c1.6,0.1,2.4,1.4,1.9,2.8
		C136.3,138.8,136.6,140.8,134.3,141.2z"/>
	<path class="st18" d="M137.9,121.5c-1,1.5-0.3,4.2-2.4,4.1c-1.9-0.1-1.8-2.6-2.1-4c-0.3-1.3,0.4-2.8,1.9-3
		C137.4,118.4,137.3,120.4,137.9,121.5z"/>
	<path class="st17" d="M141.1,131c-1.4-0.3-2-1.1-1.9-2.4c0.1-1.3,1-2.1,2.3-2.1c1.2,0,2.4,0.6,2.2,2
		C143.6,129.9,142.5,130.7,141.1,131z"/>
	<path class="st19" d="M128.7,128.3c-0.3,1.4-1.3,1.9-2.6,1.8c-1.3-0.2-2.1-1-2-2.4c0.1-1.3,1.1-1.5,2.2-1.4
		C127.6,126.5,128.6,126.9,128.7,128.3z"/>
	<path class="st20" d="M336.7,47.6c-3.8,0-6.2-0.7-6.2-3.6c0-2.6,2-4.3,4.6-4.2c2.5,0.1,4.7,1.3,4.7,4.1
		C339.8,46.5,338,47.6,336.7,47.6z"/>
	<path class="st9" d="M338.8,283.5c-0.5,3.5-2.2,5.9-5.6,6.4c-3.4,0.5-5.8-1.5-6.8-4.7c-2.3-6.9-4.7-13.9-6.5-21
		c-1.1-4.3-3.2-5.3-7.4-5.1c-7.6,0.3-15.3,0.9-22.9-0.8c-3.2-0.7-5.2,0.3-6.6,3.5c-3.5,8.1-7.2,16.1-11,24.1
		c-2.4,5.1-5.6,6.8-9.2,5.2c-3.6-1.6-4.6-5.2-2.5-10.2c11.4-27.2,23.2-54.1,35.7-80.8c1.8-3.9,4.9-6.4,8.3-8.3
		c3.9-2.1,6.8,0.1,8.2,3.9c2.7,7.3,5.3,14.7,7.6,22.2c6.5,20.6,12.1,41.5,17.7,62.3C338.3,281.4,338.6,282.5,338.8,283.5z"/>
	<path class="st9" d="M363.2,230.4c0,13.8,0.1,27.6-0.1,41.4c0,3.4,0.7,4.7,4.4,4.5c6.1-0.4,12.4-0.5,18.5-0.1
		c4.6,0.4,5.8-1.7,5.9-5.6c0.2-5.8,0.8-11.6,0.9-17.4c0.3-17.8,1.1-35.6,3.2-53.3c0.1-0.5,0-1,0.1-1.5c0.9-3.7,1.4-8.2,6.5-8
		c5,0.2,5,4.7,5.2,8.3c0.7,13.8-0.4,27.6-1.2,41.4c-0.8,13.8-0.7,27.6-2.5,41.3c-0.8,6.5-2.2,7.7-8.9,8.1c-12.5,0.8-24.9,1-37.4-0.1
		c-4.1-0.4-6.2-2.6-7.1-6.5c-1.5-6.4-0.7-13-0.5-19.4c0.7-20.5,1.7-40.9,2.6-61.4c0-0.8,0-1.7,0.1-2.5c0.3-3.9,0-9.2,5.4-9
		c5.1,0.1,5.4,5.3,5.5,9.2c0.2,10.2,0.1,20.3,0.1,30.5C363.7,230.4,363.4,230.4,363.2,230.4z"/>
	<path class="st9" d="M232.9,265.1c5.7-15,10.9-28.9,16.2-42.6c3.8-9.8,7.8-19.4,11.8-29.1c0.6-1.4,1.2-2.7,2-4
		c1.8-3.2,4.4-5.2,8.2-3.9c4.1,1.5,4.4,5,3.7,8.7c-0.1,0.6-0.4,1.3-0.6,1.9c-9.7,27.1-19.8,54-31.7,80.2c-1.8,3.9-3.6,7.7-8.4,9.2
		c-6.6,2.1-9.6,1.1-11.6-5.6c-4.9-16.4-9.7-32.8-14.3-49.3c-3.4-12-6.4-24.1-9.4-36.2c-0.6-2.2-0.8-4.6-1-6.9
		c-0.2-3.1,0.7-5.7,4-6.6c3.2-0.9,5.1,1,6.4,3.5c3.1,5.9,5,12.3,6.9,18.7c5.7,19.5,11.2,39,16.8,58.5
		C232,262.3,232.2,263.1,232.9,265.1z"/>
	<path class="st9" d="M510,227.1c0,16,0,31.9,0,47.9c0,5.4-2.7,9-6.5,9.1c-4.2,0.1-7.5-3.4-7.2-9c1.1-21.6,0-43.2,2.3-64.8
		c0.9-9.1,1.1-9.1-8.1-9.1c-4.5,0-9,0.1-13.4-0.8c-2.6-0.5-5-1.4-5.1-4.5c-0.2-3.4,2.4-4.7,5.1-5.1c11.2-1.6,22.4-3,33.6-4.2
		c5.3-0.5,10.6-0.1,15.9-1c2.5-0.4,5-0.2,7.4,0.8c2.3,0.9,3.9,2.5,4.2,5.1c0.3,2.8-0.9,4.9-3.4,6.1c-1.5,0.7-3.1,1.5-4.6,1.7
		c-5.1,0.3-10.3,0.6-15.4,0.4c-2.9-0.1-3.7,0.6-3.7,3.5c0.2,8,0.1,16,0.1,24C510.7,227.1,510.3,227.1,510,227.1z"/>
	<path class="st9" d="M437.1,230.6c0.4,12.3-0.4,27.4-1.4,42.5c-0.2,3.2,0.2,4,3.6,3.6c8.1-0.9,16.3-1,24.3-2.3
		c1.6-0.2,3.3,0.2,4.9,0.5c2.9,0.6,4.9,2.4,5.1,5.3c0.2,2.8-1.5,4.6-3.8,5.9c-3.5,1.9-7.4,2.1-11.1,2.5c-9.6,1.1-19.2,2.5-28.8,0.7
		c-6-1.1-9.2-5.1-8.6-11.3c1.5-16.4,1.9-32.9,1.8-49.4c-0.1-10.2,0.7-20.3,1.9-30.3c0.2-1.6,0.6-3.3,1.2-4.8
		c1.1-2.8,3.2-4.2,6.3-3.7c3,0.5,4.3,2.6,4.4,5.3c0.2,4.7,0.1,9.3,0.1,14C437.1,215.4,437.1,221.6,437.1,230.6z"/>
	<path class="st9" d="M596.9,145.4c0,3.7,0.2,7.3-0.1,11c-0.3,3.1-1.6,6.1-5.4,6c-3.9-0.1-5.5-2.8-5.5-6.4c-0.1-7.8,0-15.6-0.9-23.4
		c-0.1-1.3,0.1-3.1-1.3-3.5c-1.7-0.5-2.5,1.3-3.2,2.5c-3.2,5.4-4.8,11.3-4.5,17.6c0.1,2.5,0.2,5-0.1,7.5c-0.3,2.7-1.8,4.7-4.8,4.7
		c-2.9,0-4.6-1.5-5.2-4.3c-1.1-4.9-0.8-9.9-0.9-14.9c0-3.4-0.4-6.7-1.3-9.9c-0.6-2.3-2.1-2.6-3.4-0.5c-1.7,2.7-2.4,5.8-2.3,9
		c0.2,5.8,0.3,11.6-1,17.4c-0.7,3.2-2,6-5.8,5.5c-3.6-0.5-4.7-3.4-4.3-6.8c1.2-10.3,1.4-20.6,1.9-30.9c0.2-3.2,1.6-5.3,5.1-3.8
		c1.5,0.6,2.5,0.1,3.6-0.5c4.6-2.6,9-2.4,12.6,1.7c1.6,1.8,2.3,1.7,3.7-0.2c3.2-4.6,7.5-7.1,13.3-5.5c5.9,1.7,7.9,6.4,8.9,12.1
		C597,135.1,596.8,140.2,596.9,145.4z"/>
	<path class="st9" d="M474.9,151.2c0.1-8.2,0.5-16.3,1.7-24.4c0.3-2.2,0.9-4.3,3.4-5.1c2.6-0.9,4.1,0.6,5.2,2.7c1,2.1,2.6,1,3.9,0.7
		c10.2-2.1,16.6,2.3,17.9,12.6c1.1,8.3,1.1,16.6,1,24.9c0,3.9-1.2,7.4-5.6,7.4c-4.5,0-5.2-3.8-5.4-7.5c-0.3-7.1-0.7-14.3-0.9-21.4
		c-0.1-3.6-0.9-6.2-5.4-5.9c-4.5,0.3-4.8,3-4.6,6.5c0.2,6,0.2,12,0.2,18c0,1.8-0.1,3.7-0.7,5.4c-0.9,2.6-2.6,5-5.7,4.8
		c-3.3-0.3-4.7-3-4.8-6.1C474.8,159.6,474.9,155.4,474.9,151.2z"/>
	<path class="st9" d="M543.7,140.4c-0.5,7.8-1.8,14.4-6.5,19.9c-7.4,8.7-18.5,7.1-22.4-3.6c-3.1-8.4-3.6-16.9,0.6-25.1
		c2.5-4.8,5.9-9,12.2-8.8c7.1,0.2,11.9,3.8,14.4,10.3C543,135.7,543.3,138.5,543.7,140.4z"/>
	<path class="st9" d="M618.8,141.8c0-8.1,1.5-14.6,6-20.2c2.7-3.3,6.2-5.1,10.6-4c4.4,1.1,7.2,4,8.1,8.6c0.5,2.5,0.1,4.8-2.2,6.1
		c-2.6,1.6-4-0.6-5.2-2.3c-2.2-3.2-3.8-2.6-5.1,0.7c-1.6,4.2-2.6,8.6-1.8,13.2c1,5.8,4.4,7.3,9.4,4.3c1.9-1.1,3.8-2.5,5.9-0.5
		c1.9,1.9,1.7,4.2,0.6,6.5c-3.1,6.7-13,8.6-19.3,3.5C620.3,153.3,618.4,147.5,618.8,141.8z"/>
	<path class="st21" d="M155.3,223.9c1.7-0.1,2,1.5,2.3,2.6c2,8.9,7.4,15.4,14.5,20.7c2.8,2.1,1.7,3.8-0.3,5
		c-6.6,4.1-10.8,9.6-11.8,17.5c-0.4,2.7-2.1,2.5-4,1.4c-1.6-0.9-2.3-2.4-2.8-4c-1.9-6.4-6.1-10.5-12.2-12.9c-4.6-1.8-5.1-4.3-1.2-7
		c7.3-5.1,11-12.2,13.1-20.5C153.2,225.5,153.6,224.3,155.3,223.9z"/>
	<path class="st21" d="M530.9,267.2c0.3-1.9,1.1-3.1,2.3-4c6.9-5.3,12.7-11.1,13-20.7c0.1-2.6,2.4-3,4.3-0.9c0.7,0.8,1.2,2,1.6,3.1
		c2.1,6.4,6,11.5,12,14.6c2.6,1.4,3.1,2.9,0.5,4.8c-5.6,4.2-7.3,10.5-8.6,16.9c-0.2,1.1,0.3,2.7-1.3,2.8c-1.2,0.1-2.2-0.7-2.8-1.8
		c-0.4-0.6-0.8-1-1.2-1.6c-3.5-5.9-8.5-9.7-15.6-10.2C533.1,270,531.2,269.5,530.9,267.2z"/>
	<path class="st21" d="M591.5,219.3c-6.9,0-12.4-5.4-12.5-12.1c-0.1-7.4,6.8-14.8,13.9-14.9c7.2-0.1,13.9,6.1,14,12.8
		C607,213.1,600.3,219.3,591.5,219.3z"/>
	<path class="st9" d="M615,145.5c-0.3,4.6,0.2,7.9-0.7,11.2c-0.7,2.5-2.1,4.3-4.7,4.4c-2.5,0.1-4.2-1.5-4.6-3.8
		c-1.9-11.3-3-22.7-0.7-34c0.4-2.2,2.1-3.9,4.6-3.8c2.8,0.1,4.2,2.1,4.4,4.6C614,131.6,614.5,139.2,615,145.5z"/>
	<path class="st22" d="M654,240.2c0.2,4-2.7,5.4-5.7,5.6c-3.9,0.3-5-3.1-5.1-6.1c0-3.2,2.3-5.3,5.5-5.4
		C652.4,234.3,653.9,236.7,654,240.2z"/>
	<path class="st23" d="M593,245.5c-0.7,2.7-2.3,4.9-5.4,4.6c-2.7-0.2-4.6-2.2-4.5-5c0.2-3.4,3.1-4.2,5.7-4.4
		C591.6,240.5,592.7,242.7,593,245.5z"/>
	<path class="st23" d="M144.3,211.4c-3.8,0-5.1-2.3-5.1-5.2c0-2.8,2-4.1,4.7-3.9c2.8,0.2,4.9,1.9,4.9,4.6
		C148.7,209.6,147.1,211.6,144.3,211.4z"/>
	<path class="st24" d="M629,208.2c0.3,3.1-1.7,4.6-4.3,4.8c-2.8,0.2-4.1-2.2-4.3-4.5c-0.2-2.5,1.3-4.3,4.2-4.3
		C627.4,204.2,629.1,205.1,629,208.2z"/>
	<path class="st25" d="M227,142c-0.4,2.2,0.1,6.4-2.8,6.6c-3.6,0.2-1.6-4.2-2.6-6.4c-0.3-0.8,0.1-1.9,0.2-2.8
		c0.2-1.7,0.4-3.6,2.6-3.5c1.9,0.1,2.5,1.8,2.6,3.6C227,140.3,227,140.9,227,142z"/>
	<path class="st26" d="M219,160.1c0-2.4,0.1-4.7,2.9-4.6c3,0.1,3.1,2.6,3,4.8c0,2.3-0.2,5.6-2.9,5.5
		C219.1,165.6,219.2,162.2,219,160.1z"/>
	<path class="st23" d="M213,151.2c1.8,0.3,5.1-0.5,4.8,2.5c-0.4,3.3-4.2,2.6-6.6,3.1c-1.5,0.3-3.8-0.5-3.7-2.5
		C207.7,151.4,210.3,151.2,213,151.2z"/>
	<path class="st27" d="M235.7,151c-0.6,1.7-1.9,2-3.1,2.2c-1.4,0.2-2.8,0-3.1-1.6c-0.3-1.7,1.1-2.2,2.5-2.3
		C233.5,149.3,234.7,150,235.7,151z"/>
	<path class="st28" d="M681.2,288.6c2.5,3.2,3.8,6.3,1.6,9.8c-2.1,3.4-4.8,6-9.2,5.9c-1.8,0-3.3-0.2-1.7-2.5
		C675,297.5,678,293.1,681.2,288.6z"/>
	<path class="st29" d="M673.5,283.8c-2.9,3.7-5.7,7.3-8.6,10.9c-0.5,0.6-1,1.4-2,1.1c-1-0.3-0.9-1.3-1-2.1
		C661.3,288,667.2,282.8,673.5,283.8z"/>
	<path class="st29" d="M53,286.2c-1.8,4.3-5,7.4-7.7,10.9c-1.7,2.2-2.8,0.4-3.2-1.4C40.8,290.1,44.9,286.4,53,286.2z"/>
	<path class="st30" d="M51.5,303.8c1.8-4.3,5.2-7.4,7.6-11c1.4-2,2.4-0.9,2.9,1C63.4,299.4,58.8,303.9,51.5,303.8z"/>
	<path class="st31" d="M124.3,270.7c1,5.3,10,7.5,3,14c-0.5-0.4-1.4-0.8-1.8-1.5c-1.6-2.4-6.6-0.8-6.3-4.5
		C119.5,276.3,122.1,274.1,124.3,270.7z"/>
	<path class="st32" d="M162.8,189.8c2.4,0.8,4.4,2,4.1,4.9c-0.2,2.4-2.2,4-4.4,4c-2.5,0-3.8-1.8-3.5-4.4
		C159.3,192,160.2,190.1,162.8,189.8z"/>
	<path class="st33" d="M133.1,86.1c0.1,4.9-4.1,9.2-8.9,9.3c-4.5,0.1-8.1-3.4-8.1-7.6c0-4.6,5-9.1,10-9
		C130,78.7,133,81.9,133.1,86.1z"/>
	<path class="st34" d="M305.4,214.7c2.7,9.5,5.4,19.1,8.1,28.6c0.5,1.8,0.3,3.1-1.9,2.8c-6-1-11.9,0.6-17.9,0.2
		c-2.4-0.2-2.9-0.8-2-3c4.2-9.6,8.3-19.1,12.5-28.7C304.7,214.6,305,214.6,305.4,214.7z"/>
	<path class="st35" d="M535,142.5c-0.3,4.6-1.8,8.7-4.8,12.2c-2.3,2.7-4.2,2.2-5.5-1c-2.3-5.6-1.8-11.3,0.2-16.9
		c0.7-1.9,1.5-3.7,4.1-3.6c2.3,0.1,3.6,1.3,4.7,3.1C534.6,138.2,535.2,140.2,535,142.5z"/>
	<path class="st6" d="M153.9,235.2c2.8,5.8,6.2,10.1,11,12.9c1.7,1,2.2,2,0.4,3.2c-3.6,2.4-5.6,6-8.3,10.3
		c-2.8-5.1-6.6-8.5-11.5-10.8c-2.1-1-0.5-2.1,0.3-3C149.1,244.3,151.6,240.3,153.9,235.2z"/>
	<path class="st35" d="M547.9,252.4c2.1,2.2,3.4,4.3,5.3,5.6c3.7,2.7,4.7,4.8,1.6,9.2c-2.4,3.5-3.7,4.2-6.8,1.5
		c-2.6-2.3-5.9-2.9-9.8-3.8C541.9,260.9,545.9,257.8,547.9,252.4z"/>
	<path class="st35" d="M593.4,213.2c-4.5,0-7.5-2.4-7.5-6.1c0-4.1,2.7-6.8,6.9-6.9c4.1-0.1,8.1,3.1,8.2,6.4
		C601,209.8,597.1,213.2,593.4,213.2z"/>
</g>
</svg>
