<?xml version="1.0" encoding="utf-8"?>
<!-- Generator: Adobe Illustrator 26.2.0, SVG Export Plug-In . SVG Version: 6.00 Build 0)  -->
<svg version="1.1" id="Layer_1" xmlns="http://www.w3.org/2000/svg" xmlns:xlink="http://www.w3.org/1999/xlink" x="0px" y="0px"
	 viewBox="0 0 388.7 174.3" style="enable-background:new 0 0 388.7 174.3;" xml:space="preserve">
<style type="text/css">
	.st0{fill:#404F6C;}
	.st1{fill:#7CA6F9;}
	.st2{fill:#CADEFE;}
	.st3{fill:#7BA6F9;}
	.st4{fill:#C9DDFD;}
	.st5{fill:#7AA4F4;}
	.st6{fill:#41506D;}
	.st7{fill:#435373;}
	.st8{fill:#404F6D;}
	.st9{fill:#41506E;}
	.st10{fill:#41516E;}
	.st11{fill:#425270;}
	.st12{fill:#445576;}
	.st13{fill:#EDF2FA;}
	.st14{fill:#42516E;}
	.st15{fill:#ECF1FA;}
	.st16{fill:#495976;}
	.st17{fill:#EAF0FB;}
	.st18{fill:#EBF0FA;}
	.st19{fill:#B9D2FD;}
	.st20{fill:#E7EBF4;}
	.st21{fill:#E8ECF5;}
	.st22{fill:#749BE7;}
	.st23{fill:#EBEFF7;}
	.st24{fill:#79A3F4;}
	.st25{fill:#7AA4F5;}
	.st26{fill:#DEE3ED;}
	.st27{fill:#7399E4;}
	.st28{fill:#95B8FB;}
	.st29{fill:#CBDFFE;}
	.st30{fill:#C5D9F9;}
	.st31{fill:#CDE0FE;}
	.st32{fill:#7BA5F7;}
	.st33{fill:#C3D9FE;}
</style>
<g>
	<path class="st0" d="M307.3,166.7c-23.7,0-47.3,0-71,0c-2.4,0-4.6,0.5-6.8,1.3c-20,8-40.3,8.4-60.5,1c-4-1.4-7.5-0.2-11.2-0.2
		c-13.7-0.1-27.3,0.1-41,0.1c-31.3,0.1-62.6,0.1-94,0.1c-3.7,0-7.3,0-11-0.2c-9.6-0.6-12.1-3.1-11.9-12.5C0.8,114-0.1,71.7,1.1,29.4
		c0.1-5.2,1.5-7.9,7.1-8.5c10.8-1.3,21.6-1.1,32.4-1.3c31-0.7,62-1.2,92.9-1.4c5.3,0,9.6-1.1,14.1-4.1c29.6-19.6,67.7-18.6,97.1,2.2
		c2.3,1.7,4.1,1.9,7,1.4c6.5-1.1,13.3-1.2,19.9-1.3c35.8-0.6,71.6-1,107.4-1.5c7.6-0.1,7.3,0,8.6,7.6c0.9,5.5,1.1,10.9,1,16.4
		c-0.1,40.5-0.3,80.9-0.6,121.4c0,6.2-1.8,7.7-9.4,7.7c-23.8,0.1-47.6,0-71.5,0C307.3,167.6,307.3,167.2,307.3,166.7z"/>
	<path class="st1" d="M119.1,97.1c-8.4,3.4-8.4,3.4-5.7,12.4c3.5,11.9,9,22.9,17,32.5c0.9,1.1,1.7,2.4,2.8,4
		c-12.5,3.8-24.7,6.7-37.3,8c-5.3,0.6-10.5,1.2-15.9,0.2c-7-1.3-8.5-4-4.8-10.2c3.9-6.5,9.3-11.7,14.9-16.6
		c3.5-3.1,6.9-6.2,10.3-9.5c1.3-1.3,2.6-3.1,1.3-4.9c-1.3-1.7-3.4-1-5-0.1c-12.2,7.2-23,16-30.1,28.4c-3.6,6.3-3.7,12.6,2.5,18.5
		c-1.6,0.1-2.3,0.2-3.1,0.2c-17.3,0.3-34.6,0.5-51.9,1.1c-4.1,0.1-5.4-0.9-5.3-5.1c0.8-39.1,1.6-78.2,1.2-117.3
		c0-3.5-2.5-8.1,0.4-10.2c2.3-1.7,6.7-0.4,10.2-0.4c34.8-0.3,69.6-0.7,104.3-1c1.8,0,3.6,0,5.7,0c-0.3,3.4-3.8,4.5-4.4,7.7
		c4.3,1,8.4,0,12.5-0.7c7,1.8,9.6,6.8,9.5,13.5c-0.3,11.9-1.2,23.9-2.3,35.8c-0.3,3.6-1.8,6.7-5.1,8.7c-4,2.3-7.9,1.8-10.4-2
		c-1.3-1.9-1.9-1.9-3.8-0.8C123.6,91.2,120.5,93.3,119.1,97.1z"/>
	<path class="st1" d="M270,109.1c1.1,4.1,4.1,1.5,6.1,1.6c1.9,0.1,3.7-0.5,4.2-3.3c0.9-5.3,2-10.5,1.8-15.8c-0.1-3.1,0.9-5.1,3.5-7
		c10.8-7.6,21.1-15.7,30-25.4c3.3-3.6,6.1-7.5,8-12c3.6-8.3,0.5-15.4-8.2-18.1c-6.3-1.9-12.7-2.1-19.3-1.5c-9.5,0.8-18.8,2.2-28,4.5
		c-4.3,1.1-7.3,0.4-9.5-3.5c-0.7-1.2-1.9-2.2-3.1-3.6c3.6,0,6.7,0,9.9,0c36.3-0.3,72.6-0.5,108.9-0.9c4.3,0,6,0.7,5.8,5.6
		c-1.4,41.3-1,82.6-0.8,123.9c0,4.3-0.9,5.6-5.5,5.6c-41-0.1-82,0-122.9,0.1c-1,0-2,0-3.5,0c1.7-3.6,5.6-4.5,7.4-7.9
		c-4.8-1-9.2,1.4-13.8,0.7c-0.8-1.5-2.1-2.4-3.7-3.1c-7.3-3.3-10.5-9.3-10.4-17c0-5.3,0.6-10.6,4.2-14.9c5.3-2.8,10.7-5.7,16-8.5
		c0.9,0.4,1.9,0.6,2.7,1.2C256.7,114.7,263.4,114.4,270,109.1z"/>
	<path class="st2" d="M119.1,97.1c-0.3-3.3,0.1-6,4.1-7.2c2.6-0.8,4.7-2.9,6.6-5.3c1.4,3.7,1.8,8.2,7.3,7.4c5.2-0.7,7.5-4.3,7.8-8.9
		c0.9-12.4,1.8-24.8,2.1-37.2c0.1-4.5-1.2-9.1-7.1-9.8c-1.7-0.2-1-1.3-0.9-2.2c30-33.7,85.7-31.8,114.9,3.9
		c9.4,11.5,15.3,24.4,17.9,39c0.6,3.5-0.1,5.7-3.4,7.7c-38.3,23.8-78.9,42.8-121.6,57.3c-2.8,1-4.5,0.4-6.5-1.7
		C128.9,128.1,122.1,113.6,119.1,97.1z"/>
	<path class="st2" d="M231.1,116.9c-1.5,6.8-4.3,13.3-2.2,20.6c1.6,5.4,4.7,9.1,10.1,10.5c2.5,0.7,3.6,1.5,2,4
		c-9.3,4.7-18.5,9.7-29,11.6c-21.6,3.9-41.2-0.7-60.4-13.4C179.5,140.7,205.5,129.3,231.1,116.9z"/>
	<path class="st3" d="M281.5,76c-2.2-12.1-6-23-12.1-33c-0.9-1.5-0.8-2.4,1-2.9c13.1-3,26.1-6.7,39.7-4.2c6.7,1.3,7.9,4.3,4.2,10.2
		C306.2,58.9,293.9,67.2,281.5,76z"/>
	<path class="st4" d="M270,109.1c-1.3,4.3-4.2,4.9-8.5,5.1c-6.1,0.4-10.8-1.1-14.4-5.9c8.2-4.7,16.5-9.4,25-14.3
		C272.6,99.6,271.4,104.4,270,109.1z"/>
	<path class="st5" d="M147.3,158.9c-8,0-16,0-24.1,0c0-0.2-0.1-0.3-0.1-0.5c5.5-1.5,11-3.1,16.5-4.6
		C143.6,152.9,144.7,157,147.3,158.9z"/>
	<path class="st0" d="M27.8,49.2c-2.7,11.3-1.8,22-3.4,32.5c-0.4,2.5-0.3,5.7-3.6,5.7c-3.5,0-3.6-3.3-3.6-6c0-11.3-0.6-22.6,2-33.7
		c0.5-2.1,1.1-4.2,1.9-6.2c1-2.7,2.3-5.2,5.8-5.4c3.6-0.2,5.6,2,7,4.7c1.3,2.4,1.9,5.2,2.9,8.1c2.4-3.5,3-7.7,5.5-10.8
		c1.7-2.1,3.6-3.7,6.2-3.5c2.9,0.3,4.6,2.4,5.5,5.1c0.7,2.2,1.1,4.5,1.2,6.8c0.4,12.2-0.8,24.2-1,36.4c0,1-0.1,2-0.5,2.9
		c-0.7,2.1-1.8,4.3-4.4,4c-2.8-0.3-4.1-2.7-3.8-5.1c1-8.5,0.3-17,0.9-25.4c0.3-4.3,0.5-8.6,0.3-13C43.3,52.1,42,58.6,40.3,65
		c-0.3,1.1-0.4,2.3-0.8,3.4c-0.7,2.2-2.1,3.9-4.7,3.6c-2.3-0.3-3.3-2.1-3.6-4.2C30.4,61.9,29.9,55.9,27.8,49.2z"/>
	<path class="st0" d="M86.6,87.9c-4,0-7.6-3.3-8-7.1c-0.2-1.6,0.3-3,1.5-4c1.4-1.1,2.4,0.2,3.5,0.9c3.8,2.4,8.5,0.7,10.5-3.6
		c2.7-6.1-0.1-12-6.9-15c-5.6-2.4-8.4-6.7-7.8-12c0.5-5.2,3.8-9.2,8.6-10.5c3.3-0.9,5.9,0.1,8,2.6c1.5,1.7,1.8,3.6,0.4,5.4
		c-1.3,1.7-2.7,1.3-4.2,0c-1.6-1.3-3.2-0.7-4.1,1.1c-1,1.9-1.3,3.9,0.7,5.4c1,0.8,2.4,1.1,3.6,1.7c7.5,3.2,11.8,10.8,10.8,18.9
		c-1.1,8.9-6.5,14.6-15.1,16.1C87.4,87.8,86.9,87.8,86.6,87.9z"/>
	<path class="st0" d="M129.2,69.9c0.1,10.5-4.1,17.2-11.3,18.8c-3.9,0.9-7.3-0.1-9.6-3.6c-1.7-2.7-0.4-5.2,2.7-5
		c3.3,0.2,6.8,1.7,8.7-2.4c2.3-5.1,2-10.1-1.3-14.7c-1.7-2.4-4.1-4.3-6.2-6.5c-5.9-6.2-5-14.6,2.1-19.3c4.3-2.9,10.2-1.1,12.2,3.5
		c0.7,1.7,1,3.3-0.5,4.6c-1.4,1.2-2.8,0.7-4.1-0.3c-1.4-1.1-2.7-2.9-4.4-0.5c-1.7,2.3-1.9,4.5,0.4,6.6c4.9,4.3,9.6,8.8,10.8,15.7
		C128.9,68.2,129.1,69.5,129.2,69.9z"/>
	<path class="st0" d="M71.4,55c-0.7,9.3-1.3,18.6-2,27.8c-0.2,2.9-1.1,5.6-4.7,5.2c-3.2-0.3-3.7-3.1-3.5-5.7
		c0.8-13.3,1.4-26.6,1.4-39.9c0-2.3,0.2-5.7,3.4-5.8c3.1-0.1,3.6,3,4.1,5.4C71.2,46.3,71.2,50.7,71.4,55z"/>
	<path class="st0" d="M143.6,54c-0.8,10.1-1.5,20.1-2.4,30.2c-0.2,2.7-1.1,5.2-4.4,4.9c-3.3-0.4-2.8-3.2-2.7-5.5
		c0.7-12.1,1.3-24.2,2.2-36.2c0.2-2.6-0.3-7.1,3.7-7c4.2,0.1,3,4.4,3.2,7.1c0.2,2.1,0,4.3,0,6.5C143.4,54,143.5,54,143.6,54z"/>
	<path class="st6" d="M45.2,99.4c0.3,0.1,0.8,0.1,0.9,0.4c2.8,4.1,5.8,8,10.6,10c1.1,0.5,0,2.2-0.8,2.9c-3.1,2.7-5.2,5.9-6.7,9.7
		c-0.6,1.6-2.4,4.4-3.9,0.7c-1.5-3.9-4.6-4.9-7.9-6c-4.6-1.5-5-2.9-1.3-5.8c3.1-2.5,5.1-5.6,6.6-9.2C43.1,101,43.5,99.5,45.2,99.4z"
		/>
	<path class="st6" d="M45.4,134.5c0.1,5-4.6,9.5-10.1,9.5c-4.7,0.1-8.6-3.8-8.5-8.5c0.1-4.8,5.1-9.5,10.3-9.7
		C41.6,125.7,45.3,129.6,45.4,134.5z"/>
	<path class="st7" d="M71.3,119.1c-0.3,2.4-1.6,3.8-3.6,3.7c-2-0.1-3.4-1.4-3.3-3.6c0-2,1.4-3,3.3-3.1
		C69.6,116.1,71,117.2,71.3,119.1z"/>
	<path class="st8" d="M283.9,128.8c0.7-3.7,1.2-6.9,1.9-10.1c0.4-1.6,1.1-3.5,3.2-3c1.7,0.4,2,2.1,1.9,3.7
		c-0.7,6.9-1.3,13.9-2.2,20.8c-0.2,1.6-0.8,3.4-2.8,3.7c-2.1,0.3-2.8-1.4-3.5-2.9c-1.6-3.4-3-6.9-4.7-10.8c-2.2,3.8-1.1,7.6-2.3,11
		c-0.6,1.7-0.7,3.9-3.2,3.8c-2.2-0.1-2.4-2.2-2.6-3.7c-1.1-7.7,0.5-15.2,1.7-22.7c0.5-3.1,3.3-2.9,5.1-0.3
		C279.1,121.5,281.3,125,283.9,128.8z"/>
	<path class="st0" d="M309.9,134.8c0.5-4.4,0.9-8.9,1.4-13.3c0.7-5.6,4.1-8.2,9.3-7.4c4.6,0.8,7.9,5.2,6.3,10
		c-1.2,3.7-1.1,6.8,0.2,10.3c0.5,1.3,0.6,3,0.4,4.4c-0.2,1.6-0.8,3.6-2.8,3.5c-1.7-0.1-2.1-1.9-2.5-3.3c-0.2-0.8-0.1-1.7-0.3-2.5
		c-0.4-1.8-0.8-3.8-3.3-3.6c-2.3,0.2-2.3,2-2.4,3.7c-0.1,1.2,0,2.4-0.3,3.5c-0.4,1.8-0.4,4.6-3,4.4c-2.4-0.2-2.6-2.7-2.8-4.7
		c-0.2-1.6,0-3.3,0-5C310.1,134.8,310,134.8,309.9,134.8z"/>
	<path class="st6" d="M362.9,64.3c-0.3,0.4-0.8,1.1-1.4,1.5c-5.4,3.6-8.9,8.4-10.4,14.7c-0.3,1.4-1,3-2.9,2.9
		c-2-0.1-2.1-1.8-2.3-3.3c-1-6.3-3.7-11.3-10-13.8c-2.4-0.9-2.1-2.4-0.2-3.6c6.1-3.9,10.6-8.9,12.9-15.9c0.8-2.4,2.4-1.9,3.4,0.1
		c0.5,1,0.8,2.2,1.1,3.3c1.4,4.6,3.4,8.7,7.8,11.1C361.9,61.9,363.1,62.4,362.9,64.3z"/>
	<path class="st0" d="M268.3,126.3c-0.2,6.8-2.2,11.6-6.2,15.5c-4.1,4-9.2,3.1-12-1.9c-3.2-5.8,0.3-18.7,6.1-22.1
		c2.3-1.3,4.9-1.3,7.1,0C266.9,120,268.5,123.3,268.3,126.3z"/>
	<path class="st8" d="M330.9,130.4c-0.1-3.9,0.6-7.4,2.6-10.7c2-3.2,4.4-5.2,8.5-4.6c3.9,0.6,6.5,2.8,7.5,6.4
		c1.6,5.6,1.2,11.2-2.4,16.1c-2.6,3.6-6,5.6-10.3,3.9C331.7,139.7,330.5,135.3,330.9,130.4z"/>
	<path class="st8" d="M240.2,131.7c0,3.9-0.4,7.7,5.6,7.7c2.9,0,2.6,2.4,1.1,4.3c-2.9,3.4-8.2,2.9-11.3-1.1
		c-5.1-6.6-3.3-21.5,3.1-26.6c3.7-2.9,8.5-2.6,10.5,0.7c1.3,2.1,1.3,5.3-1.6,4.7c-7.4-1.6-6,4.3-7.4,7.8
		C240,129.9,240.2,130.9,240.2,131.7z"/>
	<path class="st8" d="M296.1,136.2c0.3-3.2,0.8-6.9,1-10.5c0.1-2.8,0.9-5.6-2.9-7.5c-2.5-1.2-0.9-3.7,1.5-4c3.4-0.4,7-0.1,10.4,0.1
		c1.2,0.1,2.4,0.9,2.5,2.1c0.2,1.3-1,2.2-2.1,2.4c-3.1,0.5-3.2,2.6-3.3,5.1c-0.2,5-0.7,9.9-1.1,14.9c-0.2,2.5-0.3,5.8-3.6,5.5
		c-3-0.2-2.4-3.5-2.4-5.7C296.1,137.9,296.1,137.2,296.1,136.2z"/>
	<path class="st9" d="M360.1,127c0,1.2,0.1,2.3,0,3.5c-0.7,4.8,0.5,7.6,6.2,6.7c1.8-0.3,3.9,0.2,3.9,2.7c0,2.3-2,2.4-3.6,2.7
		c-8.4,1.8-12.7-1.5-12.5-9.9c0.1-4.5,0.6-8.9,1.2-13.3c0.2-1.7,0.5-4.1,3-3.8c2.1,0.2,1.9,2.4,2,4c0.1,2.5,0,5,0,7.5
		C360.2,127,360.2,127,360.1,127z"/>
	<path class="st10" d="M339.1,82.8c-0.3,0.4-0.7,1-1.2,1.4c-3.1,2.2-5,5.2-6,8.9c-0.2,0.8-0.6,1.7-1.6,1.7c-1.3,0.1-1.7-1.1-1.7-2
		c-0.1-4.9-2.6-7.4-7.2-8.8c-3-0.9-1.8-2.8,0-3.8c3.6-2,6.6-4.4,7.6-8.7c0.3-1.3,1.9-2.2,2.5-0.8c1.9,4.1,4.3,7.8,7.4,11.1
		C339,81.9,338.9,82.3,339.1,82.8z"/>
	<path class="st11" d="M366,47.2c-3.5-0.2-5.3-1.9-5.3-5c0.1-3.1,1.9-5.6,5.1-5.7c3.1-0.1,5.3,1.8,5.5,5.1
		C371.5,45.5,368.8,46.6,366,47.2z"/>
	<path class="st12" d="M312.8,92.9c-1.6-0.2-2.9-1-3.2-2.6c-0.3-1.6,0.9-2.3,2.4-2.4c1.6-0.1,3,0.5,3.1,2.4
		C315.2,91.8,314.2,92.6,312.8,92.9z"/>
	<path class="st1" d="M175.3,80.2c-2.3,4.3-4.4,8.7-10.3,9c-7.2,0.3-10.1-0.9-13-7.6c-5.9-13.8-5.3-27.6,2.4-40.5
		c4.7-7.9,12.6-9.6,20.8-5.8c4.2,1.9,5.5,5.8,6.4,10.3c3-10.4,10.3-10.3,18.1-0.1c1.4-0.4,1.4-1.7,1.8-2.7c1.2-3.3,3.4-5.6,7.2-4.5
		c3.4,1,5.8,3.4,5.6,7.3c-0.2,5.3-0.5,10.6-1.1,15.9c-1,8.5-1.3,17.2-4.3,25.4c-0.6,1.7-1.4,3.4-2.4,4.9c-3,4.4-8,4-10.1-0.9
		c-1.3-3-2.8-6-3.1-9.4c-0.1-1-0.3-2.2-1.6-2.1c-1.3,0.1-1.2,1.3-1.4,2.3c-0.4,2.4-0.9,4.9-1.5,7.3c-0.7,3.2-2.6,5.7-5.9,5.9
		c-3.6,0.2-4.9-2.8-6.1-5.7c-0.8-1.9-0.4-4-0.5-5.9c1.1-1.5-0.1-3.2,0.5-4.7c0.1-0.4,0.4-0.9,0.4-1.3c0-0.3,0.6-0.6,0.2-1.1
		c0,0.5-0.2,0.9-0.3,1.4C176.6,78.5,176.3,79.6,175.3,80.2z"/>
	<path class="st13" d="M236.2,56.5c1,2,1.7,2.8,1.8,3.7c0.8,5.1,3.4,8.5,8.4,10c2,0.6,3.2,1.5,1.4,3.9c-2.9,3.7-5,7.8-5.7,12.5
		c-0.2,1.2-0.9,2.3-2,2.6c-1.6,0.5-1.8-1.2-2.3-2.1c-2-4.4-5.6-6.7-9.9-8.4c-4.5-1.8-4.6-3.1-0.5-5.8
		C232.8,69.4,234.2,63.6,236.2,56.5z"/>
	<path class="st14" d="M158.1,105.6c0,4.4-4.6,8.5-9.5,8.3c-4.4-0.1-8.1-3.8-7.9-8c0.2-4.5,5.2-9.3,9.7-9.2
		C154.5,96.9,158.2,101,158.1,105.6z"/>
	<path class="st15" d="M219.6,100.1c-3,0.1-5.2-1-5.4-4.4c-0.2-3.3,3-6.9,5.9-6.6c3.4,0.3,5.6,2.1,5.9,5.6
		C226.2,97.7,223.1,100.1,219.6,100.1z"/>
	<path class="st13" d="M197.1,20.6c0-3.3,1.2-5.2,4.3-5.4c3.3-0.2,4.4,2.2,4.6,4.8c0.2,3.1-2.3,4.6-4.8,4.8
		C198.7,24.8,196.9,23.1,197.1,20.6z"/>
	<path class="st16" d="M170.8,106.9c-0.2,1.6-0.9,2.8-2.6,3c-1.7,0.2-2.9-0.8-3-2.4c-0.2-1.8,0.6-3.3,2.6-3.4
		C169.4,104.1,170.3,105.4,170.8,106.9z"/>
	<path class="st17" d="M230.1,49.5c-0.2,1.2-0.7,2.4-2.1,2.2c-1.3-0.2-2.5-1-2.2-2.7c0.2-1.2,1-2,2.4-1.9
		C229.8,47.3,230.1,48.2,230.1,49.5z"/>
	<path class="st18" d="M183.1,27.5c-0.1,1.2-0.6,2.3-2,2.2c-1.1-0.1-1.7-1-1.7-2c0-1.3,0.6-2.3,2-2.2
		C182.4,25.5,182.9,26.4,183.1,27.5z"/>
	<path class="st19" d="M177.2,78.1c-0.3,1.7,0.5,3.6-1,5.1c-0.1-1,0.2-2.2-0.9-3c0.3-1,0.6-2,0.9-3.1
		C177.1,76.8,177.5,77.1,177.2,78.1z"/>
	<path class="st13" d="M222.1,145.6c-3.8,2.7-4.8,7.4-7.6,10.9c-0.8,1-2.4-0.1-2.9-1c-2.2-3.4-5.4-5.3-9.1-6.5
		c-2.5-0.8-2.8-2.5-0.7-3.9c4.3-2.9,7.5-6.4,8.6-11.6c0.4-1.8,2.1-1.8,2.6-0.1c1.4,4.6,3.8,8.4,8.1,10.7
		C221.5,144.3,221.6,144.8,222.1,145.6z"/>
	<path class="st20" d="M40.5,113.4c1.7-2,3.3-3.9,5.1-6c1.4,1.3,2.9,2.6,4.3,3.9C47.9,116.4,44.8,117.5,40.5,113.4z"/>
	<path class="st21" d="M35.8,139.1c-2.9,0-4.4-1.6-4.5-4c-0.1-3.4,2.9-4.3,5.4-4.7c2.4-0.3,3.4,1.9,3.6,4
		C40.6,137.6,38.2,138.6,35.8,139.1z"/>
	<path class="st22" d="M317,126.5c0.9-2.7-0.3-5.3,2.1-6.7c0.7-0.4,1.9,0.5,2,1.6C321.5,124.1,320.6,125.9,317,126.5z"/>
	<path class="st23" d="M341,63.7c3.6-2.6,6.6-5.4,8.5-9.6c0.6,1.2,1.2,1.9,1.3,2.6c0.3,3.4,5.8,5,4,8.3c-1.5,2.7-4.2,5-5.8,8.1
		c-1.3-2-2.3-3.7-3.5-5.2C344.2,66.5,342.8,65.4,341,63.7z"/>
	<path class="st24" d="M262.1,129.5c-0.3,2.9-1.3,6.2-4.2,8.4c-0.6,0.4-1.3,0.2-1.7-0.4c-1.9-3-0.9-6,0-9c0.2-0.8,0.5-1.6,0.8-2.3
		c0.5-1.3,0.8-3.3,2.6-3.1c1.9,0.2,2.3,2.1,2.5,3.8C262.2,127.5,262.1,128.2,262.1,129.5z"/>
	<path class="st25" d="M345.1,127.8c-0.4,3.2-0.9,6.4-4,8.4c-1.2,0.8-2.3,0.4-3.1-0.4c-2.6-2.7-1.3-5.8-0.9-8.9c0-0.2,0-0.4,0.1-0.5
		c1.3-2,0.6-6.1,4.2-5.6C344.8,121.4,345,124.8,345.1,127.8z"/>
	<path class="st26" d="M330.4,78.4c0.8,2,4.9,3,1.8,6c-2.3,2.2-2.8-0.5-3.7-1.2C325.5,80.5,329.9,80.2,330.4,78.4z"/>
	<path class="st27" d="M367.8,41.8c-0.3,1.5-1.3,1.9-2.2,1.8c-1.2-0.1-1.6-1-1.5-2.1c0.1-0.9,0.7-1.4,1.7-1.2
		C366.8,40.4,367.4,41.1,367.8,41.8z"/>
	<path class="st0" d="M191,61.1c-1.2,7.7-2.4,15.4-3.8,23c-0.5,2.8-0.2,7-4.3,6.6c-4.3-0.4-3.1-4.7-2.7-7.4c1.7-13,3.7-26,5.8-38.9
		c0.6-3.9,3.8-4.7,7-2.2c2.7,2.1,3.2,5.3,4.1,8.4c1.4,4.9,1.5,10.1,3.9,16.1c1.1-7.7,2.1-14.2,3.1-20.8c0.3-2.2,0.6-4.8,3.5-4.6
		c2.8,0.2,2.9,2.8,2.9,5c-0.1,13.7-2.5,27.1-4.2,40.6c-0.3,2-1.4,3.8-3.4,3.6c-2.5-0.2-4.9-1.7-5.6-4.3c-1.5-5.4-2.7-11-3.9-16.5
		c-0.6-2.9-0.9-5.9-1.4-8.8C191.6,61.1,191.3,61.1,191,61.1z"/>
	<path class="st0" d="M177.2,53.2c-0.2,10.1-2.5,19.7-7.8,28.4c-3.9,6.4-9.6,6.5-13.7,0.3c-5.4-8.1-5.1-16.9-3.1-25.9
		c0.9-4.4,2.5-8.6,4.8-12.5c3.3-5.5,7.4-7.5,12.8-6.1c5.3,1.4,6.4,5.8,7,10.4C177.4,49.5,177.2,51.4,177.2,53.2z"/>
	<path class="st28" d="M177.2,78.1c-0.3-0.3-0.7-0.7-1-1c0.4-1,0.9-2,1.3-3C178,75.5,178.7,76.9,177.2,78.1z"/>
	<path class="st29" d="M239.4,82.8c-2.8-3.3-6.2-5.3-10-7.2c1.3-1,2.7-1.6,3.2-2.7c2.4-4.6,4.4-6.3,8.9-1.6c2.1,2.2,2.9,2.7,1.1,5.1
		C241.3,78.2,240.6,80.3,239.4,82.8z"/>
	<path class="st30" d="M153.5,105.8c-0.4,2.9-2.2,4.1-4.7,4.1c-2.5,0-3.8-1.5-3.8-4.1c0-3.2,2.4-4.3,4.9-4.4
		C152.4,101.4,153.1,103.8,153.5,105.8z"/>
	<path class="st31" d="M219.8,92.1c2.1,0.1,3,1.4,3,2.9c-0.1,2-2,2.6-3.6,2.7c-1.6,0.1-2.1-1.4-2-2.8
		C217.3,93.1,218.4,92.3,219.8,92.1z"/>
	<path class="st29" d="M217.7,145.2c-2.7,1.6-2.5,5.7-5,5.2c-2.6-0.6-4.6-3.2-6.9-4.9c2-1.9,3.7-5,5.9-5.3
		C213.3,139.8,215.5,143.2,217.7,145.2z"/>
	<path class="st32" d="M159.2,65.9c0.3-6.8,1.3-13.5,4.5-19.7c0.5-1.1,0.8-2.8,2.6-2.5c1.4,0.2,2.4,1.3,2.7,2.6
		c2.4,11,0,21.4-4.8,31.2c-1.2,2.4-2.3,1-3-0.6C159.6,73.6,158.9,69.8,159.2,65.9z"/>
	<path class="st33" d="M166.1,50c2.2,7.4-0.7,14.3-2.4,21.3C162.4,64,163.2,56.9,166.1,50z"/>
</g>
</svg>
