<?xml version="1.0" encoding="utf-8"?>
<!-- Generator: Adobe Illustrator 26.2.0, SVG Export Plug-In . SVG Version: 6.00 Build 0)  -->
<svg version="1.1" id="Layer_1" xmlns="http://www.w3.org/2000/svg" xmlns:xlink="http://www.w3.org/1999/xlink" x="0px" y="0px"
	 viewBox="0 0 393.7 185.6" style="enable-background:new 0 0 393.7 185.6;" xml:space="preserve">
<style type="text/css">
	.st0{fill:#9D8364;}
	.st1{fill:#CDF76B;}
	.st2{fill:#FEC373;}
	.st3{fill:#FEC371;}
	.st4{fill:#EBDBAB;}
	.st5{fill:#CDF66B;}
	.st6{fill:#EADAAA;}
	.st7{fill:#EADAAB;}
	.st8{fill:#E9D9A9;}
	.st9{fill:#E4D4A5;}
	.st10{fill:#9E8364;}
	.st11{fill:#9E8464;}
	.st12{fill:#FDF7DE;}
	.st13{fill:#FCF7DD;}
	.st14{fill:#FCF7DC;}
	.st15{fill:#A08864;}
	.st16{fill:#A08A64;}
	.st17{fill:#F5F7CB;}
	.st18{fill:#F8F7D3;}
	.st19{fill:#F9F7D4;}
	.st20{fill:#FEF6DE;}
	.st21{fill:#FEF5DD;}
	.st22{fill:#FEF4DA;}
	.st23{fill:#FEF4DB;}
	.st24{fill:#FEF1D5;}
	.st25{fill:#FDF6DF;}
	.st26{fill:#FDF5DD;}
	.st27{fill:#FCF4DC;}
	.st28{fill:#CFF76E;}
	.st29{fill:#CEF76D;}
	.st30{fill:#D4F77B;}
	.st31{fill:#F9C072;}
	.st32{fill:#FBC172;}
	.st33{fill:#F5BD71;}
	.st34{fill:#FEC474;}
	.st35{fill:#FECA81;}
	.st36{fill:#ECDCAD;}
	.st37{fill:#ECDDAF;}
</style>
<g>
	<path class="st0" d="M286.5,185.6c-12.3-0.8-25.2-4.2-38.3-6.5c-48.8-8.6-97-20.2-145.6-30c-2.6-0.5-5.2-0.9-7.9-1.4
		c-2.5-0.5-4.6-0.1-6.8,1.7c-3.9,3.2-9,4.1-13.8,5.6c-12.1,3.6-24.2,7.3-36.5,10.1c-9.4,2.2-13.8,0.1-16.3-8.9
		C13.6,127.4,5.8,98.6,0.2,69.4c-1-5,2.8-6.4,6.2-7.6c11-3.9,22-7.5,33.1-11.2c4.7-1.6,10.8-1.7,13.8-4.8c3.1-3.1,3.1-9.2,4.5-14
		c1.7-5.7,3.4-11.5,5.2-17.2c1.3-4.3,4.2-5.5,8.5-4.6c34,7,68.1,13.9,102.1,21c11.1,2.3,11,2.5,16-7.5c0.7-1.5,1.6-3,2.5-4.3
		c1.1-1.5,3.1-2.5,4.3-1.3c3.9,4.2,9,3.5,13.8,4.1c3.4,0.4,5.7,6.7,4.2,10.8c-2.5,6.5-2.5,6.4,4.4,7.9c8.8,1.9,17.5,3.9,26.2,6.1
		c3.3,0.8,4.6,0.8,3.4-3.2c-1.2-4-1.7-8.1-2.4-12.2c-0.7-4.7,1.4-7.7,6.1-8.7c8.8-1.9,17.5-3.9,26.3-5.5c3.7-0.7,5-1.6,3-5.4
		c-1.6-3.1-3.8-7,0.8-9.6c6.2-3.5,12-2.4,14.8,2.5c4.4,7.7,4.4,7.6,13,6c10-1.9,19.9-3.7,29.9-5.7c4.4-0.9,7.3,0.5,9.3,4.6
		c13.9,27.8,27.2,55.9,41.8,83.4c1,1.9,1.7,4,2.3,6c0.6,1.9,0.2,3.6-2,4.4c-24.1,8.7-47.9,17.9-72.3,25.8c-2.8,0.9-4.5,2.2-5.6,5
		c-5.5,14-8.5,28.7-13.5,42.8C297.5,184.1,295.1,185.7,286.5,185.6z"/>
	<path class="st1" d="M268.4,109.9c-6.7-9.2-12.1-11-19.3-7.3c-8.1,4.1-13,14.8-10.4,22.7c2.4,7.1,7.8,9.5,18.3,7.7
		c-2.8,7.4-5.1,14.6-9.9,20.6c-2.2,2.7-5.4,3.9-9,2.6c-2.4-0.8-3.6-2.5-3.2-4.9c0.6-3.2-0.1-7,4.9-8c3.1-0.6,2.7-3.1,0.5-4.8
		c-2.4-1.8-5.4-2.7-8.3-3.2c-2.7-0.4-4.1,1.7-2.5,3.7c2,2.6,0.9,4.6,0.2,6.9c-2.2,7.1-0.7,12.7,4.1,15.6c5.7,3.5,12.6,2.4,17.7-2.9
		c5.3-5.4,7.4-12.6,10.4-19.2c3.3-7.4,6.3-15,9.5-22.5c2.2,0.3,2.1,2.1,2.7,3.4c1.3,2.5,2.4,5.2,3.8,7.6c4.5,7.3,11.4,7.7,18.8,6.3
		c6.7-1.2,6.6-1.1,5.4,5.7c-2,11.2-5.8,21.8-9.2,32.6c-1,3.2-2.2,5.3-6.7,4.6c-35.4-5.1-70.2-13-105-20.5
		c-31.2-6.6-62.5-12.6-93.6-19.1c-12.2-2.5-24.5-4.2-36.4-8.3c-3.1-1.1-3.9-2.2-3.3-5.7c5-33.2,12.5-65.8,20.5-98.4
		c1.1-4.5,3.3-4.9,7-4.2c21.9,4.5,43.9,8.8,65.8,13.3c11.5,2.3,23.1,4.9,34.6,7.1c3.3,0.6,3.8,1.9,2.4,4.7c-0.8,1.8-1.6,3.7-1.9,5.7
		c-0.6,3.4,0,6.1,4.5,5.3c1.3-0.2,2.4-0.1,2.9,1.2c1.1,2.5,2.8,3.1,5.3,2.1c0.9-0.4,1.5-0.1,2.2,0.6c3.2,3.9,5.7,1.8,8.2-0.9
		c2.4-2.6,3.7-5.9,5.2-9.1c1.2-2.4,2.4-3.4,5.4-2.8c13.1,2.9,26.2,5.8,39.6,7.5c1.6,0.2,2.3,0.8,2.7,2.3
		c4.4,16.7,9.7,33.2,16.5,49.1C268.8,107.4,268.5,108.2,268.4,109.9z"/>
	<path class="st2" d="M352.9,38.6c2.8,3.9,4.3,8.5,6,12.9c0.5,1.7-0.6,2.3-1.9,2.7c-2.1-0.1-3-1.9-4.3-3.1c-2.2-2-4.9-3-7.2-0.9
		c-2.8,2.7-6.2,3.6-9.6,4.9c-5.1,2-5.3,2.4-3.9,7.7c0.4,1.4,0.8,2.9,1.6,4.2c0.4,0.6,0.8,1.2,1.5,1.1c1.1-0.1,1.1-1.1,1.1-1.9
		c-0.1-1.7-0.6-3.3-0.5-5c0.1-1.7,0.6-3.3,2.4-4.1c1.9-0.8,3.1,0.3,4.2,1.8c0.8,1,1.5,2.8,2.9,2.4c1.9-0.7,0.6-2.5,0.6-3.9
		c0-1.9-0.7-4.4,1.8-5.1c2.3-0.6,3.4,1.6,4.4,3.3c0.7,1.2,0.9,2.5,1.4,3.7c0.5,1.4,0.8,3.4,2.4,3.5c2.4,0.2,1.4-2.6,2.5-3.7
		c3.2-1.8,3.7,1.2,4.4,2.9c1.9,4.4,3.2,9.1,4.7,13.6c1.5,4.6,3.3,9,5.2,13.4c2.4,5.7,1,8.8-4.9,10.5c-6.7,1.9-13.4,3.8-20,5.9
		c-3.6,1.2-6.9,3.2-10.6,4.3c-3.2-5.2-1.3-10.3,1-15c1.7-3.6,1.9-4.9-2.6-4.8c-4.6,0.1-7.6-3.5-11.5-6.5c0.4,7.5-2.9,13.3-6.4,19.2
		c3.2,1.1,6.1,0,8.7,0.9c3.5,1.1,8.2,0.9,8.3,6.5c-4.9,2.8-10.4,3.3-15.7,4.4c-6.3,1.2-12.7,2.4-19.1,3.2c-6.3,0.8-7.7-0.2-10.2-5.9
		c-2.7-6.1-4.6-12.4-7.4-18.4c-0.8-2-1.6-4-2.1-6.1c-0.6-2.1-1.6-4.3,1.2-5.6c2.3-1.2,4.5-0.7,6.4,1c1.5,1.4,2.2,3.3,3.3,4.9
		c0.6,0.9,1.3,2.2,2.7,1.5c1-0.6,0.5-1.8,0.2-2.7c-0.3-1.1-0.8-2.2-1.5-3.1c-3-3.8-6.5-7.1-8.1-12.2c-1.1-3.6-5.5-2.9-8.8-3.3
		c-2.2-0.5-3.5-2.1-4.1-4c-2.6-8.1-6.5-15.7-8.5-23.9c-1.2-5-0.4-6.2,4.5-7.4c3.7-0.9,7.5-1.2,11.2-2.3c2.9-0.9,5.2,0.2,6.8,2.8
		c1.7,2.7,3.2,5.5,4.8,8.2c6,10,14.4,10.2,23.8,6.3c3.1-1.3,4.1-4.2,4.5-7.3c0.6-4.5-0.6-8.6-2.2-12.6c-1.4-3.5-0.2-5.6,3.3-6.2
		c3.9-0.7,7.6-2.2,11.7-2.3c1.8,0.8,3.4,3.2,5.6,0.6c6.1,1.7,7.7,7.7,11.1,11.9c1.1,1.4,1.7,3.2,3,4.5
		C351.7,36.7,352.2,37.7,352.9,38.6z"/>
	<path class="st3" d="M356.7,53.7c1.1-0.4,1.9-1.1,2.3-2.2c6.9,12.1,12.4,25,19.8,36.8c0.7,1.1,1.2,2.4,2,3.4c4.5,6.4,4.5,6.5-3.2,9
		c-23.4,7.6-46.3,16.5-70,23c-6.2,1.7-12.7,2.3-19,3.5c-2.4,0.5-2.7-1.3-3.5-2.7c-10.3-20-17.5-41.2-24.1-62.6
		c-2.7-8.8-4.8-17.9-7.4-26.7c-1.3-4.3-0.1-6,4.3-5.7c1.6-1.1,3.5,0.2,5.1-0.9c6.3-0.4,12.4-1.8,18.4-3.6c3.6-1,5.3,0.1,6.5,3.2
		c2,4.8,4.1,9.7,6.3,14.5c1.5,3.3,4,4.5,7.7,3.4c3.4-1.1,6.2-3.2,8.9-5.3c2.1-1.6,2.8-3.9,1.4-6.7c-1.7-3.4-2.7-7.1-5-10.2
		c-1.6-2.2-1.8-4,1.9-4.7c9.8-1.9,19.6-4.2,29.3-6.4c2.1-0.5,3.1,0.4,3.7,2.3c2.2,6.8,5.8,13,8.9,19.4c0.5,0.7,0.5,1.4,0,2.1
		c-3.4-1.6-4.1-5.5-6.3-8.1c-2.5-3-4.6-6.3-7.7-8.9c-1.6,0.8-3.2,0.4-4.9,0.1c-4.5,1-9,2-13.5,2.9c-2.5,0.5-2.2,1.8-1.5,3.6
		c1.7,4.2,3.1,8.4,2.8,13c-0.4,6.1-2.7,8.6-8.6,10.5c-11.6,3.8-19.5-1.9-23.6-10.4c-4.2-8.8-4.4-8.7-16.4-6.6
		c-8.5,1.4-8.8,1.5-6.3,9.8c2.1,7,4.7,13.8,7.3,20.6c0.6,1.5,1.5,3.5,3.7,3.6c-4.6,4.9-2.9,10.2-1.1,15.5c1.1,3.3,1.6,6.7,3,9.9
		c1.6,3.8,2.1,3.9,5,0.5c3.7,5.9,5.5,12.7,7.9,19.1c1.7,4.7,4.4,5.5,8.2,4.8c11.2-2,22.5-3.4,33.5-6.6c0.8-0.2,1.6-0.2,2.5-0.3
		c0.6-0.5,1.1-0.5,1.7,0c6.4-5.2,14.4-6.1,21.8-8.8c3.1-1.1,6.5-1.4,9.6-2.4c4.4-1.3,5.6-3.8,3.7-7.8c-4.1-8.7-6.5-18-9.9-27
		c-0.5-1.4,0.1-4.3-3.1-3.8C355.8,58.5,355.6,56.3,356.7,53.7z"/>
	<path class="st4" d="M51.4,55c-2.1,9.6-4,18.5-5.9,27.4c-3.1,14.6-5.1,29.4-7.3,44.2c-0.8,5.1,1.4,8.1,6.3,9.5
		c10.8,3.2,21.7,5.7,32.7,9c-14.4,4.1-28.7,8.3-43.1,12.4c-3.9,1.1-5.4-1.4-6.2-4.6c-3.7-14-7-28-11.1-41.8
		C12.9,98,12,84.5,8.9,71.5c-0.6-2.4-0.1-3.6,2.5-4.2C24.7,64.2,37.3,58.9,51.4,55z"/>
	<path class="st5" d="M261.8,115c0,5.3-5.2,11.5-9.9,12.4c-4,0.8-8.3-3.2-7.7-7.5c0.6-3.6,1.6-7.1,4.5-9.7c2.7-2.5,5.6-4.8,9.2-3.3
		C261.5,108.3,260.8,112.5,261.8,115z"/>
	<path class="st6" d="M195,24.8c4.1,4,9.1,0.8,13.5,1.9c0.4,0.1,1.1,0.5,1.1,0.8c0.4,3.2-2.2,5.4-3.2,8.1c-0.7,1.6-1.8,2.1-3.6,1.5
		c-1.9-0.6-3.8-1-5.8-1.4c-2.2-0.4-6-0.4-6.1-1.9c-0.1-2.7,1.8-5.5,3-8.2C194.2,25.3,194.7,25,195,24.8z"/>
	<path class="st7" d="M188.6,43.6c0.9,0.2,2.2,0.6,3.5,0.8c9,1.8,9,1.8,4.3,9.4c-1.3,2.1-6.6,2.2-9.2,0.1c-0.6-0.5-1.2-1.1-1.8-1.6
		c-0.9-1-4.2,0.1-2.7-2.8C184,47.1,183.9,43.2,188.6,43.6z"/>
	<path class="st8" d="M296.1,21.7c1.1-0.1,1.9,0.4,2.5,1.3c2.2,3.5,4.3,7,6.6,10.5c1.2,1.9-0.5,2.2-1.5,2.9c-1.2,0.8-2.7,2.1-3.7,0
		c-2-4-3.9-8.1-5.7-12.1C293.4,22.5,294.5,21.8,296.1,21.7z"/>
	<path class="st9" d="M286.6,7.5c0.2-1.8,1.5-2.1,2.5-1.9c3.3,0.9,3.2,4.2,4.2,6.6c0.7,1.7-1.3,2.1-2,1.9
		C287.5,13.5,288.6,9.3,286.6,7.5z"/>
	<path class="st3" d="M350.9,36.6c0-0.7,0-1.4,0-2.1c1.2,1.1,1.8,2.5,2,4.1C352,38.2,351.3,37.6,350.9,36.6z"/>
	<path class="st3" d="M262.9,28.7c-1.5,1.6-3.4,0.7-5.1,0.9C259.3,28.2,261.2,28.7,262.9,28.7z"/>
	<path class="st0" d="M93.2,117.6c-4.8-0.1-9-2-13.4-3.6c-1.2-0.5-1.9-1.3-1.8-2.7c0.2-1.4,1.3-2.2,2.4-2.2c3.3-0.1,3.9-2.4,4.6-4.9
		c4.6-15.1,8.3-30.4,14.2-45.1c1.2-3.1-1.1-3.3-2.7-4.2c-1.6-1-4.4-1.4-3.3-4.1c1-2.4,3.6-1.6,5.3-1.1c11.3,3.4,22.9,5.7,34.3,8.4
		c6.7,1.6,7.8,3.9,5.9,10.5c-1,3.5-2.5,6.9-4,10.2c-0.7,1.5-2,3-3.9,2.4c-2-0.6-2.7-2.3-2.2-4.4c0.3-1.5,0.5-3,0.9-4.4
		c2.4-6.8,2.4-6.7-4.3-8.3c-5.5-1.4-10.9-2.8-16.3-4.5c-2.5-0.8-3.9-0.7-4.6,2.2c-1.1,4.5-2.3,9-3.8,13.4c-1,2.8,0.2,3.6,2.5,4.1
		c3.7,0.8,7.5,1.4,11.2,2.5c2.3,0.6,4,1.2,5.5-1.3c0.8-1.3,2.3-1.9,3.9-1c1.5,0.8,1.5,2.2,1.3,3.5c-0.6,4.1-1.8,8.1-3.4,11.9
		c-0.6,1.6-1.9,2.9-3.9,2.3c-1.8-0.6-2.8-2.5-2.2-4c1.3-3.6-1.2-3.9-3.4-4.6c-2.7-0.8-5.4-1.6-8.1-2.3c-6.1-1.8-6.1-1.8-7.8,4.4
		c-1.5,5.3-2.9,10.6-4.7,15.7c-1,2.9-0.9,4.6,2.6,5.2c1.8,0.4,4.2,1.2,3.7,3.8C97.2,117.9,95,117.5,93.2,117.6z"/>
	<path class="st10" d="M226,125.6c-0.8,5.6-3.1,12.1-5.9,18.6c-1.2,2.7-3.2,5.2,0.3,8.3c1.8,1.6,0.1,4-2.4,3.9
		c-3.5-0.2-6.9-1.5-9.5-3.9c-1.2-1.1-2.1-3.2,0.4-3.9c3.1-0.9,3.8-3.5,4.9-5.9c2.2-4.9,4-9.8,5.3-15c0.9-3.6,1.6-7.1-2.6-8.9
		c-3.8-1.6-10.1,0.9-11.6,4.4c-2.3,5.5-4.4,11.1-6.7,16.6c-0.7,1.8-1,3,1.1,4c1.5,0.7,2.2,2.3,1.4,3.8c-0.8,1.6-2.3,1.4-3.9,1.1
		c-2.2-0.3-4.1-1.3-6-2.3c-4.8-2.5-4.8-3.2-0.4-6.1c1.1-0.7,1.3-1.8,1.8-2.9c3.5-8.6,7-17.2,10.7-25.8c0.9-2,0.4-2.9-1.2-4
		c-1.6-1.1-3.8-2.5-2.3-4.8c1.6-2.5,3.5-0.1,5.2,0.4c1.3,0.4,2.5,0.9,3.7,1.5c2.2,1.1,3.4,2.7,1.9,5.2c-2.1,3.7-0.6,3.6,2.7,2.9
		C220.9,111.3,226.2,116.1,226,125.6z"/>
	<path class="st10" d="M156.2,136.5c-3.3-0.7-6.8-1.8-10-3.5c-1.2-0.6-2.2-1.7-1.6-3.3c0.4-1.2,1.1-2.2,2.4-2.2
		c4.1,0.2,4.3-3.2,5-5.7c3-10.3,5.5-20.8,9.1-31c0.9-2.5,1.7-5,2.6-7.5c0.8-2.4,1.9-4.6-0.9-6.6c-1-0.7-1.2-2.1-0.5-3.2
		c0.8-1.3,2-0.9,3.1-0.4c2.6,1,5.4,1.8,7.9,3c2.5,1.3,2.5,3.7-0.3,4.1c-3.2,0.5-3,2.6-3.6,4.5c-4,13.9-7.8,27.7-11.8,41.6
		c-0.5,1.9-0.7,3.2,1.2,4.1c1.7,0.8,2.7,2.1,1.9,4C160,136.2,158.2,136.4,156.2,136.5z"/>
	<path class="st11" d="M133.3,127.8c-3.3-0.8-6.9-1.5-10.4-2.6c-1.6-0.5-3.2-1.5-2.7-3.6c0.4-1.8,2-2.3,3.5-2
		c3.6,0.7,4.6-1.5,5.3-4.3c1-3.5,2.1-7,3.4-10.4c1.1-3.2,2.6-6.3-2.1-7.9c-0.9-0.3-1.4-1.5-1-2.6c0.5-1.2,1.5-2,2.8-1.7
		c3.9,0.9,7.7,2,11.5,3.2c1.2,0.4,2.5,1.5,2.1,3c-0.4,1.6-1.8,2.8-3.4,2.3c-3.1-0.9-3.1,0.9-3.5,3c-0.7,3.7-1.9,7.4-2.7,11.1
		c-0.7,2.9-2.6,6.1,1.4,8.4c0.8,0.5,0.9,1.8,0.3,2.7C136.7,128.1,135,127.4,133.3,127.8z"/>
	<path class="st11" d="M177.8,144.4c-1.4-0.4-3.7-0.8-5.9-1.5c-1.7-0.6-3.7-1-3.8-3.4c0-2.1,1.5-2.7,3.3-3c0.4-0.1,1.1-0.4,1.2-0.7
		c2.1-6.5,4.3-12.9,6.2-19.4c0.5-1.6-1.5-1.9-2.3-2.9c-0.6-0.8-1.5-1.5-0.9-2.6c0.5-1,1.5-1.4,2.6-1.2c2.4,0.5,4.8,1.1,7.2,1.8
		c1.7,0.5,3.2,1.4,3.5,3.2c0.3,2-1.7,2.1-3,2.7c-0.6,0.3-1.4,0.6-1.6,1.1c-1.8,5.9-3.5,11.8-5.2,17.7c-0.4,1.4,0.5,2.1,1.6,2.8
		c1.2,0.8,2.7,1.8,1.7,3.6C181.6,144,180.3,144.5,177.8,144.4z"/>
	<path class="st12" d="M225.9,72.6c-0.5,3.3,0.5,6.3,2.8,9c1.7,2,2.1,3.9-0.8,5.1c-3.7,1.6-6.3,4.2-7.9,7.9c-0.4,0.9-0.9,2-2.1,1.7
		c-1.3-0.3-0.9-1.6-0.9-2.5c0.1-5.1-2.3-8.9-6.4-11.6c-3.8-2.5-1.5-3.6,0.9-4.4c4.6-1.5,8-4.6,11-8.2c0.8-0.9,1.1-2.9,2.8-2.1
		c1.5,0.7,0.5,2.4,0.6,3.6C225.9,71.4,225.9,71.9,225.9,72.6z"/>
	<path class="st13" d="M72.1,90.7c-5.4,0.1-8.1-2.5-8.2-7.6c-0.1-5,3.2-8.4,8.3-8.5c4.6-0.1,8.8,3.8,8.8,8.2
		C80.9,87.4,77.4,90.6,72.1,90.7z"/>
	<path class="st14" d="M244.6,82.7c-3.6-0.1-5.5-1.3-5.5-4.1c0-3.1,1.8-5.1,5-5c3,0.1,4.5,2.4,4.4,5.1
		C248.4,81.4,246.6,82.9,244.6,82.7z"/>
	<path class="st15" d="M182.9,97.5c0-2,0.5-3.9,2.9-3.7c2.4,0.2,4.4,1.5,4.3,4.5c-0.1,2.5-1.7,3.8-3.8,3.8
		C183.5,102.1,182.9,99.9,182.9,97.5z"/>
	<path class="st16" d="M146.8,84c-0.4,2.4-2,3.9-4.3,4c-1.9,0.1-3.5-1.1-3.5-3.3c0-2.6,1.3-4.6,4-4.6C145.3,80,146.4,81.8,146.8,84z
		"/>
	<path class="st17" d="M80.4,64.6c1.6,0.3,2.6,1.1,2.4,2.7c-0.1,1.1-0.8,1.9-1.9,1.9c-1.5,0-2.5-1-2.6-2.4
		C78.2,65.4,79.3,64.9,80.4,64.6z"/>
	<path class="st18" d="M168,60.5c-0.2,1.8-1.1,2.2-2.4,2c-0.9-0.1-1.5-0.7-1.4-1.7c0.1-1.3,1-2.1,2.3-2.1
		C167.7,58.8,167.9,59.8,168,60.5z"/>
	<path class="st19" d="M238.6,66.7c-0.3,1.1-0.9,1.8-2.1,1.8c-1.3,0-1.7-0.9-1.6-2c0.1-1.1,0.7-1.9,1.9-1.7
		C238,64.8,238.6,65.5,238.6,66.7z"/>
	<path class="st10" d="M311.2,73.1c-4.9,8.1-9.6,10.4-14.8,7.1c-4.3-2.7-5.4-8-2.6-12.1c3.9-5.7,9.6-6.1,16.4-1.2
		c3.8-8.1,8.8-10.9,14.2-8c4.5,2.4,6.3,8.6,3.7,12.9C324.3,77.9,318.2,78.4,311.2,73.1z"/>
	<path class="st10" d="M283,92.6c-0.3,1.8,0.6,4.5-2.3,4.8c-2.1,0.2-3.1-2.1-3.6-3.7c-2.1-6.6-4-13.4-5.7-20.1
		c-0.9-3.7,2.3-5.1,4.6-6.9c7.7-0.1,8.9,0.8,10.8,8.3c0.4,1.5,1.4,2.1,2.4,2.9c3.1,2.1,4.9,5.3,6.2,8.8c0.7,1.8,1,3.8-1.2,4.7
		c-1.9,0.8-3.1-0.7-4-2.1c-1.1-1.8-1.9-3.9-3.2-5.6c-1.5-1.9-3.7-2.1-5.8-1c-2.4,1.3-0.3,2.9-0.1,4.3
		C281.5,88.8,282.4,90.7,283,92.6z"/>
	<path class="st10" d="M356.7,53.7c0.5,2.1,0.9,4.2,2.2,6c-0.1,1.2-0.1,2.3-0.3,3.5c-0.2,0.9-0.7,1.9-1.8,2.2
		c-1.4,0.3-2.3-0.6-2.7-1.7c-1.2-2.7-2.1-5.6-3.3-8.3c-0.5-1.1-1.3-2.7-2.8-2.3c-1.7,0.5-0.8,2.2-0.9,3.5c0,0.3,0.1,0.7,0.1,1
		c0.4,2,2.2,4.5-0.4,5.8c-2.9,1.4-3.9-1.4-5.1-3.4c-0.7-1.1-1.1-2.7-2.9-2c-1.5,0.5-1.9,1.9-1.7,3.3c0.2,1.8,0.7,3.6,0.9,5.4
		c0.2,1.6,0.1,3.2-1.5,3.8c-1.7,0.7-2.8-0.4-3.5-1.9c-1.8-3.4-2.8-7.1-2.9-11c-0.1-1.4,0.1-2.5,2-2.8c4.6-1,9.2-1.7,12.8-5.6
		c2.6-2.8,6.2-1.7,8.9,0.9C354.7,51,355.6,52.4,356.7,53.7z"/>
	<path class="st20" d="M336.8,109.5c-0.6,0-1.1,0-1.7,0c-4.5-5.1-10.3-5.4-16.5-5c-1,0.1-2.5,0.7-3.1-0.7c-0.5-1.1,0.8-1.7,1.3-2.5
		c3.6-5.4,7.1-10.9,5.6-18c-0.2-0.9-0.2-1.7,0.7-2.1c1-0.4,1.5,0.4,2,1c1.7,1.8,3.4,3.6,5.6,5c1.9,1.2,3.9,1.8,6.1,1.8
		c1.6,0,3.7-1.2,4.7,0.3c1.3,1.8-0.7,3.4-1.6,4.8C336.7,98.8,337,104.2,336.8,109.5z"/>
	<path class="st21" d="M340,34.1c-0.1,4.6-4.2,8.7-8.5,8.5c-4.2-0.2-6.7-3.1-6.6-7.7c0.1-4.8,3.5-8.4,7.9-8.5
		C337.2,26.4,340.1,29.5,340,34.1z"/>
	<path class="st22" d="M310.2,100.9c-0.5-0.3-1-0.6-1.6-0.9c-6.9-3.9-6.8-3.9-3.1-10.7c0.9-1.7,1.4-1.6,2.9-0.5
		C313.2,92.2,313.5,96.2,310.2,100.9z"/>
	<path class="st23" d="M351.4,74.6c1.8,0,3.4,0.5,3.5,2.7c0.1,2-1,3.1-3,3.2c-2.1,0.1-3.6-1.1-3.8-3.1
		C348,75.2,349.5,74.5,351.4,74.6z"/>
	<path class="st24" d="M332.1,19.7c1.6-1.2,3.2-1.3,4.9-0.1c0,1.6-0.1,3.1-2.3,3C332.9,22.5,332.1,21.5,332.1,19.7z"/>
	<path class="st25" d="M40.1,98c-5.2-2.8-9.7-5.2-15.2-4.5c-1.8,0.2-2.4-1.5-1.3-2.7c4.8-4.6,4.5-10.7,5-17.1
		c3.4,4.2,7.3,7.1,12.4,8.2c1.1,0.2,1,1.6,0.4,2.5C39,88.6,37.8,92.9,40.1,98z"/>
	<path class="st26" d="M29.3,101.6c3.2,0.5,4.8,2.5,4.7,5.5c-0.1,3.1-2,5.2-4.9,5.2c-3,0-4.8-2.2-5-5.2
		C23.9,103.6,26.6,102.6,29.3,101.6z"/>
	<path class="st27" d="M43.9,70.4c-0.2,1-0.7,1.7-1.6,1.7c-1.1,0-1.2-0.9-1.1-1.8c0-0.9,0.5-1.6,1.5-1.5
		C43.6,68.8,43.9,69.6,43.9,70.4z"/>
	<path class="st28" d="M213.4,80.4c3.5-1.7,5.9-3.6,8.1-5.5c4.5,8.6,4.5,8.6-2.2,13.1C217.9,85.4,217,82.5,213.4,80.4z"/>
	<path class="st29" d="M71.8,77.6c2.9,0.4,5.4,2.2,5.5,5.5c0.1,2.8-1.8,5.3-4.9,5.2c-3.5-0.1-5.9-2.5-6.1-6
		C66.2,79.1,68.4,77.7,71.8,77.6z"/>
	<path class="st30" d="M243.2,80.4c-1.2-0.2-2-1-2-2.2c0-1.2,0.5-2.4,2-2.2c1.3,0.2,1.8,1.2,1.8,2.5C245,79.7,244.5,80.4,243.2,80.4
		z"/>
	<path class="st31" d="M304.9,72.3c-0.7,2-1.9,3.5-4.3,3.3c-1.8-0.2-2.7-1.4-2.5-3.1c0.2-2.1,1.3-4,3.8-3.6
		C303.5,69.1,304.8,70.2,304.9,72.3z"/>
	<path class="st32" d="M316.9,66.7c0.2-1-0.4-3.1,1.9-2.9c2.1,0.2,4.3,1.1,4.2,3.9c-0.1,2.3-1.7,3.3-3.6,3.2
		C317,70.9,316.7,69,316.9,66.7z"/>
	<path class="st33" d="M280.9,74.4c-0.4,1.5-1.5,2.5-2.8,2.4c-1.8-0.1-2-1.9-1.9-3.3c0.1-1.3,1.3-1.9,2.6-1.7
		C280.2,71.9,281,72.9,280.9,74.4z"/>
	<path class="st34" d="M325.3,88.1c0.7,0.1,0.9,0.1,1,0.2c3.3,1.5,8.1,2.3,9.3,4.9c1.2,2.5-1.8,6.7-1.9,10.8
		c-3.6-1.8-7-3.3-10.8-3.4c-2.1-0.1-2.1-1.2-1.2-2.6C323.5,95,324.5,91.7,325.3,88.1z"/>
	<path class="st34" d="M332.3,30.1c2.5,0.7,4.7,1.7,4.6,4.9c-0.1,2.9-1.7,4.6-4.7,4.7c-2.8,0-4.3-1.6-4.3-4.3
		C327.9,32.4,329.6,30.8,332.3,30.1z"/>
	<path class="st35" d="M310.2,95c-0.5,0.9-0.2,2.7-2,2c-1.1-0.4-3-0.5-2.5-2.3c0.3-1,0.8-2.8,2.4-2.4C309,92.7,310.7,93.2,310.2,95z
		"/>
	<path class="st36" d="M30.6,79.9c1.7,1,2.9,2.2,4.2,2.3c3.5,0.4,3.1,2.1,2.4,4.8c-1.4,4.8-4.7,6.3-8.8,3.5c-1-0.7-0.5-1.3-0.2-2.1
		C28.9,85.7,29.7,83.1,30.6,79.9z"/>
	<path class="st37" d="M28.7,104.6c1.8,0,2.9,0.6,3.2,2.4c0.3,1.9-0.8,2.9-2.4,3.1c-2.2,0.4-2.7-1.6-3.1-3.1
		C26,105.4,27.4,104.8,28.7,104.6z"/>
</g>
</svg>
