<?xml version="1.0" encoding="utf-8"?>
<!-- Generator: Adobe Illustrator 26.2.0, SVG Export Plug-In . SVG Version: 6.00 Build 0)  -->
<svg version="1.1" id="Layer_1" xmlns="http://www.w3.org/2000/svg" xmlns:xlink="http://www.w3.org/1999/xlink" x="0px" y="0px"
	 viewBox="0 0 389.6 195.9" style="enable-background:new 0 0 389.6 195.9;" xml:space="preserve">
<style type="text/css">
	.st0{fill:#409678;}
	.st1{fill:#FEB942;}
	.st2{fill:#B5F2FE;}
	.st3{fill:#6DABB8;}
	.st4{fill:#6CCBE0;}
	.st5{fill:#6BCBDF;}
	.st6{fill:#6CABB8;}
	.st7{fill:#B1EFF9;}
	.st8{fill:#6EB19C;}
	.st9{fill:#73BDB1;}
	.st10{fill:#419677;}
	.st11{fill:#429777;}
	.st12{fill:#419777;}
	.st13{fill:#FEE5BA;}
	.st14{fill:#449776;}
	.st15{fill:#439777;}
	.st16{fill:#449777;}
	.st17{fill:#469776;}
	.st18{fill:#FEE5B8;}
	.st19{fill:#FEE5B9;}
	.st20{fill:#489876;}
	.st21{fill:#FEE4B6;}
	.st22{fill:#479876;}
	.st23{fill:#FEE4B7;}
	.st24{fill:#FEE6BA;}
	.st25{fill:#FEDDA5;}
	.st26{fill:#FEDA9B;}
	.st27{fill:#FE894D;}
	.st28{fill:#C0AD56;}
	.st29{fill:#DFB34C;}
	.st30{fill:#FEBA45;}
	.st31{fill:#F1B746;}
	.st32{fill:#FEBC4B;}
	.st33{fill:#FEBB47;}
	.st34{fill:#FEBF51;}
</style>
<g>
	<path class="st0" d="M287.6,175.8c-28.2,0-56.3,0-84.5,0c-3.3,0-6.7,0.1-10-0.2c-4.4-0.5-8.9-1.7-10.3,4.7c-0.2,1-1.8,2.1-3,2.5
		c-2.5,0.8-3,2.4-3.4,4.7c-1.2,7.9-6.2,10.3-13.3,6.7c-6.6-3.4-10.4-9.3-13.2-15.8c-1.1-2.6-2.2-3.3-5.1-3c-5.1,0.4-10.3,0-15.5-0.1
		c-38-0.5-76-0.9-113.9-1.4c-15.7-0.2-15.7-0.4-15.6-16c0.2-27.1,0.1-54.3,1.1-81.4c0.2-5.6,0.7-11.3,1.1-16.9
		c0.2-3.9,3.2-5.2,6.2-6.4C19,49,29.7,50.2,40.3,52.6c8.7,2,17.3,5,26.3,5.7c16.8,1.3,32.4-0.9,47.5-9.6c8.5-5,13-10.6,15.5-19.8
		c2.8-9.9,9.2-18,17.5-24.4c3.9-3,8.4-4.8,13.4-4.4c3,0.2,6.3,1.2,7.2,3.7c2.3,6.4,6.1,4.5,10.7,3.2c7-2,13.3-0.7,17.3,6.1
		c1,1.7,2,1.6,3.6,1.4c14.3-1.7,26,8.8,25.5,23.1c-0.1,3.4,0.9,5,3.8,6.5c3.7,1.8,7.3,4,10.7,6.3c6.6,4.5,13.9,4.9,21.5,3.6
		c3-0.5,3.1-2.5,3-4.8c-0.3-8.7,1.8-16.9,6.6-24.2c3.9-5.8,9.2-9.7,16.3-10.3c8-0.6,13.4,4.1,14.2,12.1c0.8,7-1.3,13.5-3.8,19.9
		c-1.1,2.9-2,5.3,2.1,6.5c1.3,0.4,2.9,1.7,3.3,2.9c1.5,5.1,5.6,5.2,9.7,5.8c15.7,2.3,31.3,4.6,47.2,2.2c7.2-1.1,13.8-3.6,19.8-7.8
		c2.1-1.5,4.5-3.3,7.3-1.8c3,1.5,2.3,4.5,2.4,7.1c1.3,33.6-0.4,67.3-0.7,100.9c0,1.7-0.1,3.3,0.1,5c0.9,6.6-0.2,8-6.9,8.1
		c-8.3,0.1-16.7,0.1-25,0.1c-23,0-46,0-69,0C287.6,175.7,287.6,175.8,287.6,175.8z"/>
	<path class="st1" d="M181.4,160.9c5.9-12.3-0.2-24.7-12.2-26c-2.2-0.2-5.1-0.9-6,2c-0.9,3.1,1.6,4.4,4.1,5.2c3.2,1,6.2,2.4,8.1,5.5
		c1.9,3.2,3.3,6.2-1.1,8.8c-2.5,1.4-2.6,3.6-0.6,5.9c2.5,2.7,5,5.5,5.3,9.4c0.3,3.3,0.1,6.5-4.9,5.9c-3.4-0.4-4.4,1.6-3.7,4.7
		c0.6,2.4,1.9,5.5-0.7,6.8c-2.6,1.3-5-1.3-6.7-3.2c-8.1-8.9-10.8-20-12-31.6c-0.3-3.3-0.5-6.6-0.8-9.9c-0.1-1.3-0.1-3-1.8-3.1
		c-2-0.2-2.2,1.6-2.6,3c-1.1,3.6-0.8,7.3-0.7,10.9c0.1,2.5-0.3,3.7-3.3,2.9c-20.3-5.5-37.6-15.2-48.6-33.9
		c-3.7-6.2-7.2-7.4-13.5-3.9c-3.3,1.9-6,2.5-9.1-0.2c-3.3-3.1-3.5-5.5-0.4-8.9c2.4-2.7,6.4-5.3,6.8-8.3c0.4-3.2-4.7-4.8-7.1-7.4
		c-2.3-2.5-5.6-4.9-2.7-8.9c2.3-3.4,7.3-4.3,11.2-2.3c9.9,5,9.9,5,15.8-5c6.2-10.6,15-18.7,25.7-24.5c7-3.8,11.5-8.8,13.5-16.7
		c2.4-9.7,8.1-17.8,14.8-25.1c1.9-2.1,4-4,6.4-5.5c4.7-2.8,8.4-1,9.6,4.3c1.8,7.8,2.7,8.1,9.9,4c2.6-1.5,5.3-2.6,8.5-2.6
		c3.9,0,6.9,1,7.8,5.3c0.8,3.8,3.2,4.5,6.7,3.6c11.9-2.9,20.4,4,19.9,16.3c-0.3,6.4,3.3,10.4,8.2,13.3c11.4,6.7,20.9,15.3,28.4,26.2
		c1.1,1.6,2.6,3.1,4.2,4.2c5,3.6,9.7,2.2,12-3.6c2.4-6.2,2.5-12.7,1.7-19.2c-1-8.5-0.8-17,2.7-25c2.2-5.2,5.5-9.5,11.1-11.5
		c4.2-1.5,7.2,0.2,8.2,4.5c1,4.1-0.5,7.9-1.6,11.7c-0.7,2.6-1.8,5-2.6,7.5c-2.4,7.5-1.8,8.9,5,12.7c3.7,2.1,4.1,6.4,1,10.2
		c-4.8,5.8-4.8,5.9,1.3,10.7c3.2,2.6,2.8,5.4,0.7,8.3c-2.1,2.9-2.3,5.2,0.7,7.7c2.2,1.9,2.8,4.4,0.4,7c-2.8,3.1-1.3,5.3,1.5,7.4
		c5.9,4.4,6.4,7,1.2,12.4c-3.6,3.7-3.4,6.6-0.5,10.4c4.8,6.2,6.6,13,3.6,20.6c-2.5,6.5-8.7,8.2-14,3.8c-4.4-3.6-6.3-8.4-7.1-13.9
		c-1-6.7-2.2-13.5-4.1-20c-0.8-2.7-1.9-5.3-3.5-7.7c-5.8-8.4-14.4-8.4-20.4-0.1c-3.7,5.1-5.7,11.2-10.2,15.9
		c-15.3,16.3-34.5,24.4-56.1,28.1C186.6,160.3,184.3,160.6,181.4,160.9z"/>
	<path class="st2" d="M141.2,166.5c-25.7,0-50.2,0-74.6,0c-17.8,0-35.6-0.4-53.5-0.2c-4,0-4.9-1.5-4.9-4.8c0.1-8,0-16,0.4-24
		c0.2-4.6,2.7-4.7,5.9-4.4c9,0.9,17.7,3.1,26.3,5.6c17.4,4.9,34.4,11.3,52.1,15.6c5.8,1.4,11.7,2.7,17.7,0.8c1-0.3,2-0.3,2.9,0.3
		C121.9,160.3,130.9,163.6,141.2,166.5z"/>
	<path class="st3" d="M380,143.3c0,3.8-0.1,7.7,0,11.5c0.1,2.6-0.8,3.1-3.3,2.3c-17.7-5.8-36-7.5-54.5-7.1c-3,0.1-6.7,1.8-8.6,0.5
		c-2-1.3-0.1-5.5-0.8-8.3c-0.9-3.4-1.4-6.8-3.2-9.9c-3.2-5.4,0.4-12.5,6.7-13.4c21.1-3,41.2,1.4,61,8.3c2,0.7,2.8,1.9,2.8,4.1
		C379.9,135.3,380,139.3,380,143.3C380,143.3,380,143.3,380,143.3z"/>
	<path class="st3" d="M63.4,106.4c-4.8,9.3-4.3,12.4,2.5,19.1c4.6,4.5,9.9,4.7,15.1,2.4c3-1.3,4-0.7,5.6,1.9
		c4,6.5,8.4,12.7,15.5,17.6c-4,1.3-7.1-0.3-10-0.9c-11.5-2.5-22.4-7.1-33.6-10.7c-13.9-4.4-27.7-9.4-42.5-9.7c-6.9-0.2-6.5,0-7-7.1
		c-0.5-5.8,1.7-8.1,7.1-9.6c9.5-2.7,19.1-4.8,28.8-5C50.8,104.3,57.2,104.2,63.4,106.4z"/>
	<path class="st4" d="M380.9,104.5c0,4-0.1,8,0,12c0.1,2.6-0.3,3.5-3.3,2.4c-19.5-6.9-39.5-9.9-60.3-7c-5.3,0.8-10.6-4.7-10.3-10.1
		c0.2-2.8,0.3-5.7-1.3-8.2c-0.5-0.8-1.1-1.8-0.3-2.7c1.1-1.1,2.2,0,3.2,0.3c23.3,6.5,46.3,5,69.3-1.7c2.5-0.7,3.3-0.6,3.2,2.1
		c-0.2,4.3,0,8.7,0,13C381,104.5,381,104.5,380.9,104.5z"/>
	<path class="st2" d="M382.5,63.7c-0.2,4.7-0.5,8.7-0.5,12.6c0,2.4-1.7,3-3.3,3.8c-9.5,5-20,6-30.4,6.8c-12.8,1-25.6,0.4-38.1-2.7
		c-2.5-0.6-3.8-1.3-4.2-3.9c-0.2-1.4-0.9-3.1-2-3.9c-3.8-3-0.4-5.5,0.5-7.8c1.2-2.8,3.6-0.6,5.2-0.2c17.2,4.3,34.6,6.4,52.3,3.6
		C369.2,70.9,375.9,68,382.5,63.7z"/>
	<path class="st2" d="M93,65.4c-2.7,4.3-5.3,8.5-7.9,12.7c-1.1,1.8-2.2,0.6-3.3-0.1c-5.1-3.1-10.2-2.7-15.2-0.1
		c-2.2,1.2-4.3,1.2-6.7,0.6c-8.7-2.2-17-5.8-26-6.8c-7.4-0.8-14.6-1.2-21.8,0.5c-2.3,0.6-3.2,0.3-2.7-2.2c0.2-0.8,0.5-1.6,0.4-2.4
		c-0.2-2.8-2.1-6.2-0.3-8.1c2.2-2.4,6.3-1.8,9.5-2.1c8.2-0.7,16.2,1.2,24,3.6c15.8,4.9,31.9,6.7,48.3,4.1
		C91.7,65.1,92.2,65.3,93,65.4z"/>
	<path class="st4" d="M62.3,98c-15.7-2-30.1-1.1-44.2,3.9c-9,3.2-9,3.2-9-6.7c0-3.3,0.3-6.7-0.1-10c-0.6-5.1,2-6.9,6.4-7.2
		c9.4-0.6,18.6,0.3,27.6,2.9c4.6,1.3,9.2,2.9,13.8,4.1c1.7,0.4,2.2,1.2,2,2.7C58.7,91.3,59.3,94.6,62.3,98z"/>
	<path class="st2" d="M197.3,167.1c12.2-2.3,23.5-6.9,34.2-13.1c1.4-0.8,2.7-2,4.5-2.1c12.9-0.1,24.7-4.4,36.3-9.6
		c0.7-0.3,1.5-0.5,2.3-0.8c4.1,11.2,4.1,11.2-7,13.3c-11.5,2.1-22.2,6.6-33.5,9.4c-9.5,2.3-19.1,4.4-29,3.9
		C202.5,168.1,199.6,169.8,197.3,167.1z"/>
	<path class="st5" d="M301.1,166.6c3.5-2,6.6-4.1,8.4-7.7c0.7-1.3,1.5-2,3.1-2c21.3-0.2,42.4,1,62.8,8.1c0.2,0.1,0.4,0.4,0.8,0.9
		C351,167.6,326.1,166.6,301.1,166.6z"/>
	<path class="st6" d="M245.7,143.9c7.4-7.3,12.9-14.5,16.8-22.9c0.8-1.6,2.1-2.7,3.8-2.8c2.2-0.1,3.3,1.5,3.9,3.2c1,3,1.9,6,2.7,9
		c0.6,2.1-0.4,3.4-2.4,4.3C262.8,137.9,255.3,141.8,245.7,143.9z"/>
	<path class="st5" d="M252.1,166.1c7.1-1.7,14.2-3.3,21.3-5.2c5.2-1.4,9.7-1.5,13.4,3.2c0.8,1,2.2,1.4,3.2,3c-5.7,0-11.4,0-17,0
		c-6.4,0.8-12.9,0.2-19.4,0.3C252.8,167.4,252,167.2,252.1,166.1z"/>
	<path class="st7" d="M252.4,61.2c2.2,0,3.9-0.2,5.4,0.1c2.1,0.4,5-2.1,6.2,0.5c1.4,3.1,1.5,7,0.1,10.2c-1.1,2.4-3,2.1-4.5-0.2
		C257.4,68.5,255.1,65.2,252.4,61.2z"/>
	<path class="st8" d="M252.1,166.1c4.9,2,10,0.4,15,0.9c2,0.2,3.9,0.1,5.9,0.2c-7.9,1.9-15.9,0.2-24.4,1
		C249.7,166.3,250.8,166,252.1,166.1z"/>
	<path class="st9" d="M197.3,167.1c2.4,1.7,5.3,0.2,7.8,1c-4.3,1.7-8.7,0.4-13.1,0.6C193.6,167.6,195.2,166.7,197.3,167.1z"/>
	<path class="st10" d="M149.1,47.6c0.1-7.5,2.9-12.1,7.6-14c4.8-1.9,8.4-0.8,12.8,4.6c1.4,1.7,2.1,1.5,3.5,0.3
		c2.7-2.3,5.9-2.8,9.4-2.6c7.9,0.5,12.3,6.4,10.2,14.1c-2.5,9.3-10,13.8-17.8,17.6c-9.7,4.7-12.5,3.8-18.7-4.9
		C152.4,57.7,149.2,52.5,149.1,47.6z"/>
	<path class="st11" d="M168.9,94.1c0.2-2.8,0.7-5.6,0.6-8.4c-0.1-3.7,1-6.3,5-6.6c4-0.3,7.9,1.9,7.7,5.5c-0.5,6,3.3,10.3,4.3,15.5
		c0.4,2.4,1,5.1-2,5.7c-2.9,0.6-3.1-2.4-3.7-4.4c-0.3-0.9-0.4-2-0.8-2.9c-0.6-1.4-2-1.7-3.4-1.6c-1.7,0.2-1.4,1.5-1.5,2.7
		c-0.3,2.6,0.7,6.9-3.1,6.6c-3.2-0.2-2.6-4.4-2.8-7.1c-0.1-1.7,0-3.3,0-5C169.1,94.2,169,94.1,168.9,94.1z"/>
	<path class="st11" d="M141.1,98c0,2.7,0.1,5.3,0,8c-0.1,1.4-0.7,2.7-2.2,2.9c-1.6,0.2-2.3-1.1-2.7-2.4c-0.3-1.1-0.7-2.2-0.8-3.4
		c-0.1-2.2-1.5-2.2-3.1-2.2c-1.7,0-2.2,0.9-2.4,2.5c-0.3,2.3,0.3,6.2-2.7,6.1c-3.6-0.1-3-4.1-3.2-6.8c-0.3-5-1.3-9.9-0.1-14.9
		c0.3-1.5,0.6-3.2,2.5-3.2c2,0,2.8,1.5,2.9,3.4c0,0.2,0,0.4,0.1,0.5c1.1,2-1.1,6.2,3.4,5.8c4.3-0.3,1.4-3.9,2.1-5.9
		c0.5-1.5,0.1-3.6,2.3-3.8c2-0.2,2.7,1.6,3.3,3.2C141.5,91,141.1,94.5,141.1,98z"/>
	<path class="st12" d="M162.8,100.7c0,1.3,0.2,2.7,0,4c-0.3,2-0.9,4.2-3.4,4.3c-2.6,0.1-3.3-2-3.3-4.1c0-2.3-1-2.8-3.1-2.7
		c-2.3,0-2.7,1.4-2.8,3.2c-0.1,1.8,0,4.3-2.6,4c-2.4-0.3-1.8-2.8-1.8-4.5c0-5.5,0.8-11,3-16.1c1.3-3.1,3.4-6,7.4-5.6
		c4.2,0.4,5,4,5.6,7.2c0.7,3.4,0.9,6.9,1.3,10.4C163,100.6,162.9,100.6,162.8,100.7z"/>
	<path class="st11" d="M113.2,104.9c2.7-0.5,5.1-0.7,5.7,2c0.6,3-1.9,3.9-4.3,4.4c-4.8,0.8-8.9-0.5-11.9-4.4
		c-5.6-7.4-1.2-20.9,7.6-23.7c1.8-0.6,3.6-0.6,5.4,0c1.5,0.5,2.7,1.6,2.6,3.2c-0.1,1.9-1.8,1.5-3,1.6c-6,0.6-10.7,7.2-9.2,12.9
		C107.2,104.7,110.2,105.3,113.2,104.9z"/>
	<path class="st11" d="M230,100c1.4-3.8,0.5-6.4-2.7-9c-2.7-2.2-3.6-5.9-2.7-9.6c0.3-1.1,0.7-2.4,2.1-2.4c1.4-0.1,2.1,0.9,2.4,2.1
		c0.1,0.5,0.2,1,0.4,1.4c0.8,2.3,1,5.5,4.2,5.4c3.4-0.1,3-3.3,3.5-5.7c0.3-1.5,0.8-3.1,2.7-3c1.6,0.1,2,1.5,2.4,2.8
		c1.1,3.5,0.7,7-2.1,9.1c-2.8,2.2-3.3,4.7-2.9,7.8c0.1,0.5,0,1,0,1.5c-0.3,2.7-0.1,6.6-3.8,6.4C229.5,106.6,230.8,102.6,230,100z"/>
	<path class="st11" d="M212.6,78.9c0.8-0.1,1.7-0.2,2.5-0.2c2.1-0.1,4.9-0.6,5.4,2.1c0.5,2.8-2.3,3.4-4.4,3.7c-3,0.4-3.2,2.1-3,4.5
		c0.4,3.8,0.6,7.6,0.8,11.4c0.1,2-0.1,4.4-2.7,4.6c-3,0.2-3.1-2.4-3.3-4.6c-0.2-3.3-0.7-6.6-0.6-9.9c0.1-3.6-0.7-6-4.8-6.3
		c-1.1-0.1-2.3-0.7-2.3-2.2c0-1.4,1.2-1.9,2.4-2.1c3.3-0.5,6.6-0.8,9.9-1.2C212.6,78.8,212.6,78.8,212.6,78.9z"/>
	<path class="st13" d="M209.7,73.2c-2.8-6.1-5.7-10.1-11.1-11.7c-1.7-0.5-0.7-2,0.2-2.7c4.5-3.3,8-7.4,9.5-13.5
		c1.2,5.9,4.1,10,9.4,12.1c1.3,0.5,1.6,1.9,0.5,2.8C214.4,63.4,211.7,67.2,209.7,73.2z"/>
	<path class="st14" d="M197.9,98.8c-0.4,2.1,0.8,6.4-3.1,6.5c-3.4,0.1-3.1-4.1-3.5-6.7c-0.5-4.1-0.8-8.2-1-12.3
		c-0.1-2.4-0.8-5.7,2.5-6.1c3.8-0.5,3.7,3.2,4.1,5.6C197.4,89.9,197.5,94,197.9,98.8z"/>
	<path class="st15" d="M141.6,129.5c-4.2,0-6.7-2.7-6.7-7c0.1-4.2,3.2-8,6.7-8c3.6-0.1,7.5,4.1,7.5,8
		C149.1,126.5,145.9,129.5,141.6,129.5z"/>
	<path class="st16" d="M215.7,116.8c1.4,0.8,4.3-0.6,4.6,1.6c0.4,2.8-3.3,2-4.6,3.5c0.2,0.4,0.3,0.8,0.5,0.9
		c1.9,0.7,4.6-0.9,5.6,1.9c0.4,1-0.6,2-1.7,2.1c-2.7,0.3-5.9,1.6-7.8-1.1c-2.2-3.2-3-7-2.2-10.9c0.5-2.6,7.5-4.5,8.9-2.3
		C221.1,116,216.3,114.6,215.7,116.8z"/>
	<path class="st17" d="M176.2,117.7c1.6,0.3,2.6,0.3,3.5,0.6c1,0.3,2,0.9,1.7,2c-0.2,0.6-1.1,1.4-1.7,1.5c-3.3,0.4-5.9,1.3-6.7,5.1
		c-0.2,1.1-1.8,1-2.4,0c-2.2-3.7-1.7-7.7-0.7-11.5c0.8-3.2,3.9-2.6,6.3-2.6c1.4,0,3.4-0.3,3.8,1.5
		C180.4,116.7,178,116.6,176.2,117.7z"/>
	<path class="st16" d="M159.5,118.7c1.1,0.2,2.1,0.3,3,0.6c1.1,0.3,2.4,0.7,2.5,2.1c0.1,1.7-1.4,2.4-2.6,2.4
		c-2.6,0.1-4.1,0.7-4.8,3.6c-0.6,2.2-2.7,1.9-3.4-0.2c-1.3-3.5-1.3-7.2-0.5-10.8c0.6-2.4,8.1-3.5,9.7-1.7
		C164.4,116,163.7,116.7,159.5,118.7z"/>
	<path class="st18" d="M238.1,111.3c1,4.3,2.7,6.6,5.3,8.2c1.5,0.9,1.4,2,0.4,3.2c-2.2,2.7-2.3,9.7-8.5,3.6c-1.3-1.3-5-0.3-5.6-2.2
		c-0.8-2.3,2.7-2.8,4-4.4C235.5,117.7,236.3,115,238.1,111.3z"/>
	<path class="st19" d="M136.2,64.4c0,3.8-3.2,7.2-7.2,7.4c-3.6,0.2-7.1-3.5-7-7.4c0-3.9,3.3-7.1,7.4-7.1
		C132.8,57.2,136.2,60.7,136.2,64.4z"/>
	<path class="st20" d="M201.6,126.9c-3.5-0.6-6.2-2.5-6.5-6.6c-0.3-3.5,1.2-6.1,4.7-7.2c1.5-0.4,3.1-0.3,3.9,1.3
		c0.8,1.9-0.8,2.2-2,2.5c-1.6,0.5-1.9,1.7-1.8,3.1c0.1,1.8,1.2,2.6,2.8,2.9c1.4,0.2,3.5-0.1,3,2.2
		C205.3,126.7,203.5,126.8,201.6,126.9z"/>
	<path class="st21" d="M227.4,135.7c-2.4,2-2.7,6.8-4.9,6.5c-2.9-0.3-5.5-3.4-8.3-5.2c2.1-2.5,4.2-5,6.4-7.5
		C222.8,131.5,225,133.5,227.4,135.7z"/>
	<path class="st22" d="M190.3,121.6c-0.4,1.9,1.2,5.4-1.9,5.7c-3.3,0.3-2.2-3.4-2.8-5.4c-0.5-1.7-0.5-3.6-0.4-5.4
		c0-1.5,0.5-3.3,2.3-3.3c1.8,0,2.3,1.7,2.4,3.2C190.2,118.1,190.2,119.8,190.3,121.6z"/>
	<path class="st23" d="M116.9,124.1c2.1,0.7,4.2,1.5,4,4.2c-0.2,2.4-2.2,3.4-4.1,3.5c-2.3,0.1-3.6-1.5-3.6-3.8
		C113.2,125.7,114.7,124.4,116.9,124.1z"/>
	<path class="st24" d="M197.1,70.1c-0.2,2.2-1.6,3-3.6,3c-1.8,0-2.9-1-2.8-2.7c0.1-1.9,1-3.5,3.3-3.4
		C195.9,67.2,197,68.1,197.1,70.1z"/>
	<path class="st19" d="M279.2,90.1c-1.7,0-3-0.6-3.1-2.5c0-1.6,0.9-3,2.6-3c1.5,0,2.9,0.9,3.1,2.6C282.1,89.2,280.9,89.9,279.2,90.1
		z"/>
	<path class="st25" d="M147.4,66.2c1-0.1,1.5,0.5,1.6,1.4c0.1,0.7-0.3,1.2-1.1,1.3c-1,0.1-1.6-0.5-1.6-1.4
		C146.3,66.9,146.6,66.3,147.4,66.2z"/>
	<path class="st26" d="M270.5,94.4c-0.3,1.1-1,1.7-1.8,1.4c-0.5-0.1-1.1-0.9-1.1-1.3c0-0.9,0.8-1.4,1.7-1.2
		C269.8,93.4,270.2,94,270.5,94.4z"/>
	<path class="st27" d="M187.8,46.8c-0.5,2.4-1.1,4.9-2.8,6.8c-1.5,1.6-2.9,3.3-4.7,4.5c-17.2,11.6-19.2,6.9-26-10
		c-0.9-2.3-0.4-5,1-7.2c2.4-3.7,6.9-3.9,9.5-0.4c0.7,0.9,1.1,2,1.6,3.1c3.2,6.9,3.7,6.9,8.3,0.7c2.4-3.3,5.6-3.9,9.3-2.7
		C186.4,42.4,187.8,44.1,187.8,46.8z"/>
	<path class="st28" d="M175.1,89.7c-1.3-0.6-0.9-1.9-0.9-3c0-0.8,0.2-1.8,1.4-1.3c1.2,0.5,1.6,1.6,1.2,2.8
		C176.6,89,176.2,89.8,175.1,89.7z"/>
	<path class="st29" d="M154.9,89.2c1.2,2.5,1.9,4.6,0.3,6.6c-0.5,0.6-2.4,0.7-2.6-0.2C151.8,93.2,153.3,91.4,154.9,89.2z"/>
	<path class="st30" d="M214.9,58.7c-2.3,2.3-4,4.4-5.4,7.2c-2.5-2.4-4.5-4.9-8.3-6.1c2.9-1.9,4.5-5.6,6.7-5.9
		C209.9,53.5,211.8,57.5,214.9,58.7z"/>
	<path class="st31" d="M141.6,120c1.5,0.4,2.5,1.4,2.5,3.1c0,1.4-1,2-2.3,1.9c-1.6-0.1-2.2-1.2-2.2-2.7
		C139.7,121.1,140,120,141.6,120z"/>
	<path class="st32" d="M234.3,123.1c2-1.1,1.3-5.3,4.7-3.7c1.6,0.7,2.4,1.8,1.3,3.9C238.2,127.3,236.4,123.3,234.3,123.1z"/>
	<path class="st33" d="M128.2,60.1c2.9,0.5,5.4,1.7,5.5,4.8c0.1,3-2.3,4.2-5.1,4.2c-2.7,0-4.3-1.6-4.4-4.3
		C124.1,62.1,125.5,60.5,128.2,60.1z"/>
	<path class="st34" d="M217.6,136.5c1.2-0.8,1.4-2.9,3.1-2.7c1,0.1,2.8,0.8,2.6,2.3c-0.1,1.2-0.5,3.3-2.3,3
		C219.9,138.8,218.3,138.1,217.6,136.5z"/>
</g>
</svg>
