<?xml version="1.0" encoding="utf-8"?>
<!-- Generator: Adobe Illustrator 26.2.0, SVG Export Plug-In . SVG Version: 6.00 Build 0)  -->
<svg version="1.1" id="Layer_1" xmlns="http://www.w3.org/2000/svg" xmlns:xlink="http://www.w3.org/1999/xlink" x="0px" y="0px"
	 viewBox="0 0 449 200" style="enable-background:new 0 0 449 200;" xml:space="preserve">
<style type="text/css">
	.st0{fill:#685558;}
	.st1{fill:#FEEDC7;}
	.st2{fill:#CEB687;}
	.st3{fill:#F99259;}
	.st4{fill:#7CE18C;}
	.st5{fill:#7CE18D;}
	.st6{fill:#F99359;}
	.st7{fill:#2FB851;}
	.st8{fill:#FEB78B;}
	.st9{fill:#A6FDB3;}
	.st10{fill:#F89259;}
	.st11{fill:#FEB68A;}
	.st12{fill:#30B952;}
	.st13{fill:#7CDF8C;}
	.st14{fill:#F79259;}
	.st15{fill:#A5FCB2;}
	.st16{fill:#A5FDB3;}
	.st17{fill:#A5FDB2;}
	.st18{fill:#30B851;}
	.st19{fill:#31B852;}
	.st20{fill:#76DC87;}
	.st21{fill:#76DD88;}
	.st22{fill:#76DC88;}
	.st23{fill:#74DC86;}
	.st24{fill:#F69259;}
	.st25{fill:#33B753;}
	.st26{fill:#F8935A;}
	.st27{fill:#FDB589;}
	.st28{fill:#FCB58A;}
	.st29{fill:#F9945B;}
	.st30{fill:#A1F9AE;}
	.st31{fill:#32B852;}
	.st32{fill:#FEB689;}
	.st33{fill:#72D884;}
	.st34{fill:#F6925B;}
	.st35{fill:#A2FBB0;}
	.st36{fill:#F7B187;}
	.st37{fill:#74DB86;}
	.st38{fill:#70DA83;}
	.st39{fill:#70D883;}
	.st40{fill:#FBB387;}
	.st41{fill:#FBB286;}
	.st42{fill:#F9B288;}
	.st43{fill:#71DA84;}
	.st44{fill:#74DA86;}
	.st45{fill:#63CF78;}
	.st46{fill:#3BB356;}
	.st47{fill:#EFA479;}
	.st48{fill:#72CF81;}
	.st49{fill:#43A355;}
	.st50{fill:#6FD580;}
	.st51{fill:#695658;}
	.st52{fill:#685658;}
	.st53{fill:#695659;}
	.st54{fill:#6B585A;}
	.st55{fill:#6A575A;}
	.st56{fill:#6D5A5B;}
	.st57{fill:#E8D5B5;}
	.st58{fill:#F4E1BE;}
	.st59{fill:#6F5859;}
	.st60{fill:#F6E5C1;}
	.st61{fill:#E2D0B2;}
	.st62{fill:#F0DFBD;}
	.st63{fill:#EEDCBA;}
</style>
<g>
	<path class="st0" d="M366.7,24.5c5.8-3.5,10.7-6.6,15.7-9.5c2.3-1.4,4.6-2.7,7-3.9c2.4-1.1,4.9-2.8,7.4-0.6c2.2,1.9,1.6,4.5,1,7
		c-1.6,6-3.2,12-4.9,18.2c2.5,0.5,3.6-1.5,5.2-2.5c4.2-2.7,8.2-5.6,12.4-8.4c2.9-1.9,6.1-3.5,9.3-1.4c3.4,2.3,2.1,6.1,1.3,9.2
		c-1.9,7.2-4,14.3-6.2,22.2c5.8-1.6,10.9-3.8,15.9-6.3c4.1-2.1,8.4-3.1,12.9-3.5c4.5-0.4,6.5,2.4,4.9,6.7c-1.6,4.3-4.5,7.7-7.1,11.4
		c-18.9,27.2-38.6,53.8-56.9,81.4c-0.4,0.5-0.7,1.1-1.6,2.7c4,0,7.4-0.1,10.7,0c4.1,0.2,6.6,1.4,7.6,6.5c1.5,7.3,1.5,14.5,1.5,21.8
		c0,5.4-2,7.2-7.5,6.7c-9.5-0.8-19,0.3-28.5,0.3c-2.1,0-3,0.7-3.1,2.8c-0.2,2.8-0.7,5.6-0.9,8.4c-0.3,3.9-2.5,5.9-6.1,5.8
		c-7.2-0.1-14.3-0.5-21.4-0.9c-2.5-0.2-3.8-1.7-4-4.3c-0.1-1.2-0.5-2.3-0.6-3.4c-0.8-8.5-0.8-8.4-9.2-8.4
		c-56.8,0.5-113.6,1-170.4,1.4c-17.5,0.1-35,1.3-52.4,0.1c-2.5-0.2-3,0.7-3.1,3c-0.7,11.9-1.4,12.4-13.3,12.9
		c-3.7,0.1-7.3,0.1-11,0.2c-4.3,0.1-6.6-2-7-6.1c-0.3-3-0.5-6-0.3-9c0.3-3.2-0.9-4-3.9-4c-12.8-0.1-25.6-0.3-38.5-0.6
		c-7.8-0.2-8.3-0.7-8.2-8.3c0-3.8,0.2-7.7,0.3-11.5c0.1-3,0.9-5,4.7-4.8c2.6,0.2,5.2-0.7,8.3-1.2c-6.4-12.8-13.1-25-20.1-37.1
		c-1.8-3.2-3.8-6.3-5.4-9.5c-2.5-4.9-0.6-8.2,4.9-8.3c6.1-0.1,11.7,2.1,17.4,4.1c0.8,0.3,1.6,0.5,2.8,0.8c-1.3-8.6-2.5-17-3.9-25.3
		c-0.4-2.3-0.5-4.4,1.5-5.9c2.1-1.4,4.1-0.5,6,0.7c4.6,2.9,9.3,5.8,15,9.4c-1.3-8.2-2.4-15.5-3.7-22.7c-0.4-2.5-1.3-5,1.1-6.9
		c2.4-1.9,4.7-0.6,7,0.4c0.9,0.4,1.7,1,2.7,1.4c2.1,0.8,3.9,4,5.9,2.5c1.7-1.2,0.7-4.4,0.7-6.6c0-4-0.1-8-0.2-12
		c0-2.4,0.2-4.7,2.7-6c2.7-1.4,4.9,0,6.8,1.7c3.9,3.4,7.7,6.8,11.4,10.5c1.8,1.8,2.6,1.5,4.2-0.3c19.1-22.4,44.2-32.9,72.6-36.6
		c25.6-3.3,50.8,0.4,76,4.3c23.7,3.6,47,9,70.5,13.8c8.2,1.7,16.3,3.3,24.1,6.3c2.6,1,3.7-0.3,5-1.8c6.2-7.2,12.5-14.3,18.7-21.5
		c2.6-3.1,5.3-6,8.6-8.2c4.9-3.4,8.6-1.8,9.4,4.2c0.7,4.9-0.5,9.6-1.1,14.4C367.3,21.3,367.1,22.2,366.7,24.5z"/>
	<path class="st1" d="M208.6,150.8c-41.8,0.8-83.6,1.6-125.4,2.5c-2.7,0.1-4-0.5-4.3-3.2c-0.3-2.8-1.8-4.4-4.6-5.2
		c-5.8-1.7-8.1-5.2-6.1-11.2c1.7-5.2,1-8.7-3.5-12.1c-4.1-3.2-4-5.8-0.7-9.8c1.5-1.8,3.1-3.5,5.2-4.6c3.1-1.7,2.9-4,0.4-5.9
		c-4.3-3.1-3.5-5.3,0.6-7.8c3.2-2,4.3-4.9,2.8-8.6c-1.7-3.8,1.7-5.2,3.8-6.5c2.6-1.5,2.6,1.7,3.4,2.9c9.5,14.2,23.6,21.2,39.8,24.4
		c20,3.9,40.1,2.5,60-1.3c22.9-4.4,45.3-10.9,68.4-14.1c16.6-2.3,33-3.2,49.7-1.1c10.7,1.4,21.5,2.5,32.3,2.6c5.2,0,10-1.1,14-4.4
		c2.3-1.8,3.8-1.6,6.1,0c7.1,5.2,8.1,8.3,4.1,15.7c-1.6,3-1,4.8,1.6,6.8c5.1,4,5.1,6.7,0.2,10.7c-3.6,2.9-4.5,6.1-3.3,10.5
		c1.5,5.4-1.9,11.9-7.2,13.8c-5,1.9-10,3.4-15.5,3.4c-27.1,0.3-54.3,0.9-81.4,1.3c-13.5,0.2-27,0-40.5,0
		C208.6,150.1,208.6,150.4,208.6,150.8z"/>
	<path class="st2" d="M49.3,161.6c27.1,0,54.3,0.5,81.4-0.2c18.3-0.5,36.6-0.4,54.9-0.8c36.8-0.7,73.6-1.1,110.4-2.2
		c16.8-0.5,33.6-0.1,50.4-0.9c14.3-0.7,28.6-0.4,42.9-0.8c3.7-0.1,5.2,1,5.1,4.7c-0.2,3.2-0.2,6.3,0.1,9.5c0.3,3.3-1.2,3.8-4.1,3.9
		c-9.5,0.1-19,0.7-28.4,0.8c-4.6,0-6.6,1.7-6.6,6.5c0,9.6-0.1,9.3-9.7,9.6c-5.2,0.2-8.4-0.6-7.6-6.7c0.2-1.4-0.7-2.9-0.9-4.4
		c-0.7-4.7-3.3-6.1-7.9-6.1c-47.1,0.3-94.3-0.2-141.4,0.6c-26.3,0.4-52.6,0.2-78.9,0.5c-5.5,0.1-10.9,0.5-16.4,1.1
		c-2.1,0.2-3.4,1.3-4,3.2c-0.4,1.3-0.6,2.6-0.9,3.9c-0.5,2.7,1.3,6.8-1,8c-3.8,2-8.5,0.7-12.8,0.6c-2,0-2.1-1.7-2.2-3.3
		c-0.2-3.3-0.3-6.6-0.6-9.9c-0.4-4.6-2.5-5.7-6.7-5.7c-13.1,0-26.3-0.4-39.4-0.7c-1.5,0-3.8,0.8-4.1-1.6c-0.3-2.8-0.7-5.6,0.3-8.3
		c0.1-0.3,1.5-0.2,2.3-0.2c8.7,0,17.3,0,26,0C49.3,162.3,49.3,161.9,49.3,161.6z"/>
	<path class="st3" d="M170.6,96.7c-6.3,1.6-12.6,2.3-19.1,1.9c-4.1-3.5-4.8-5.9-3.2-11c2.8-1.7,6-1.8,9.1-2.2
		c4.8-0.5,9.5-1.5,14.1-3c1.7-0.6,3.6-0.9,4.2-3.3c-2.5-1.7-5.1-0.5-7.6-0.1c-6,0.7-11.9,3.3-18.1,1.4c-2.3-2.4-0.4-4.4,1-6.1
		c3.6-4.6,8-8.4,12.6-12c2.7-2.2,5.5-4.3,8-6.7c4.7-4.5,7.6-9.5,6.8-16.3c-0.7-6.1,2-10.9,6.4-14.9c2.8-2.6,6.2-4.5,8.9-7.2
		c16.4,1.2,32.7,3.6,49,6.5c-2.4,2.5-5.9,2.8-8.8,4.3c-4.7,2.5-9.1,5.4-13.3,8.7c-3.2,2.4-5.5,5.8-5.4,9.7
		c0.2,11.8-7.3,17.9-16.1,23.1c-2.4,1.4-4.9,2.8-7,4.7c-2.5,1-5.3,1.6-6.8,4.2C178.2,82.8,174.1,89.5,170.6,96.7z"/>
	<path class="st3" d="M137.6,98.7c-13.7,0-26.6-2.9-38-10.9c-0.7-12.3,4.8-22.1,12.7-30.9c4.3-4.8,9.8-8,15.2-11.1
		c10.7-6.2,19.7-14.1,25.8-25c0.6-1,1.4-1.9,2.3-2.6c7-1.4,14-1.7,21.1-1.3c0.4,2.1-1.3,2.9-2.6,3.8c-2.9,2-5.3,4.5-7.9,6.8
		c-3.8,3.5-5.7,7.7-5.3,12.8c0.4,5.4-1.6,9.5-5.6,13.2c-4.1,3.8-8.5,7.3-12.5,11.3c-4.5,4.5-7.6,9.9-10.4,15.5
		c-6.3,0.7-12.5-0.9-18.7-1.6c-1.7-0.2-3.5-0.8-5.9,0.5c7.5,5.1,15.9,4.4,23.4,6.9C134,90,135.9,94.3,137.6,98.7z"/>
	<path class="st3" d="M276.6,63.8c-14.4-0.3-28.7,0.1-43,1.9c2.9-7.9,8.2-14.3,14.1-20.1c7.3-7.4,16.5-11.6,26.5-14.2
		c2.9-0.8,5.6,0.5,8.4-0.3c8.8,1.2,17.5,3.2,26.1,5.6c-4.5,2.8-9.5,4.5-13.9,7.5C287.1,49.4,281.5,56.3,276.6,63.8z"/>
	<path class="st3" d="M226.6,67c-4.8,1-9.6,1.9-14.4,2.9c-1.9,0.4-3.9,0.9-5.4,2.2c-1.6,1.3-1.6,2.4,0.7,2.9
		c0.1,0.8-0.2,1.3-0.9,1.6c-9.6,3.9-16.8,11-24,18c-2.6,0.6-5.2,1.5-8,1.4c-0.5-4.9,2.8-7.9,5.8-10.9c2.2-2.2,4.8-4.2,7.4-5.9
		c2.2-1.2,4.2-2.6,5.7-4.7c6.8-3,12.6-7.3,17.7-12.6c3.5-3.6,4.4-8.1,4.8-12.8c0.4-4.8,2.6-8.5,6.2-11.4
		c8.3-6.7,17.3-11.7,28.3-11.9c0.7,0,1.3-0.4,1.9-0.6c5.7,1.3,11.6,1.7,17.1,3.7c-1.2,2.6-3.9,2.8-6.1,3.7
		c-11.1,4.6-19.8,11.8-26,22C234.6,59.3,231.6,64,226.6,67z"/>
	<path class="st4" d="M421.5,62c3.9-3.3,8.7-4.4,14-6.9c-0.7,3.7-2.8,5.2-4.1,7c-19.4,27.3-38.9,54.4-57.4,82.3
		c-1.7,2.6-3.5,3.6-6.4,3.4c-3-0.2-6-0.1-9-0.1c-0.2-2.9,2.3-4.3,3.6-6.3c17.2-27,37.7-51.5,56.9-76.9
		C419.7,63.5,420.6,62.7,421.5,62z"/>
	<path class="st3" d="M215.5,74.6c19.6-2.6,39.2-4.9,59.1-3.4c1.1,2.7,0.6,5.1-1,7.4c-26.8,1.5-52.9,6.7-78.7,13.6
		c-3,0.8-6.1,1.8-9.3,1.6c-0.5-3,2.1-4,3.7-5.4c7.3-6.6,15.8-10.9,25.5-12.9C215.2,75.4,215.7,75.3,215.5,74.6z"/>
	<path class="st5" d="M405.8,63.6c4.8,1.3,9.2-0.6,13.7-1.7c0.5,2.2-1.3,3.3-2.3,4.6c-15,19.6-31,38.4-45.1,58.8
		c-2.8,4.1-5.5,8.3-8.6,12.2c-0.8,1-1.1,2.5-2.9,2.2c0.3-3.1,1.2-6.1-0.1-9.2c-0.7-1.6-0.3-2.7,1.2-3.7c4.7-3.1,6.4-7.6,6.1-13.1
		c0.3-0.2,0.7-0.3,1.1-0.4c11.3-15.6,22.1-31.5,33.7-46.9C403.5,65.4,404.1,63.9,405.8,63.6z"/>
	<path class="st6" d="M183.6,16.8c2.9,0.1,5.9,0.2,8.8,0.3c-0.4,2.5-2.8,3.1-4.5,4.2c-6.8,4.5-11.1,10.2-10.2,19
		c0.7,6.7-3.5,11.2-8,15.1c-3.5,3-7.3,5.7-11,8.4c-5.2,4-9.7,8.5-12.6,14.5c-0.4,0.9-1,1.7-2,2.2c-2.4,0.8-4.7,0.9-7.1,0
		c-2.4-2.3-0.5-4.3,0.5-6.2c3.8-6.8,9.6-11.9,15.4-16.7c6-5,10.1-10.4,9.3-18.6c-0.3-2.9,0.7-5.6,2.6-7.9
		C170.1,24.9,175.9,19.6,183.6,16.8z"/>
	<path class="st3" d="M319.5,40.9c6.6,2.1,13.1,4.6,18.1,9.8c-6.4,4.2-11.3,10.1-17,15.1c-9.7,0.2-19.5,0.7-29.2-0.7
		C297.6,53.2,306.8,45,319.5,40.9z"/>
	<path class="st3" d="M90.5,79.8c-7.8-9-8.2-18.3-0.5-27.9c13.6-16.8,31.7-26.3,52.5-31.1c0,4-3.3,5.5-5.7,7.5
		c-4,3.3-8.7,5.5-13,8.3c-8,5.1-15.8,10.3-21.9,17.8c-5.5,6.7-9,14.2-10.2,22.9C91.6,78.2,91.5,79.2,90.5,79.8z"/>
	<path class="st5" d="M365.6,98.8c0.2-4.5-1.3-8.5-4-12c0.1-0.2,0.2-0.4,0.3-0.6c10.1-11.3,19.3-23.5,28.9-35.3
		c2.1-2.6,4.1-5.1,6.8-7.2c4.1-3.8,8.8-6.7,13.9-10.1c0.2,3.5-0.7,5.9-1.8,8.3c-13.8,18-28.2,35.5-40.7,54.5
		C368.1,97.5,367.5,99.1,365.6,98.8z"/>
	<path class="st5" d="M368.4,113.8c-0.2,0-0.4,0-0.6,0c-0.4-2.6-1.4-5-3.4-6.8c-1-0.9-1.9-1.9-0.8-3.3c7.8-10,14.3-21,22.1-31
		c6.3-8.1,12.3-16.4,18.9-24.3c1-1.2,1.6-3,3.8-2.7c-1.1,3.5-2,6.9-3.3,10.3c-0.8,2.3-1,4.5,0.2,6.7
		C392.7,79.6,380.5,96.6,368.4,113.8z"/>
	<path class="st7" d="M48.5,153.7c-2.2,0.1-4.3,0-6.5,0.2c-8,0.6-7.8,0.5-11-6.4c-5.3-11.8-11.7-23-18.3-34.1
		c-0.7-1.3-1.8-2.4-1.8-4.1c2.1-1.1,3.7,0.7,5.6,0.8c2.6,2.1,4.8,4.7,6.9,7.3c8.8,10.3,16.1,21.7,24,32.7
		C48.3,151.1,49.3,152.3,48.5,153.7z"/>
	<path class="st6" d="M97.6,86.5c-1.7-0.8-3-2-4.1-3.5c-1.9-9.8,2-17.9,8-25.1c6.6-7.9,14.4-14.7,23.5-19.6
		c8.7-4.7,15.6-11.6,22.5-18.6c1.2-1,2.6-0.8,4-0.8c0.9,2.5-1,4.1-2.1,5.8c-6,9.1-14.3,15.6-23.6,20.9c-13.8,7.9-23.3,19-26.6,34.8
		C98.8,82.4,99.4,84.8,97.6,86.5z"/>
	<path class="st5" d="M382.5,44.9c3.3,4.7,7.2,1.8,10.9,0.8c0.6,0.8,0.3,1.6-0.2,2.3c-10.6,12.8-20.6,26.1-31.5,38.7
		c0,0-0.2,0.2-0.2,0.2c-2-1.7-4-3.4-6-5.1c-0.5-2.3,1.3-3.6,2.4-5.1C365.9,65.8,374.4,55.5,382.5,44.9z"/>
	<path class="st8" d="M147.6,19.7c-5,9.1-13.4,14.6-22,19.6c-9.2,5.3-17,12.2-23.9,20.1c-5.8,6.7-7.6,15-8.2,23.6c-1-1-2-2.1-3-3.1
		C91,66,97.7,55.5,107.8,46.7c7.6-6.7,16.4-11.6,25-16.9c3.8-2.4,7.3-5.2,9.8-8.9C144.1,19.8,145.9,19.7,147.6,19.7z"/>
	<path class="st8" d="M252.6,25.1c-2.1,3-5.5,1.8-8.3,2.5c-8.9,2.1-16.2,6.6-22.9,12.5c-2.2,2-3.9,4.5-3.9,7.8
		c0.1,9.4-4.7,16.1-12.2,20.9c-3.6,2.3-6.4,6.4-11.4,6c-1-0.1-2.1-0.1-2.4-1.5c4.2-4.8,10.4-6.7,15.2-10.9c4.3-3.8,6.7-8.1,6.8-13.7
		c0.1-5.9,2.4-10.4,7.2-13.9c6.7-4.9,13.5-9.7,21.9-11.2C246,24.2,249.3,24.6,252.6,25.1z"/>
	<path class="st8" d="M183.6,16.8c-4.5,3.4-9,6.7-13.3,10.2c-4.1,3.3-7.3,7.3-6.7,13.1c0.8,8-3.5,13.1-9.2,18
		c-7.1,6.1-14.7,12-17.8,21.5c-1.4,1.3-2.7,1.4-4-0.2c0-5.9,4-9.8,7.5-13.5c5.1-5.4,10.8-10.3,16.3-15.3c2.2-2,3.6-4.4,3.2-7.5
		c-1.5-10.5,4.8-16.6,12.1-22.3c1.7-1.3,3.9-2,5-4C179,16.8,181.3,16.8,183.6,16.8z"/>
	<path class="st8" d="M97.6,86.5C98.4,67,109,53.9,125.2,44.6c11-6.3,20.4-14.2,26.4-25.7c1.3-0.2,2.7-0.5,4-0.7
		c-4.8,12.3-14.1,20.5-25,27.2c-7.4,4.6-15,8.8-20.5,16.1c-5.4,7.1-8.5,14.8-9.5,23.5c-0.1,1-0.6,1.9-0.9,2.8
		C98.9,87.4,98.3,86.9,97.6,86.5z"/>
	<path class="st9" d="M360.6,139.7c18-27.1,38.6-52.4,58.9-77.8c0.7,0,1.3,0,2,0c-4,8.5-10.5,15.2-16.3,22.4
		c-14.1,17.8-27.7,36-40.4,54.9c-1.9,2.9-4.2,5.6-6.3,8.3c-1.6,0.1-1.5-0.7-1-1.8C358.6,143.8,359.6,141.8,360.6,139.7z"/>
	<path class="st8" d="M144.6,79.7c2.4-8.8,9.4-13.7,16-18.9c4.7-3.8,10.3-6.7,13.7-12.1c1.2-1.9,2.6-3.6,2.2-5.9
		c-2.1-13.2,5.8-20.2,15.9-25.7c0.4,0,0.8,0,1.2,0c0.9,1.4-0.1,2-1.1,2.7c-3.1,2.2-6.2,4.4-8.8,7.2c-2.8,3.1-4.9,6.5-4.2,10.7
		c1.8,10.7-4.4,17.2-11.9,22.8c-5.5,4.2-10.7,8.8-15.4,13.9c-1.4,1.5-2.5,3.1-2.8,5.2C147.9,81.2,146.3,81.2,144.6,79.7z"/>
	<path class="st8" d="M226.6,67c8.6-8.6,12.8-20.8,23.2-28.1c6.2-4.4,12.9-7.3,19.8-10.1c4.4,0.1,8.6,1.4,12.8,2.3
		c-5.7,1.4-11.6,1.9-17.1,4.4C255,39.9,246.7,46.6,240.5,56c-2.2,3.3-4.6,6.5-6.9,9.7C231.3,66.1,228.9,66.5,226.6,67z"/>
	<path class="st5" d="M386.5,27.8c-0.4,5.6-3.9,10.5-4.2,16.1c-4.7,8.1-11.2,14.9-16.9,22.1c-3.9,4.9-6.9,10.5-11.8,14.7
		c-1-0.3-2.1-0.8-1.5-1.9c1.9-3.5,2.2-7.4,3.3-11c8.8-12.4,17.5-25,26.9-36.9C383.4,29.5,384,27.4,386.5,27.8z"/>
	<path class="st5" d="M355.6,64.8c-0.6-2.7-1.2-5.4-1.8-8.1c1.5-5.1,5.4-8.6,8.4-12.7c3.4-4.8,6.9-9.6,11.4-13.5
		c3.7-3.8,8.4-6.1,12.8-9c0.6-0.4,1.5-1,2,0.1c0.4,0.8,0,1.6-0.6,2.2c-10,12.9-19.8,26.1-29.4,39.3C357.6,64,357,65.2,355.6,64.8z"
		/>
	<path class="st7" d="M30.7,114.5c2.5-0.6,4-2.2,4.7-4.7c6.1,4.6,9.4,11.4,13.8,17.3c4.7,6.2,9,12.7,12.5,19.7l-0.1-0.1
		c0.7,1.3,1.8,2.3,2.6,3.5c0.7,1,1.9,1.8,1.3,3.3c-2,0-4,0-6,0c-3.7-1.7-5.2-5.5-7.3-8.5c-6.5-9.6-13.4-18.8-20.4-27.9
		C31.2,116.3,30.6,115.5,30.7,114.5z"/>
	<path class="st7" d="M19.8,111.7c3.3,0.9,6.6,1.9,9.8,2.8c10,11.3,18,24,26.7,36.3c0.6,0.8,0.9,1.8,0.4,2.8c-1.9,0-3.9,0.1-5.8,0.1
		c-7-7.3-11.9-16.3-18.1-24.2c-3.2-4-6.1-8.2-9.4-12.2C22,115.5,19.6,114.4,19.8,111.7z"/>
	<path class="st6" d="M287.6,64.7c-3.1,0-6.2,0.5-9.2-0.7c7-11.1,16.4-19.3,28.3-24.7c1.8-0.8,3.7-1.4,5.7-1.4
		c1.4,0.6,2.7,1.2,4.1,1.7c-0.6,1.3-1.9,1.8-3.1,2.4c-9.1,4.5-16.3,11.2-22.3,19.2C290.2,62.7,289.2,64,287.6,64.7z"/>
	<path class="st10" d="M315.6,81.4c-9.4-0.4-18.8-1.6-28.1-2.8c-1.6-2.1-1.7-4.3,0.1-6.4c9.7,0.6,19.3,1.2,29,1.8
		C318,76.7,317.1,79.1,315.6,81.4z"/>
	<path class="st9" d="M408.4,45.8c-11.2,13.6-21.9,27.5-31.9,41.9c-3.2,4.6-6.6,9.2-9.8,13.8c-0.8,1.1-1.5,2.2-3,2.2
		c0.6-1.7,1.3-3.3,1.9-5c10.9-15.7,22-31.3,34.2-46.1c3.1-3.7,5.2-8.5,9.8-10.8C409.2,43.1,408.8,44.5,408.4,45.8z"/>
	<path class="st5" d="M353.5,55.8c-1.4-3.3-3.6-6.2-5.7-9.1c3-4.9,5.6-10,9.8-14c2.1,3.8,5,3.8,8.4,1.7c1.1-0.7,2.3-1.2,3.5-1.8
		c1,1.7-0.3,2.9-1.2,3.9C362.8,42.6,358.7,49.6,353.5,55.8z"/>
	<path class="st11" d="M312.5,38c-12.6,5.5-24.1,12.5-31.5,24.7c-0.4,0.7-1.7,0.9-2.5,1.4c-0.6-0.1-1.3-0.2-1.9-0.2
		c6.2-14.3,17.2-23,32-27.1C309.9,37.1,311.2,37.6,312.5,38z"/>
	<path class="st12" d="M53.6,112c-0.6,2.9-1.2,5.9-0.1,8.8c-1.4,0.3-2.2-0.6-2.9-1.6c-5.7-7.9-11.6-15.6-17-23.7
		c-0.7-3.2-3.3-6.2-1-9.7C41,93.5,47.7,102.5,53.6,112z"/>
	<path class="st12" d="M59.8,135c0,1.6-0.1,3.2-0.1,4.7c-1.5,0.5-2.1-0.6-2.8-1.5c-6.9-10.1-14.3-19.8-21.3-29.8
		c-0.6-3.5-1.3-7-1.9-10.5c3,0.5,3.8,3.2,5.3,5.2c6.7,9,12.9,18.5,19.2,27.8C59,132.2,59.7,133.5,59.8,135z"/>
	<path class="st9" d="M368.4,113.8c1.2-6.2,5.9-10.2,9.2-15c8-11.5,16.6-22.7,24.9-34.1c0.7-1,1.4-1.8,2.7-1.8
		c0.2,0.2,0.4,0.4,0.5,0.7c-10.3,14.5-20.6,28.9-30.9,43.4c-1.7,2.4-3.4,4.9-5.1,7.3C368.7,115.8,368.7,114.5,368.4,113.8z"/>
	<path class="st13" d="M341.5,40.8c-5.6-3.7-5.5-3.6-1.1-8.4c6.5-7.2,12.8-14.6,19.8-22.5c0.3,2.9,0.6,5-0.6,7.1
		c-5.7,8-11.4,15.9-17.4,23.7C342,40.7,341.8,40.7,341.5,40.8z"/>
	<path class="st14" d="M330.5,72.7c5.2-1.5,10.1-3.8,14.4-7.5c1.1,8-3.8,15.1-11.3,16.7c-2.3,1-3.7,0.3-4.3-2.2
		C329.1,77.2,329.6,74.9,330.5,72.7z"/>
	<path class="st11" d="M287.6,64.7c7.1-11.3,16.2-20.2,28.9-25c1,0.4,2,0.8,3,1.2c-11.4,5.6-20.7,13.8-28.1,24.1
		C290.2,64.9,288.9,64.8,287.6,64.7z"/>
	<path class="st5" d="M347.4,46c-1.9-1.7-3.9-3.5-5.8-5.2c0,0,0.3-0.2,0.3-0.2c5.2-6,9.4-12.8,14.4-19c0.9-1.1,1.2-2.9,3.1-2.7
		c-0.6,4.3-1.3,8.6-1.9,12.9C353.9,36.4,351.8,42,347.4,46z"/>
	<path class="st15" d="M361.7,86.6c2.8-6.9,8.6-11.5,12.9-17.3c6-8,12.5-15.8,18.8-23.6c1.2-1.1,2.5-1.7,4.1-2
		c-7.4,10.7-16.1,20.4-24.1,30.7c-2.3,3-4.7,5.9-7.1,8.8C365,84.7,364.2,86.7,361.7,86.6z"/>
	<path class="st16" d="M353.6,80.7c8.4-13.2,18.4-25.1,28.7-36.8c0.1,0.3,0.2,0.6,0.3,1c-0.6,5.2-5,8-7.7,11.8
		c-6.2,8.6-12.8,16.7-19.3,25C354.9,81.4,354.2,81,353.6,80.7z"/>
	<path class="st17" d="M355.6,64.8c9.3-12.3,18-25.1,27.9-36.9c1.3-1.5,2.3-3.3,4.2-4.1c-0.4,1.3-0.8,2.7-1.2,4
		c-10.2,11.5-18.4,24.6-27.6,36.9c-0.9,1.1-0.8,3.8-3.5,3C355.4,66.8,355.5,65.8,355.6,64.8z"/>
	<path class="st18" d="M66.7,56.7c0-3.1,0-6.2,0-9.9c4.5,2.1,6.9,5.7,10,8.5c0.7,0.6,0.5,1.5,0.1,2.3c-1.6,3.9-1.1,8.1-1.2,12.2
		c-4.6-2.2-5.5-7.2-7.9-10.9C67.3,58.2,67.1,57.4,66.7,56.7z"/>
	<path class="st19" d="M64.5,82.7c0.2,2.5,3.7,5.4-1.1,7.1c-2.3,0-2.9-2-3.8-3.5c-3-5.1-6.4-10.1-8.9-15.5c0-2.1-1.7-4-0.8-6.2
		c2.4,0.5,3.6,2.2,4.7,4.1C59.7,72.2,62.3,77.3,64.5,82.7z"/>
	<path class="st11" d="M215.5,74.6c1.2,0.4,2,0.7,0,1.4c-3.6,1.2-7.2,2.5-10.7,3.9c-7.5,3-13.9,7.7-19.2,13.9
		c-0.9,0.4-1.8,1.1-3,0.8c5.5-9,13.8-14.5,23.1-18.7c0.6-0.3,1.2-0.6,1.7-0.9C210.1,74.9,212.8,74.7,215.5,74.6z"/>
	<path class="st20" d="M59.8,135c-8.7-11.8-15.9-24.6-25.1-36.1c-0.3-0.4-0.7-0.7-1-1c-0.2-0.8-1.4-1.5-0.1-2.3
		c5.8,4.4,8.8,11.1,13.3,16.6c2.3,2.8,4.4,5.8,6.6,8.6c1,1.6,2.1,3.3,3.1,4.9c1.5,2.3,3.9,4,4,7C60.3,133.5,60,134.3,59.8,135z"/>
	<path class="st11" d="M188.6,79.8c-5.5,4.6-11.6,8.7-13.9,16.1c-1.2,1-2.6,0.9-4.1,0.8c1.5-8.8,6.7-14.8,14.2-19.1
		C186.6,77.5,187.7,78.5,188.6,79.8z"/>
	<path class="st21" d="M56.6,153.6c-7.5-11.9-15.7-23.3-24.2-34.5c-1.1-1.5-2.3-2.8-2.8-4.6c0.4,0,0.7,0,1.1-0.1
		c6.1,5.9,10.5,13.2,15.6,19.9c4.7,6.2,8.9,12.8,13.2,19.2C58.6,153.6,57.6,153.6,56.6,153.6z"/>
	<path class="st22" d="M35.6,108.5c7.3,7,12.4,15.8,18.4,23.9c1.9,2.5,3.8,5,5.7,7.4c0.7,2.3,1.3,4.7,2,7
		c-6.6-7.3-10.8-16.1-16.8-23.8c-3.3-4.3-6.3-8.8-9.5-13.2C35.4,109.3,35.5,108.9,35.6,108.5z"/>
	<path class="st23" d="M23.7,116.8c10.1,11.6,18.6,24.2,27.1,36.9c-0.8,0-1.5,0-2.3,0c-8.2-12.3-16.8-24.2-25.9-35.9
		C22.4,116.8,22.7,116.5,23.7,116.8z"/>
	<path class="st19" d="M38.5,89.6c3,1.4,6,2.9,9,4.3c3.9,3.5,7.5,7.4,10,12.1c-1,1.3-2,2.6-3,3.9c-0.2,0-0.4,0.2-0.5,0.1
		C47.9,103.9,42.2,97.5,38.5,89.6z"/>
	<path class="st24" d="M330.5,78.8c-0.2,2.3,0.9,3.2,3.1,3.1c-5.1,2.1-10.1,0.1-15.1-0.2c-1-3-0.9-5.7,1.9-7.7c2.7-0.3,5.3-0.6,8-1
		c0.8,1.4,0.1,2.9-0.2,4.2C327.4,80.3,329.6,78.4,330.5,78.8z"/>
	<path class="st25" d="M62.5,90.9c-0.9,1.7-1.7,3.3-2.6,5c-4-1.7-4.9-5.7-6.9-9c-0.4-3.7-0.8-7.4-1.2-11.1c1.2-0.3,1.9,0.4,2.4,1.3
		C56.8,81.8,60.3,85.9,62.5,90.9z"/>
	<path class="st22" d="M38.5,89.6c5.4,6.8,10.7,13.5,16.1,20.3c-0.3,0.7-0.7,1.5-1,2.2c-7.7-8.2-13.9-17.5-21-26.1
		C35.3,86,36.5,88.4,38.5,89.6z"/>
	<path class="st26" d="M338.7,51.7c1.1,1.2,3.4,1.8,2.1,4.2c-1.8,1.9-3.8,3.7-5.3,5.8c-3.2,2.3-6.9,3.4-10.9,3.8
		C327.4,59,332.8,55,338.7,51.7z"/>
	<path class="st27" d="M338.7,51.7c-4.6,4.6-10,8.6-14.1,13.8c-1.3,0.1-2.7,0.1-4,0.2c4.5-6.4,9.2-12.4,17-15.1
		C338,51,338.4,51.4,338.7,51.7z"/>
	<path class="st19" d="M59.7,98.1c1.1,2.5,2.7,5-1.1,6.7c-4.3-2.6-7.2-6.3-8.9-11c1.6-0.9,2.8-2.2,3.3-4.1
		C57.3,90.8,57.6,95.2,59.7,98.1z"/>
	<path class="st28" d="M137.6,98.7c-3.3-3.2-5.4-7-5.9-11.7c1.6-1.8,3.3-1.5,5.1-0.3c1.5,4.7,6,7.6,7.9,12
		C142.3,98.7,139.9,98.7,137.6,98.7z"/>
	<path class="st29" d="M144.6,98.7c-3.5-3.1-7.5-5.8-8-11.1c2-1.6,4.3-1.2,6.5-0.6c3.6,3.1,3.6,7.5,4.4,11.7
		C146.6,98.7,145.6,98.7,144.6,98.7z"/>
	<path class="st30" d="M353.5,55.8c3.2-6.6,7.9-12.2,12.5-17.8c1.4-1.7,2.9-3.2,3.5-5.3c1-1.3,2.4-2,4-2.1c-6,9.2-13,17.6-19.8,26.2
		C353.6,56.5,353.5,56.1,353.5,55.8z"/>
	<path class="st19" d="M64.7,66.8c0.6-2.3,1.3-4.7,1.9-7c4.2,2.9,6.4,6.9,7.1,11.8c-1.4,0.8-2.7,1.5-4.1,2.3
		C66.1,72.9,65.7,69.7,64.7,66.8z"/>
	<path class="st30" d="M359.4,18.9c-4.9,6.5-9.8,13.1-14.6,19.6c-0.8,1.1-1.3,2.4-2.9,2.1c5-8.6,10.5-16.8,17.8-23.7
		C359.6,17.6,359.5,18.2,359.4,18.9z"/>
	<path class="st31" d="M57.8,69.6c2,0.4,3.8-0.3,5.6-0.9c2.9,1.4,4.6,3.5,4.3,6.9c-1,1.4-1.9,2.8-2.9,4.2
		C61.2,77.3,58.8,74,57.8,69.6z"/>
	<path class="st32" d="M147.6,98.7c-2.8-3.1-2.5-7.3-3.9-10.8c1.6-1.5,3.2-1.5,4.9,0c-0.5,4,1.1,7.4,3,10.8
		C150.2,98.7,148.9,98.7,147.6,98.7z"/>
	<path class="st33" d="M62.5,90.9c-4.3-4.4-6.6-10.4-10.6-15c-0.3-1.7-0.7-3.3-1-5c5.3,5.6,8,12.9,12.6,19
		C63.1,90.1,62.8,90.5,62.5,90.9z"/>
	<path class="st34" d="M283.6,78.5c-2,0-4,0-6.1,0c-1.8-2.6-0.8-4.8,1.1-6.9c1.7,0.1,3.4,0.2,5,0.3
		C285.2,74.2,285.3,76.4,283.6,78.5z"/>
	<path class="st35" d="M347.4,46c3.2-4.8,5-10.6,10.1-14.2c0.1,0.3,0.2,0.6,0.2,0.9c-2.7,5.1-5.3,10.3-9.8,14
		C347.6,46.6,347.4,46.3,347.4,46z"/>
	<path class="st36" d="M278.6,71.7c-0.4,2.3-0.7,4.6-1.1,6.9c-1.3,0-2.6,0-4,0.1c-0.2-2.5,0-5,1-7.4
		C275.9,70.9,277.3,70.7,278.6,71.7z"/>
	<path class="st37" d="M49.7,93.8c3,3.7,6,7.3,8.9,11c-0.3,0.4-0.7,0.8-1,1.2c-4.1-3.4-7.5-7.4-10-12.1C48.2,93.9,49,93.9,49.7,93.8
		z"/>
	<path class="st38" d="M73.8,71.6c-2.1-4.1-4.4-8.1-7.1-11.8c0-1,0-2.1,0.1-3.1c4,3.6,5.5,9,8.9,13.1C75.4,70.9,74.7,71.4,73.8,71.6
		z"/>
	<path class="st39" d="M57.8,69.6c2.3,3.4,4.7,6.8,7,10.2c-0.1,0.9-0.2,1.9-0.2,2.8c-3.3-4.7-6.6-9.3-9.8-14
		C56,68.2,57.1,68.4,57.8,69.6z"/>
	<path class="st40" d="M330.5,78.8c-1.3,0.6-0.7,3.5-2.8,2.7c-2.1-0.8-1.2-2.8-0.8-4.3c0.4-1.4,1-2.8,1.5-4.2
		c0.7-0.1,1.4-0.2,2.1-0.3C332.2,74.7,329.8,76.7,330.5,78.8z"/>
	<path class="st41" d="M320.5,74c-0.6,2.6-1.3,5.1-1.9,7.7c-1-0.1-2-0.2-3-0.2c-0.5-2.6,0.8-4.9,1-7.4C317.9,74,319.2,74,320.5,74z"
		/>
	<path class="st42" d="M283.6,78.5c0-2.2,0-4.4,0-6.5c1.3,0.1,2.6,0.1,3.9,0.2c0,2.1,0,4.3-0.1,6.4
		C286.2,78.6,284.9,78.6,283.6,78.5z"/>
	<path class="st43" d="M59.7,98.1c-3-2.2-3.7-6.2-6.8-8.3c0-1,0.1-1.9,0.1-2.9c3.4,2.1,4.3,6.2,6.9,9C59.8,96.6,59.8,97.3,59.7,98.1
		z"/>
	<path class="st44" d="M67.7,75.6c-1.4-2.3-2.8-4.6-4.3-6.9c0.4-0.6,0.9-1.2,1.3-1.9c1.6,2.4,3.3,4.7,4.9,7.1
		C69,74.5,68.4,75.1,67.7,75.6z"/>
	<path class="st45" d="M23.7,116.8c-0.3,0.3-0.7,0.7-1,1c-2.3-2.3-4.6-4.6-6-7.7c1.2,0.2,2.3,0.6,3.1,1.5
		C21.1,113.4,22.4,115.1,23.7,116.8z"/>
	<path class="st46" d="M60.6,132.8c-1.6-2.2-3.2-4.3-4-7C58.1,128,63.5,128,60.6,132.8z"/>
	<path class="st47" d="M335.5,61.7c0.8-2.9,2.8-4.6,5.3-5.8C339.9,58.6,338,60.4,335.5,61.7z"/>
	<path class="st48" d="M65.6,153.6c-0.6-1-1.1-1.9-1.7-2.9c0-0.4,0.2-0.6,0.6-0.6c1.4-0.1,2.1,1.1,3.2,1.6c0.6,0.6,0.6,1.3,0,1.9
		C66.9,153.6,66.2,153.6,65.6,153.6z"/>
	<path class="st49" d="M67.6,153.6c0-0.6,0-1.3,0-1.9c1.2,0.1,2.5-0.2,3.3,1.3C70,154.3,68.7,153.6,67.6,153.6z"/>
	<path class="st50" d="M64.5,150.1c-0.1,0.3-0.4,0.5-0.6,0.6c-0.9-1.2-2.3-2.2-2.2-4C62.9,147.6,64.1,148.5,64.5,150.1z"/>
	<path class="st0" d="M230.6,135.8c-3.1,5.6-7.6,8-14,7c-3-0.5-4.6-2-4.8-4.8c-0.5-9.2,0.6-18.3,2.3-27.2c0.7-3.3,3.4-4.2,6.6-3.9
		c4.9,0.5,9.5,5.6,8.6,10.5c-0.7,3.8-0.6,6.9,1.6,10c0.6,0.9,0.6,2.2,0.8,3.4C233,132.8,232.3,134.4,230.6,135.8z"/>
	<path class="st0" d="M272.8,114.3c0,0.3,0.2,1.1-0.2,1.6c-3.8,5.8-0.9,9.9,3.2,14c1.7,1.6,2.1,4.1,2.4,6.5c0.2,1.7-0.2,3.5-2,4.1
		c-2,0.7-3.1-0.6-4-2.1c-1.7-2.8-2.6-6.1-5.3-8.3c-1.3-1.1-2.8-2.2-4.5-1.8c-1.9,0.5-0.9,2.5-1.3,3.9c-0.8,2.4,0.2,6.3-3.3,6.4
		c-4,0.1-3.7-4-3.7-6.5c0-7.6,0.2-15.3,1.8-22.8c0.9-4.2,4.2-6.2,8.7-5.7C269.1,104.1,272.7,108.7,272.8,114.3z"/>
	<path class="st0" d="M232.4,130.7c0.9-6.6,1.6-13.3,4.4-19.4c1.4-3.1,3.1-6.3,7.2-5.7c3.8,0.5,5,3.6,5.6,6.8
		c1.4,7.6,1.1,15.2,0.9,22.9c0,2.2-0.9,4.5-3.7,4.5c-2.9-0.1-3-2.5-3.4-4.7c-0.3-1.5,1.3-4.1-1.8-4.3c-3.4-0.2-2.7,2.7-3,4.6
		c-0.9,6.1-2.2,7.1-6.2,4.3C231.7,136.8,231.6,133.8,232.4,130.7z"/>
	<path class="st51" d="M118.7,138.8c-1.1,4.8-3.2,8.8-8.5,9.9c-4,0.8-7.6-0.1-10.4-3.3c-1.3-1.5-2.9-3.2-1.6-5.3
		c1.5-2.4,3.6-0.9,5.3-0.2c2.8,1.1,6,4.1,7.8-0.7c1.6-4.2-0.8-6.6-5.1-8c-5.2-1.7-7.5-6.1-6.6-11.4c0.7-4.5,4.9-8.5,9.6-8.8
		c2.4-0.2,4.6,0.5,6.4,2.3c1.1,1.1,1.7,2.6,0.9,4.1c-0.9,1.7-2.2,0.9-3.4,0.4c-1.3-0.6-2.6-0.5-3.8,0c-1.8,0.8-3,2.2-3.1,4.2
		c-0.1,2.1,1.2,3.4,3.3,3.7c4.1,0.8,6.7,3.4,8.5,7C119.5,134.5,120.3,136.5,118.7,138.8z"/>
	<path class="st52" d="M175.5,129.1c0,3.8,0.2,7.6-0.1,11.4c-0.1,1.7-0.8,4-3.1,3.8c-1.9-0.2-2.5-2-2.7-3.7c-0.2-1.3-0.3-2.6-0.5-4
		c-0.2-1.8-1.5-1.8-2.9-1.9c-1.7,0-2.5,0.6-2.4,2.3c0,0.3,0,0.7,0,1c-0.2,2.6,0.4,6.3-3,6.4c-3.8,0.1-3.2-3.9-3.3-6.6
		c-0.2-7,0.8-13.9,1.9-20.8c0.3-1.9,0.8-3.8,3.3-3.5c2.3,0.3,2.2,2.3,2.2,3.9c0,2.7-0.1,5.3-0.2,8c-0.1,1.8,0.4,2.9,2.3,3
		c2.2,0.1,1.7-1.5,1.8-2.7c0.3-3.1,0.5-6.3,0.9-9.4c0.2-1.6,0.7-3.5,2.9-3.4c1.9,0.1,2.2,1.8,2.4,3.3c0.3,4.3,0.5,8.6,0.7,12.9
		C175.6,129.1,175.5,129.1,175.5,129.1z"/>
	<path class="st51" d="M119.5,132.8c0.4-4.8,0.7-9.6,1.3-14.4c0.2-1.8,0.5-4.5,3.2-4.2c2.4,0.3,1.9,2.8,2,4.5
		c0.2,6.6-0.5,13.3,0.4,19.9c0.1,0.6,0.4,1.2,0.8,2.5c2.4-3.2,2-6.5,2.3-9.6c0.5-4.3,0.5-8.6,0.9-12.9c0.2-1.9,1-3.8,3.3-3.7
		c2.6,0,3.2,2,3.2,4.2c0.1,6.3-0.8,12.6-1.7,18.9c-0.7,4.5-2.4,8.6-7.8,8.9c-5.5,0.3-6.7-3.9-7.8-8.1
		C119,136.8,118.6,134.8,119.5,132.8z"/>
	<path class="st53" d="M145.7,146.7c-2.2,0-3.9-0.7-5.5-1.7c-1.3-0.9-2.4-2-2-3.7c0.4-1.7,2-2.2,3.5-2.3c2.2-0.1,4.9,0.8,5.7-2.5
		c0.8-3.2-1.4-4.7-3.6-6.4c-5.7-4.3-6.5-10.6-2-15c2.8-2.8,6.5-2.8,8.7,0c2.1,2.5,1.3,4.7-2,5.1c-1,0.1-2-0.4-2.3,1
		c-0.2,1.1,0.3,2,1.1,2.6c1.1,1,2.4,1.8,3.5,2.8c3.6,3.3,4.9,8.7,3,13.3C152.4,143.8,149.4,146,145.7,146.7z"/>
	<path class="st54" d="M187.4,127.3c0,3.8,0.2,7.6-0.1,11.4c-0.1,1.7-0.7,3.9-3,4c-2.4,0.2-2.9-2-3.2-3.7c-1.2-8.1-1-16.2,0.4-24.2
		c0.3-1.5,1.3-2.9,3-2.7c1.8,0.2,2.4,1.8,2.5,3.3c0.1,4,0,7.9,0,11.9C187.3,127.3,187.4,127.3,187.4,127.3z"/>
	<path class="st55" d="M85.2,117.8c-6.8,0-11.2-5.3-9.8-10.9c0.4-1.5,0.7-3,2.5-3.2c1.9-0.2,2.5,1.2,2.8,2.8
		c0.6,3.4,2.3,4.9,5.9,3.9c2.4-0.7,5-0.5,5.6,2.3c0.5,2.5-1.9,3.5-4,4.3C87,117.4,85.7,117.7,85.2,117.8z"/>
	<path class="st54" d="M332.5,118.8c-5.2,0.1-8.6-3.1-8.8-7.2c-0.1-1.8,0.3-3.4,2.3-3.9c1.8-0.5,2.9,0.7,3.3,2.2
		c1.3,5.3,4,4.1,7.1,1.7c1.1-0.8,2.3-2.5,3.8-1c1.4,1.5,0.3,3.1-0.7,4.4C337.4,117.5,334.8,118.7,332.5,118.8z"/>
	<path class="st56" d="M321.7,132.7c-4,0-6.4-1.8-7.8-4.9c-0.5-1.1-0.6-2.2,0.4-3.2c1.2-1.1,2.2-0.3,2.9,0.6c3.1,4,5.8,2.7,8.5-0.4
		c0.9-1,2.1-1.8,3.5-0.9c1.6,1.2,0.9,2.7,0.2,4C327.6,131,324.8,132.6,321.7,132.7z"/>
	<path class="st57" d="M232.4,130.7c0,3,0,6,0.1,9c-0.6-1.3-1.3-2.7-1.9-4c0.4-1.7,0.7-3.4,1.1-5
		C231.9,130.7,232.2,130.7,232.4,130.7z"/>
	<path class="st58" d="M119.5,132.8c0,2,0,4,0,6c0,0-0.4,0-0.4,0s-0.4,0-0.4,0c-0.3-2-0.6-4-0.9-6
		C118.4,132.8,118.9,132.8,119.5,132.8z"/>
	<path class="st0" d="M148.5,87.9c-1.6,0-3.2,0-4.9,0c-2.3-0.1-4.7-0.2-7-0.2c-1.6-1-3.3-0.7-5-0.6c-5.8-1.1-11.7-2.1-17.5-3.3
		c-2.1-0.4-4.1-1.4-6-2.3c-1.3-0.7-2.8-1.7-2.4-3.4c0.5-2.1,2.4-1.3,3.8-1.2c7.7,0.8,15.4,1.8,23.1,2.7c1.3,0.1,2.7,0.1,4,0.2
		c2.7,0,5.4,0.1,8,0.1c1.6,0,3.3,0,4.9,0c7,0.7,13.8-1.4,20.6-2.4c2.7-0.4,6.9-2.1,7.9,1.3c0.9,3.4-3.4,4.3-6.1,5.2
		C164.4,86.3,156.4,87.1,148.5,87.9z"/>
	<path class="st59" d="M188.6,79.8c-1.6-0.1-2.7-1-3.7-2.2c0.6-3.9,3.8-3.9,6.7-4.3c0.8,0.5,1.6,1,2.3,1.5
		C193.9,78.4,190.7,78.6,188.6,79.8z"/>
	<path class="st60" d="M218.6,132.3c-0.2-2.7,0.1-4.5,2.9-4.5c2.1,0,3.1,1.2,2.8,3.2c-0.4,2.6-2.1,4.5-4.6,4.5
		C217.2,135.4,219.4,132.9,218.6,132.3z"/>
	<path class="st61" d="M218.6,120.4c0.4-2.8-1-5.5,1.3-7.2c0.8-0.6,2,0.9,2.4,1.9C223.2,117.8,222,119.4,218.6,120.4z"/>
	<path class="st62" d="M261.7,120.3c0-3.4,0-5.7,0-8c0-1.1-0.5-2.6,1.3-2.6c1.3-0.1,2.2,0.9,2.5,2.1
		C266.3,115,265.6,117.8,261.7,120.3z"/>
	<path class="st63" d="M243.6,114.7c0,2.6,0,5.2,0,7.8c0,1-0.1,2.1-1.6,1.8c-1.2-0.2-1.6-1.1-1.4-2.2c0.6-2.5,1.3-5,2-7.4
		C242.9,114.7,243.3,114.7,243.6,114.7z"/>
</g>
</svg>
