<?xml version="1.0" encoding="utf-8"?>
<!-- Generator: Adobe Illustrator 26.2.0, SVG Export Plug-In . SVG Version: 6.00 Build 0)  -->
<svg version="1.1" id="Layer_1" xmlns="http://www.w3.org/2000/svg" xmlns:xlink="http://www.w3.org/1999/xlink" x="0px" y="0px"
	 viewBox="0 0 440.3 219.8" style="enable-background:new 0 0 440.3 219.8;" xml:space="preserve">
<style type="text/css">
	.st0{fill:#508977;}
	.st1{fill:#A2DFD4;}
	.st2{fill:#D8818F;}
	.st3{fill:#FEFEFE;}
	.st4{fill:#69CBEC;}
	.st5{fill:#FDFEFE;}
	.st6{fill:#FDFDFD;}
	.st7{fill:#D6818F;}
	.st8{fill:#F7FAF9;}
	.st9{fill:#F6F9F8;}
	.st10{fill:#F6F8F8;}
	.st11{fill:#F4F7F6;}
	.st12{fill:#D3818F;}
	.st13{fill:#F0F5F3;}
	.st14{fill:#F1F5F4;}
	.st15{fill:#EBF1EF;}
	.st16{fill:#F8FAFA;}
	.st17{fill:#6BCBE7;}
	.st18{fill:#5DAEB8;}
	.st19{fill:#FEACBA;}
	.st20{fill:#528A77;}
	.st21{fill:#538A78;}
	.st22{fill:#548A78;}
	.st23{fill:#558A78;}
	.st24{fill:#568A78;}
	.st25{fill:#F3AAB5;}
	.st26{fill:#F9AAB7;}
	.st27{fill:#F6A8B5;}
	.st28{fill:#F8ABB8;}
	.st29{fill:#F3AAB6;}
	.st30{fill:#F3A7B4;}
	.st31{fill:#F0A7B3;}
	.st32{fill:#F4AAB6;}
	.st33{fill:#F5AAB6;}
	.st34{fill:#63887A;}
	.st35{fill:#F1AAB5;}
	.st36{fill:#5E8979;}
	.st37{fill:#F1A9B4;}
	.st38{fill:#D88190;}
	.st39{fill:#518A77;}
	.st40{fill:#538977;}
	.st41{fill:#528977;}
	.st42{fill:#5D8C7B;}
	.st43{fill:#B4868B;}
	.st44{fill:#D88391;}
	.st45{fill:#E1A4AD;}
	.st46{fill:#D28390;}
	.st47{fill:#ECA3AE;}
	.st48{fill:#CC828D;}
	.st49{fill:#C8828D;}
	.st50{fill:#C8828C;}
	.st51{fill:#F9ABB8;}
	.st52{fill:#E9A5AF;}
	.st53{fill:#D48290;}
	.st54{fill:#D0838F;}
	.st55{fill:#F6ABB7;}
	.st56{fill:#C7858F;}
	.st57{fill:#E7A8B1;}
	.st58{fill:#D68290;}
	.st59{fill:#D78593;}
	.st60{fill:#F5AAB7;}
	.st61{fill:#D4818F;}
	.st62{fill:#D5818F;}
	.st63{fill:#F2AAB5;}
	.st64{fill:#E2A6AF;}
	.st65{fill:#EFA8B3;}
	.st66{fill:#C1828C;}
	.st67{fill:#B8848A;}
	.st68{fill:#D78291;}
	.st69{fill:#D98291;}
	.st70{fill:#FCABB9;}
	.st71{fill:#FAA9B7;}
	.st72{fill:#E89FAB;}
	.st73{fill:#DEA4AC;}
	.st74{fill:#D1818E;}
	.st75{fill:#518977;}
	.st76{fill:#C7828C;}
	.st77{fill:#D78290;}
	.st78{fill:#FCACB9;}
	.st79{fill:#F4A9B5;}
	.st80{fill:#E0A6AD;}
	.st81{fill:#D1838F;}
	.st82{fill:#D0818E;}
	.st83{fill:#F7A5B3;}
	.st84{fill:#D98190;}
</style>
<g>
	<path class="st0" d="M1.6,115.5c0-22.3,0-44.6,0-66.9c0-0.3,0.1-0.7,0.1-1C1,39,1,39.1,9.8,39c9.8-0.1,19.7-0.1,29.4,0.9
		c2.7,0.3,4.3-0.4,5.3-3.1c1-2.4,2.5-4.7,4-6.9c3.9-5.6,9.3-7.9,16-6.6c11.5,2.3,21.5,7.8,31.2,14.1c2.3,1.5,4.4,2.2,7.3,1.8
		c4.6-0.7,9.3-0.4,14-0.4c56.1,0.3,112.3,0.6,168.4,1c3.3,0,5.2-0.3,6.4-4.1c1.9-6.2,5.6-11.7,9.8-16.7c5.9-6.9,13.3-10.4,22.4-9.9
		c2.3,0.1,4.1-0.4,5.9-1.9c7.8-6,16.5-7.4,25.9-4.5c1.7,0.5,3.2,0.9,5.2,0c11.7-5.3,22.8-3,31.7,6.5c1.9,2,3.8,3.2,6.6,3.9
		c12,2.7,23.4,12.8,23.3,25.8c0,1.8,1.2,2.6,2.3,3.6c8.2,8,11.5,17.3,7.8,28.5c-0.6,1.8-0.9,3.2,0.3,5.1c5.3,7.9,5,16.4,1.1,24.7
		c-1.2,2.5-1.5,4.2,0.4,6.6c3.5,4.5,4.2,9.8,1.8,15.1c-1.5,3.3-1.4,5.7,0.8,8.9c4.6,6.6,3.1,13.7-0.3,20.3c-1.2,2.3-1.2,4-0.1,6.4
		c3.9,8.8,2.5,17.3-3.1,25c-6.9,9.6-16.4,15.5-27.7,18.5c-5.4,1.4-10.9,3.1-16.6,3.1c-0.8,0-2,0.1-2.3,0.6
		c-3.7,5.3-8.6,3.7-13.6,2.5c-7.6-1.8-15.2-3.8-22.1-7.6c-2.4-1.4-4.1-1.1-6.3,0.2c-15.6,8.4-31.9,15-49.6,17.4
		c-30.5,4.2-60.4,1.6-89.8-7.5c-17.5-5.4-34.8-11.2-51.2-19.5c-2-1-3.8-1.6-6.1-0.6c-1.6,0.7-3.6,0.5-5.4,0.5
		c-41.5-0.3-82.9-0.7-124.4-1.1c-4,0-8-0.6-11.9-1c-6.1-0.6-6.8-1.3-6.8-7.3c0-22,0-44,0-65.9C0.5,115.5,1,115.5,1.6,115.5z"/>
	<path class="st1" d="M355.9,143.7c6.2,0.6,11.9,2.8,17.3,5.9c2.4,1.4,3.2,3.1,2.3,5.8c-0.4,1.3-0.6,2.6-1,3.8
		c-2.8,8.4-4.1,8.8-12,5.6c-11.2-4.6-23.1-6.1-34.9-7.8c-2.1-0.3-5-0.5-5.4,2.2c-0.4,2.8,2.6,3.1,4.5,3.6c9.6,2.6,19.3,4.9,28.9,7.5
		c7.2,2,7.2,2.6,3.3,8.9c-3.7,6.1-10.1,8.6-15.8,11.7c-28.7,15.8-59.4,21.3-92,18.1c-41.2-4-78.9-18-114.1-39
		c-20.9-12.4-40.9-26.1-58.8-42.8c-19.4-18.1-30.4-39.6-28.4-66.8c0.1-1.8,0-3.3,2.6-2.8c1.2,0.2,2.1-0.8,2.7-1.8
		c1.7-1,3.5-2.6,5.3-0.1c1,3,3.7,4.2,6.1,5.5c18.3,10.4,34.5,23.8,51.9,35.4c1.8,1.2,2,3.1,2.2,4.7c0.9,6.4,1.6,12.9,2.1,19.3
		c0.5,7.2,2.4,9.1,9.2,11.9c14.4,5.9,29.9,7.7,44.7,12c19.3,5.5,37.4,13.9,54.4,24.5c17,10.5,33.7,8.5,46.9-6.5
		c1.5-1.7,2.8-1.8,4.8-1.4c5.5,1.2,11,2.3,16.6,3.3c1.3,0.2,2.7,0.3,4,0.2c2.1-0.1,4.2-0.6,4.4-3.1c0.2-2.3-2-3.1-3.7-3.4
		c-5.7-1.1-11.3-2.6-16.9-4.3c-7.3-2.2-8.3-3.5-7.3-11c1.3-9.8,2-10.8,11.8-9.9c16.8,1.6,33.6,4,50.1,7.8
		C346.4,142.4,351.1,143.3,355.9,143.7z"/>
	<path class="st2" d="M108.7,45.9c5.1,0,10.2,0,15.3,0c35.3,0.4,70.6,0.3,105.9,1.4c21,0.6,42-0.1,62.9,0.9
		c21.6,1,43.3,0.4,64.9,0.9c4.6,0.1,9.3,0.6,13.9,0.7c3,0,4.2,1.3,4.2,4.2c0,28.3,0,56.6,0,85.6c-8.5-9.1-17.1-17.3-26.9-24
		c-10.1-7-20.8-13.3-32.6-17c-6.4-2-12-0.5-16.9,4.2c-5.8,5.5-9.6,12.3-12.7,19.5c-0.9,2.1-1.7,3.7-4.3,4c-3.4,0.4-5.7,2.6-7,5.8
		c-2.9,6.9-5.9,13.9-2.9,21.6c0.7,1.9,0.2,3-1,4.4c-8.8,9.8-22.3,12-33.5,4.7c-25.5-16.5-52.9-27.6-83.1-32c-7-1-14.2-2-20.4-6
		c-1.5-1-2.5-1.8-2.6-3.8c-0.3-6.8-1.4-13.5-2.9-20.2c-0.5-2,0.2-2.8,1.9-3.8c11.6-6.8,13.1-18.4,3.7-28
		c-7.3-7.5-14.9-14.7-23.6-20.8C110,47.5,108.8,47,108.7,45.9z"/>
	<path class="st2" d="M136.5,181.6c-10.9,0.1-20.3-0.3-29.7-0.5c-30.8-0.4-61.6-0.3-92.4-0.2c-4.4,0-5.6-1.1-5.5-5.5
		C9,134.6,9.1,93.6,9,52.7c0-3.8,1.1-4.8,4.8-4.7c8.3,0.2,16.6,0,25,0c3.8,0,6.5,3.4,5.4,6.7c-5.1,16.3-3.6,32.1,3.5,47.5
		c7.2,15.6,18.9,27.7,31.5,38.8c16.8,14.8,35.4,27,54.4,38.6C134.2,180,134.7,180.4,136.5,181.6z"/>
	<path class="st3" d="M382,39.6c11.2,1.9,14.7-1.5,17.2-17.7c6.2,2.4,11,5.9,13.7,12.2c1.2,2.8,0.9,4.3-2.5,4.5
		c-4.8,0.4-9,2.3-12.7,5.3c-5.5,4.3-6.9,10.7-3.7,15.9c3.1,5,9.8,6.7,15.9,3.8c2.6-1.2,4.9-2.8,6.6-5.2c1.5-2.1,2.9-4.3,4.5-6.8
		c2.3,2.3,3.2,5,3.7,7.7c1.4,7,0,8.5-7,7.7c-5.6-0.7-11.1,0-15.7,3.6c-3.8,3-6,6.8-4.5,11.8c1.5,4.9,5.2,7.1,10.1,7.6
		c6.1,0.6,11.6-1.2,16.1-5.3c2.8-2.6,3.9-1.6,4.2,1.6c0.2,2,0.2,4-0.1,5.9c-0.9,6.2-1.7,6.6-7.4,4.3c-5.3-2.1-10.6-2.8-15.9,0.1
		c-5.2,2.8-7.8,8.1-6.4,12.8c1.4,4.8,6.3,7.6,12.4,7.1c4.7-0.4,9.3-1.6,13.2-4.3c3.1-2.1,4.1-0.4,4.9,2.1c0.8,2.7,0.4,5.5-1.4,7.5
		c-1.5,1.7-3.3-0.3-4.9-0.7c-5.7-1.4-11.5-2.4-17.1,0.4c-4.2,2.1-6.9,5.2-6.6,10.2c0.3,4.8,3.3,7.6,7.4,9.1
		c6.7,2.4,13.1,0.9,19.1-2.7c1.4-0.8,2.7-1.9,4.1-2.8c2.5,4.1,2.3,9.8-0.1,13.1c-1.4,2-2.7,0.7-3.9,0.2c-4.4-1.6-8.8-3-13.6-1.9
		c-1.1,0.3-2.3,0.5-3.3,1c-5.7,2.4-9.1,7.1-8.5,11.6c0.5,4.3,4.7,7.4,11.2,8.1c5.6,0.6,10.5-1.5,15-4.5c2.4-1.6,3.4-1.2,3.9,1.7
		c0.9,5.3-0.4,9.8-3.7,14c-8.3,10.4-19.9,14-32.2,16.1c-1.4,0.2-2.2-0.1-2.4-1.7c-0.1-0.6-0.4-1.5-0.8-1.7
		c-6.7-3.1-4.6-9.5-4.7-14.3c-0.8-32.9-1-65.9-1.5-98.9c-0.1-9.5-0.5-19-0.9-28.4c-0.1-3-0.2-6-2.1-8.6
		C381.4,40.6,381.5,40.1,382,39.6z"/>
	<path class="st4" d="M60.5,55.8c-1.8,0-3.5,0.1-5.3,0.1c0-2.1-0.8-4-2-5.5c-4.7-5.8-0.2-9.8,2.5-14.2c2.5-4.1,6-4.5,10.4-3.2
		c9.2,2.8,17.5,7.3,25.5,12.4c13.4,8.7,25.8,18.8,37.2,30c2.1,2,3.9,4.1,3.2,7.4c-1.3,6.1-6.4,8.5-11.5,4.8
		c-9.8-6.9-19.1-14.4-29.2-20.9c-7.8-5-15.6-10.2-24.6-13C63.8,52.7,61.6,52.7,60.5,55.8z"/>
	<path class="st4" d="M356.8,135c-15.5-2.9-31-5.5-46.6-7.5c-5.6-0.7-11.1-1.3-17.4-2.1c4-6.5,6.8-13.2,12.7-17.9
		c2.8-2.2,5.4-2.8,8.7-1.5c16.5,6.6,31.5,15.8,44.5,27.9C359,135.9,357.8,135.3,356.8,135z"/>
	<path class="st5" d="M382,39.6c-0.1,0.6-0.2,1.1-0.2,1.7c-1.6-0.4-3.3-0.9-4.9-1.3c-5.4-1.2-10.8-0.4-16.3-0.5
		c-8.3-0.2-16.5,0-24.8-0.1c-1.3,0-3.5,1.3-3.9-1.4c9-6.6,10.6-13.2,5.2-23c-1.1-1.9-0.1-2.3,1.1-2.8c3.5-1.8,7.2-2.4,11.1-2.1
		c2.5,0.2,2.8,1.1,1.6,3.1c-2.1,3.3-3.2,7-3.7,10.8c-0.5,4.3,0.1,8.5,4.1,11c4.1,2.5,8.3,1.8,12.2-0.7c8-5,9.6-15.2,4.1-24.7
		c3.9-2.2,7.7-1,11.4,0.1c2.3,0.6,4.9,1.6,5.8,3.5c1.2,2.5-2.2,3.1-3.4,4.5C375.3,24.9,375.4,34.4,382,39.6z"/>
	<path class="st6" d="M331.9,37.9c1.4,1.7,3.4,1,5.1,1c11.6,0.1,23.1,0,34.7,0.1c1.7,0,3.7-0.7,5.1,1c-24.3,0-48.5-0.1-72.8-0.1
		c-1.5,0-3,0.2-3-2.2c-0.2-8.5,10.4-19.7,19.7-20.3c-1.6,4.9-3.9,9.6-1.8,14.8C321,37,324.4,38.6,331.9,37.9z"/>
	<path class="st7" d="M382.1,197.5c-0.9,2.1-1.7,3.7-4.7,2.8c-6-1.9-12.1-3.2-18.1-4.9c-1.1-0.3-3.4-0.2-2.9-1.9
		c0.6-1.9,2.4-4.4,4.5-3.8c6.9,1.7,13.6,4,20.4,6.1C382.3,196,382.6,196.6,382.1,197.5z"/>
	<path class="st8" d="M355.6,25.1c0.1-2.5,0.8-4.9,2.1-7c0.7-1.2,1.2-3.3,2.9-2.8c1.6,0.4,2.3,2.3,2.2,4c-0.1,3.1-1.1,5.8-3.6,7.8
		c-0.8,0.6-1.7,1.2-2.7,0.7C355.4,27.2,355.7,26,355.6,25.1z"/>
	<path class="st9" d="M419.3,76.3c-2.9,3.4-6.3,5.1-10.5,4.9c-1.1-0.1-2.5,0-2.8-1.4c-0.3-1.3,0.6-2.2,1.6-2.8
		C411.2,74.9,415,74.1,419.3,76.3z"/>
	<path class="st10" d="M412.2,47.3c-1.1,4-3,6.6-6.1,8.1c-1.5,0.8-3.3,1.2-4.5-0.4c-1.3-1.8,0.1-3.2,1.3-4.2
		C405.4,48.9,408.3,47.6,412.2,47.3z"/>
	<path class="st11" d="M332.6,24.2c-0.9,2.5-1.1,5.6-4.4,6c-1.9,0.2-2.2-1.7-1.8-3.3c0.7-2.8,0.9-6.4,4.2-7.1
		C331.9,19.4,332.7,22.3,332.6,24.2z"/>
	<path class="st12" d="M376.5,171c0.7,9.6,0.7,9.6-9.1,8.6C368.3,174.1,374.5,176.2,376.5,171z"/>
	<path class="st13" d="M421,130c-3.4,2.6-6.8,3.1-10.2,2.9c-1.3-0.1-2.9-0.4-3.1-1.9c-0.3-1.7,1.4-2,2.6-2.4
		C413.9,127.5,417.2,128.6,421,130z"/>
	<path class="st14" d="M418.9,104.6c-3.2,2.5-6.3,2.9-9.4,3.1c-1,0.1-2.1-0.1-2.5-1.2c-0.3-1.1,0.5-1.9,1.4-2.4
		C411.7,101.8,415,102.9,418.9,104.6z"/>
	<path class="st15" d="M421.3,156.1c-4.7,2.1-8.2,3.8-12.7,1.6C412.3,153.7,416.1,154.4,421.3,156.1z"/>
	<path class="st16" d="M390.1,21.8c0.3,3.6,0,6.3-1.5,8.8c-0.5,0.9-1.3,1.7-2.4,1c-0.8-0.4-0.9-1.3-0.8-2.2
		C386,26.6,386.5,23.6,390.1,21.8z"/>
	<path class="st17" d="M355.9,143.7c-5,0.5-9.7-0.3-14-2.9C346.7,141.3,351.3,142.2,355.9,143.7z"/>
	<path class="st18" d="M356.8,135c0.8-0.2,1.6-0.2,2-1.1c0.7,0.3,1.8,0.9,1.3,1.5C359.1,136.4,357.8,136,356.8,135z"/>
	<path class="st19" d="M335.7,57.1c14.3-5.7,30.7,4.1,32.3,19c1.2,11.1-0.9,22.2-0.2,33.3c0.2,3.7-2.3,4.7-5.8,3.8
		c-4.9-1.3-9.2-3.7-13.6-6.1c-10.1-5.5-20.1-11.3-31.5-13.5c-18.7-3.5-29.5-1.5-41.6,19.9c-2.3,4.1-4.9,7.3-8.6,10
		c-6.6,4.8-7.2,7.3-4.1,14.8c1.3,3.2,2.2,6.5,1.4,10.1c-1.5,6.2-6.3,9.1-12.6,7.9c-8.8-1.6-16.9-4.8-24.7-8.9
		c-22.8-12.1-47.7-18.4-72.1-26c-2.9-0.9-5.9-0.4-8.9-1.2c-8.1-2.2-10.9-7.5-8.1-15.5c1.4-4,3.1-7.8,5.7-11
		c6.2-7.9,6.1-15.9,2.2-24.7c-3.9-8.8,1.4-16.8,10.9-15.7c8.6,1,17.3-0.2,25.8,1.8c0.6,0.1,1.2,0.5,1.8,0.8
		c-0.6,2.6-2.4,4.1-4.2,5.8c-1.2,0.5-2.4,0.6-3.6,0.3c-1-0.3-1.7-1-2.5-1.6c-3.6-2.6-6.9-1.9-8.9,2.1c-1,1.9-1.4,4-2,6.1
		c-0.8,2.1-0.1,4.4-1.3,6.4c-5.1,3.4-9.6,1.7-10.5-4.2c-0.8-5.7,2.1-9.4,6.7-12.2c-4.2,0.5-7.9,4.8-8.3,9.7
		c-0.4,4.3,2.4,8.3,6.5,9.4c1.4,0.4,3,0.3,4.3,1.3c2.6,6.3-0.5,11.5-3.3,16.8c-1.1,2-2.8,3.7-3.9,5.8c-2.8,5.2-1.3,9.5,4.3,11.5
		c5.8,2,11.4,4.4,17.2,6.5c2.2,0.8,4.4,1.5,6.3,2.9c1.4,1.9,2.3,5.2,5.6,2.1c6.1,0.2,11,3.5,16.4,5.7c10.6,4.4,20.9,9.4,31.4,14.1
		c0.9,0.4,1.8,0.8,2.8,1.2c10.1,3.7,14.8,0.3,14.2-10.3c-0.3-5.4,1.2-10.1,5.3-13.9c3.2-2.9,6.5-5.7,9.8-8.5c0.5-0.1,0.9-0.1,1.4,0
		c1.1,0.2,2.7,1.6,3.2-0.3c0.5-1.8-1.7-1.4-2.7-2c-0.3-0.2-0.5-0.4-0.7-0.6c-1.2-3.3,1.4-4.8,3.2-6.7c1.2-1.7,1-3.8,1.7-5.6
		c4.8-10.1,14.4-11.5,23.9-12.6c10.4-1.2,20.5,1.4,30.7,3.3c4.7,0.9,9.5,1.8,14.4,1.5c3.6-0.2,6.9-1.1,9.9-3.1
		c3.6-2.4,5.7-5.7,5.1-10.1c-0.6-4.5-3.9-6.6-7.9-8.1c-3.8-1.4-8,0-11.7-2.1C335.2,63.2,334.8,60.2,335.7,57.1z"/>
	<path class="st20" d="M179.8,60.9c0.7-2.3,2-4.1,4.2-5.2c0.7,0,1.4,0,2,0c2-0.4,3.9,0.5,5.9,0.1c1.4,0,2.8-0.1,4.1-0.1
		c2.9-0.5,3.7,1.4,4.2,3.6c0.1,4.8,0.4,9.6-0.2,14.4c-0.7,1.6-1.7,3.1-3.6,2.5c-2.7-0.9-2.7-3.4-2.8-5.7c0-1.9,0-3.7,0.3-5.6
		c-0.1-1.1,1.4-2.7-0.4-3.2c-0.9-0.3-1,1.4-1.2,2.3c0,2,0,4.1,0,6.1c-0.4,3.2-0.7,6.6-5.5,4.8c-1.3-1.5-1-3.5-1.5-5.2
		c-0.1-0.4-0.3-0.9-0.3-1.4c-0.3-1.4-0.1-2.7,0-4.1c0,0.1-0.3,0.1-0.3,0.1s0.2,0.2,0.2,0.3c-0.4,2-0.7,4-0.6,6c0,0.8,0,1.6-0.2,2.4
		c-0.5,1.9-0.9,4.2-3.4,4.1c-2.4-0.1-2.9-2.2-3.1-4.2C177.6,68.8,177.1,64.6,179.8,60.9z"/>
	<path class="st21" d="M204.9,55.9c1.7-1,3.3-1.1,4.9,0.2c3-0.1,6-1.4,8.9,0.4c1.6,1.3,2.2,3.1,2.5,5.1c0.1,3.7,0.3,7.5,0.1,11.2
		c-0.2,2.2-0.6,4.6-3.4,4.6c-2.8,0-3.3-2.7-4-4.9c-0.7-2.9,0.4-5.7,0.6-8.5c0-0.4,0.1-1.1-0.4-1.2c-0.5-0.2-0.7,0.5-0.8,0.9
		c-0.2,0.8-0.2,1.6-0.2,2.4c-0.3,2.9-0.9,5.7-1.3,8.6c-0.6,1.6-1.7,2.5-3.4,2c-2.3-0.7-2.7-2.7-2.8-4.8c0-2.1,0.9-4.1,0.9-6.1
		c-0.1-0.9,0.4-1.7,0-2.7c0,1.1-0.3,2-0.3,3c-0.1,2.3-1.1,4.6-1,7c-0.7,2.7-1.3,5.8-5,2.5c-0.7-3.4-0.2-6.9-0.3-10.4
		C200.6,61.3,201,57.6,204.9,55.9z"/>
	<path class="st20" d="M273.9,56.7c2.4-0.5,4.7-0.3,7,0.2c0.2,0.2,0.4,0.4,0.6,0.6c0.7,5.8,1.4,11.7,3,17.3
		c-0.8,1.4-2.2,2.4-3.6,1.8c-3.6-1.3-7.4-0.3-11-1.1c-3.8-2.4-3.2-6.1-3.1-9.7c0.1-0.5,0.2-1.1,0.3-1.6
		C268.7,61.2,269.4,57.2,273.9,56.7z"/>
	<path class="st22" d="M335.7,57.1c1.6,2.8,1.1,5.9,1.4,8.8c1.6,3.7,2.4,7.1-1.9,9.6c-0.6,0.1-1.1,0-1.6-0.3
		c-2.9-2.2-2.9-5.5-2.9-8.7c-0.1-1,0.2-2-0.2-3.2c-1.1,1-1.1,2.2-1.2,3.4c-0.4,2.8-0.6,5.8-3.2,7.7c-0.8,0.3-1.6,0.2-2.4-0.2
		c-2.8-2.8-1.7-6.1-1.1-9.4c0.3-3.1,0.8-6,3.7-7.8C329.4,54.5,332.6,54.4,335.7,57.1z"/>
	<path class="st23" d="M238.8,55.7c2.1-0.9,4.1-1.2,6,0.3c3.2,2.3,3.2,5.8,3.5,9.2c-0.1,3.7,0.9,7.7-2.1,10.9
		c-1.5,0.8-2.8,0.6-4-0.6c-2.2-3.1-0.9-6.5-1.2-9.8c-0.1-1.6,0.5-3.2,0.5-4.8c0.1,1.6-0.7,3.2-0.5,4.8c-0.4,3.2,0.9,6.7-1.2,9.7
		c-2.3,2-3.7,0.7-4.8-1.4c-0.7-2.8-0.3-5.7-0.4-8.5c0-2,0.6-3.8,1-5.7C235.9,57.9,236.3,56,238.8,55.7z"/>
	<path class="st20" d="M309,59c4.2-5.7,5.3-5.9,10.9-2c3.3,2.1,3,5.4,2.8,8.6c-1.1,3-1.7,6.2-4.7,8.1c-2.9,1.7-5.8,1.7-8.5-0.3
		c-2.6-2.3-2.9-5.3-2.9-8.5C306.7,62.7,306.7,60.3,309,59z"/>
	<path class="st22" d="M260.3,56c1.8-0.7,3.7-1.4,5.5,0c3.5,1.5,3.8,3.9,1.8,6.8c-0.9,0.8-1.8,0.5-2.7,0c-1.9-1-2.7,0-3.2,1.6
		c-0.7,3.1-1.5,5.9,3.6,6c3,0,3,2.5-0.1,6.3c-2.2,1.6-4.4,1.2-6.6-0.1c-2-1.5-3.6-3.3-3.9-5.9c-0.2-1.9-0.2-3.7,0.1-5.6
		C256,61.7,256.3,57.7,260.3,56z"/>
	<path class="st20" d="M288.9,57.8c0.3-0.3,0.8-0.7,0.9-1.1c0.4-1.7,0.2-4.3,2.3-4.2c2.4,0.1,1.4,2.8,1.7,4.5
		c3.2,1.2,5.1,2.7,1.6,5.7c-0.8,0.7-1,1.7-1.2,2.7c-0.4,3,0.4,5.9,1.3,8.8c0,1.7-0.6,3-2.4,3c-2.8,0-4.2-2.1-5.1-4.5
		c-0.7-2.4-0.5-4.8-0.6-7.3c0-1.1-0.7-1.8-1.5-2.4c-1.5-1.1-2.2-2.5-1.2-4.2C285.7,57.1,287.2,56.7,288.9,57.8z"/>
	<path class="st24" d="M301,58.8c0.3,0.1,0.6,0.1,1,0c1.1-0.1,1.5,0.6,1.9,1.4c0.3,4.3,1.4,8.5,1.4,12.8c-1.9,4.8-2.9,4.9-6.4,0.7
		c-1.2-2.5-1.4-5.1-1.3-7.8C297.9,63.2,296.9,59.8,301,58.8z"/>
	<path class="st25" d="M238.8,55.7c-1.5,1-1.5,2.7-2,4.2c-1,0.4-1.7-0.2-2.3-0.8c-0.8-1-1.7-1.9-3.1-1.9c-1.5-0.1-2.9,0-4.4,0.4
		c-3.4,1.5-1.3,6-4.3,7.7c-3.6,0.2-1.5-3-2.6-4.4c-0.2-1.6-1-3-2.1-4.2c-0.2-2.5,2.3-0.6,2.9-1.8C226.9,55.3,232.9,54.1,238.8,55.7z
		"/>
	<path class="st26" d="M288.9,57.8c-1.5,0.4-3.7,0-4,2.2c-0.3,2.3,2,1.6,3.2,2.2c1.1,0.6,0.6,1.7,0.5,2.7c-5.4,2.5-7.1,1.5-7.3-4.1
		c0-1.3,0.3-2.6-0.4-3.8c0,0-0.1-0.1-0.1-0.1C283.7,55.8,286.6,54.4,288.9,57.8z"/>
	<path class="st27" d="M301,58.8c-2.4,1.8-1.7,4.6-2.3,7.1c-2.2,1.7-4.1,1.6-5.6-0.9c0-1.1-0.5-2.5,0.9-3c5.1-1.9,1.4-3.4-0.1-5
		c2,0,4,0,6.1,0c0.3-0.3,0.6-0.3,0.9,0.1C300.9,57.6,300.9,58.2,301,58.8z"/>
	<path class="st28" d="M247,64.9c-0.2-3.1-0.9-6.1-2.2-8.9c2-2.3,4.1,0.5,6.1-0.1c0.4,0.4,0.6,0.9,0.7,1.4c-0.3,2.6,0.1,5.4-1.5,7.8
		C249,65.8,248,65.7,247,64.9z"/>
	<path class="st29" d="M303.2,60.1c-0.4-0.4-0.8-0.9-1.2-1.3c2.4-1.3,4.8-1.5,7.1,0.2c-0.4,2-0.9,4-1.3,6c-2.2,2.5-3.7,2.6-4.3-1.1
		C303.3,62.6,303.6,61.3,303.2,60.1z"/>
	<path class="st30" d="M266.8,62.9c1.9-2.6,0.8-4.8-1-6.9c2.8-1.2,5.6-2.4,8.1,0.7c-3,1.6-4.1,4.8-5.9,7.5
		C267.4,64,267,63.5,266.8,62.9z"/>
	<path class="st31" d="M204.9,55.9c-2,2.4-2.7,5.4-3.9,8.1c-3.2-0.7-0.5-3.7-1.9-5.1c-0.3-1.7-1.5-2.7-3-3.3
		C199,54.6,202,54.4,204.9,55.9z"/>
	<path class="st32" d="M251,57.1c0-0.4,0-0.8,0-1.2c3.1,0,6.3,0.1,9.4,0.1c-2.2,2.6-3.2,5.8-4.4,9c-0.4,0.3-0.8,0.3-1.3,0
		C253.3,62.4,253.4,59.1,251,57.1z"/>
	<path class="st33" d="M321.8,65.9c0.2-3.1-0.5-6.1-1.8-9c2.1,0,4.2,0,6.3,0c-1.4,2.5-2.3,5.1-2.6,8
		C323.3,65.9,322.9,66.5,321.8,65.9z"/>
	<path class="st34" d="M300.9,57c-0.3,0-0.6-0.1-0.9-0.1c-0.9-1.4-1.8-2.8-0.1-4.2c0.9-0.8,2-0.5,2.5,0.4
		C303.5,55,302.4,56.1,300.9,57z"/>
	<path class="st35" d="M220.9,55c-1,0.6-1.9,1.2-2.9,1.8c-2.5-2.4-5.7,1.7-8.2-0.8C213.4,53.9,217.2,55.4,220.9,55z"/>
	<path class="st36" d="M253.8,52c0,1.1-0.4,1.9-1.6,1.9c-0.9,0-1.7-0.5-1.7-1.3c-0.1-1.1,0.7-1.8,1.7-2
		C253.2,50.5,253.6,51.2,253.8,52z"/>
	<path class="st37" d="M191.9,55.8c-2,1.8-4,1.2-5.9-0.1C188,54.5,190,54.4,191.9,55.8z"/>
	<path class="st19" d="M74.8,172.8c-12.5-0.1-24.9,0.4-37.4-0.9c-9.3-0.9-16.9-9.4-17.4-20.5c-0.5-10.5,1.6-20.8,2.6-31.2
		c0.5-4.6-0.2-8.9-0.6-13.3c-1-9.9-1.4-19.8-3.5-29.6c-1.2-5.6-2-11.6,3.6-16.1c2.9-2.4,6.3-3,9.8-2.8c4.5,0.3,6.2,3.5,4.8,8.9
		c-1.4,5.5-2.9,10.9-2.7,16.6c0.3,14.4,3.2,28.2,13.1,39.1c14.2,15.7,31.3,28.2,49,39.6c2.8,1.8,6.1,2.7,9,4.2
		c1.5,0.7,3,1.8,2.6,3.8c-0.4,2.2-2.3,2.1-4,2.1C94.1,172.8,84.4,172.8,74.8,172.8z"/>
	<path class="st2" d="M267,112.8c-2.3,3.5-6,5.6-9,8.4c-4.5,4.1-5.6,8.9-5.4,15c0.3,9.4-2.7,13.9-13.9,10.9
		c-9.4-2.6-17.7-8.2-26.8-11.8c-8.6-3.4-16.7-8.1-25.7-10.4c-2.2-3.8-0.8-7.4,0.8-11c2.7-0.7,4.3,1.4,6.2,2.5
		c0.7,0.8,0.8,1.7,1.1,2.6c0.5,1.4,0,3.7,2,3.9c1.6,0.1,1.4-2.3,2.6-3.2c3.9-0.6,6.5,2.5,9.9,3.3c0.6,0.3,1.2,0.7,1.8,1.1
		c1.1,0.8,2.4,1.4,3.7,1.9c4.2,1.5,8.2,3.7,12.5,4.9c8.1,2.2,12.5,0.2,16.4-7.2c3.4-6.5,5.2-13.6,8.3-20.3c1.5-3.3,2.3-7.4,6.5-8.7
		c1.8,1.5,0.6,4.2,2.3,6.1c2.5-3.1,0.5-7.2,2.4-10.3c1.6-1.6,3.2-3,5.6-1.6c1.5,2.2,1.1,4.8,1,7.2c-0.1,3,0.6,5.6,2.6,7.8
		c-2.3,1.3-4.2,2.9-3.9,5.9C268.6,111.2,267.9,112,267,112.8z"/>
	<path class="st38" d="M334,74.8c5.5-1.5,1.9-6,3.1-9c4,0.2,7.9-0.2,11.9,1c4.5,1.3,7.9,4,8.8,8.6c1,4.7-1,8.6-5,11.6
		c-8,6-16.8,3.9-25.4,2.5c-9.8-1.6-19.4-4.2-29.5-3.7c-5.8,0.3-11.1,1.8-16.3,3.9c-3.8,1.6-6.6,4.4-8.3,8.2c-2.7-2.9-1-7.3-3.5-10.3
		c1.1-2.6,3.6-2.8,5.7-3.5c16.3-5.1,32.8-8.5,50-7.7C328.3,76.6,331.5,77.2,334,74.8z"/>
	<path class="st2" d="M179.8,60.9c-0.3,4-0.7,8.1-1,12.1c-1.3,7.9-4,15.2-7.7,22.3c-3.3,6.4-1.6,9.8,5,13.2c2.2,1.1,4.8,1.6,5.8,4.3
		c0.4,3.4,1.4,6.9-1.1,10.1c-8.4-3.1-16.8-6.1-25.1-9.2c-5.5-2.1-7.1-7.7-3.9-13.1c1.5-2.5,3.4-4.9,5-7.4c2.7-4.4,3.6-9.2,3.2-14.3
		c0-1.4,0.8-2.7,0.9-4.1c0.4-2.3-0.8-4.9,1.1-6.9c1.6,0.9,1.8,2.7,2.5,4.1c1,2.4,2.8,3.6,5.4,3.5c2.9-0.1,4.5-1.8,5.3-4.4
		c0.5-1.8,0.5-3.6,0.3-5.4c-0.2-1.6-0.9-3.3,0.4-4.7C177.2,61,178.5,61,179.8,60.9z"/>
	<path class="st39" d="M180.9,122.9c0-3.7-0.1-7.4-0.1-11.2c-0.8-1.5-1.3-3-1.3-4.7c0.2-5.8,0.7-11.5,1.5-17.3
		c0.6-4.6,2.8-5.4,6.7-3.2c1.6,5.5,0.8,11.1,0.6,16.7c0.1,1.3-1.6,2.9,0.2,3.9c1,0.6,2.1-0.4,2.7-1.6c0.9-4.3,0-8.6,0.6-12.8
		c0.4-2.9-0.1-7.3,4.1-7.2c3.9,0,4,4.1,4.5,7.2c0.1,0.3,0,0.7,0.1,1c0.1,1.7,0.1,3.5,0,5.2c-0.1,5.6-2,11.2-0.5,16.9
		c0.2,1.5,0.3,2.9-0.9,4.1c-0.1,0.7,0,1.3-0.2,1.9c-0.5,1.5-0.7,3.6-2.8,3.5c-2.1,0-2.1-2.3-2.5-3.7c-0.5-1.5-0.5-3.2-0.7-4.8
		c-0.6-2.5-3.1-2-4.7-2.8c-2.2,3.4-1.2,7.3-1.8,10.9c-0.6,1.3-1,3.1-2.8,2.7C181,127.1,181.4,124.7,180.9,122.9z"/>
	<path class="st40" d="M175.9,61c0.7,3.4,1.7,6.8,0.7,10.3c-1,3.5-2.8,5.8-6.9,5.8c-4-0.1-6.1-2-6.9-5.7c-0.2-1.1-0.6-2.3-0.8-3.4
		c0.3-1.5,0.5-2.9,0.9-4.4c0.9-3.1,2.7-5.2,6-6.1C172.3,56.6,174.1,58.8,175.9,61z"/>
	<path class="st22" d="M160.9,74.8c2.1,1.9,0.5,3-0.9,4.1c-7,0.4-10.7-2.2-11.8-8.4c-0.9-5,3.5-12.8,8.1-14.2c1.9-0.6,4-0.6,4.6,1.5
		c0.6,2.3-1.6,1.8-2.9,2.2c-5.1,1.6-7.5,9.3-4.5,13.6C155.6,76.8,158.2,75.8,160.9,74.8z"/>
	<path class="st41" d="M270,87.7c2.8,0.5,3,2.6,3,4.8c0,1.8,0.1,3.6,0.2,5.4c-0.3,2.1,0,4.2-1.3,6c-2.9,0.4-3.9-1.3-3.9-3.7
		c-0.1-3.8,0-7.5,0-11.3C268.3,88,268.9,87.4,270,87.7z"/>
	<path class="st42" d="M267,112.8c0.3-1,0.6-2,0.9-3c1.9-0.6,3.9-1.1,4.9,1.3c0.5,1.1,0.1,2.3-1,3
		C269.7,115.8,268.3,114.5,267,112.8z"/>
	<path class="st19" d="M270,87.7c-0.7,0.4-1.4,0.8-2,1.2c-1.6,0.7-3.2,1.3-4.8,2c-3.6-1.1-3.6,2.8-5.4,4c-5.4,7-7.5,15.5-10.7,23.5
		c-6.2,15.6-12.7,18.3-28.1,11.1c-1.9-0.9-4-1.7-5.9-2.6c-0.5-1.1,0.1-1.9,0.7-2.6c2.8-1.5,3.5-5.3,6.8-6.1c2.7,0.1,5.5,0.5,8.2,0.7
		c0.8,0.1,1.6,0.4,2.4,0.6c5.9,1.7,8.9,0.9,11.8-3.1c2.5-3.5,2.4-7.3-1.1-11.7c-2.4-3-0.5-5.6,0.2-8.4c1.4-8.2-0.4-11-8.3-12.9
		c-9-2.2-18.2-1.5-27.3-2.9c-2-0.3-3.9-0.7-5.9-0.9c-4.6-0.4-8.7,0.2-10.7,5.2c-0.5,1.2-1.1,2.5-2.9,2.3c-4.4-3.2-4.4,1.1-4.6,3.2
		c-0.8,7.2-1.1,14.4-1.6,21.6c-0.9-0.3-1.9-0.7-2.8-1c-10.2-3.9-12.2-9.4-6.7-18.7c2.9-4.8,4.4-10,5.6-15.3c0.3-1.5,0.3-3,2-3.7
		c0.3,1.4-0.1,3.5,1.9,3.4c1.9-0.1,1.8-2,2.1-3.5c0.2-1,0.2-2,0.3-3c0.7-0.9,1.4-1.8,2.8-1.1l0,0c1.1,1.5-0.1,3.4,0.9,4.9
		c3.6,1.4,3.8,1.3,4.3-3.9c1.2-1.1,2.5-1.1,3.7,0c0.1,1.1,0,2.3,0.2,3.4c0.8,3.3,2.2,3.4,4,0.5c1.1-0.6,1.4,0.4,1.9,1
		c4.4,2.6,2.6-1.6,3.3-3c0.6-1.2,1.3-2.1,2.7-0.9c0.4,1.6-0.6,3.8,1.6,4.7c1.6,0.6,2.4-0.4,2.7-1.9c0.6-2.1,1.4-3.6,3.9-2
		c0.2,0.5,0.4,0.9,0.5,1.4c0.5,1.3,0.4,3.3,2.3,3.4c2.4,0.1,2-2.1,2.3-3.7c0.9-1.1,2.1-1.1,3.3-0.8c2.9,3.8,6.3,2.6,9.7,0.8
		c1-0.1,1.9,0.1,2.6,1c0.8,1.3,1.7,2.6,3.4,1c1.2-1,2.4-1.1,3.6,0c0.8,1,2,1.1,3.1,0.8c4.4-2.1,8.7-1.9,13.1,0.2
		c2,0.6,4.1,1.3,6.1,0c1.5-1.1,3-2.4,5.1-1.1c4.7-1.8,9.3,1.3,14,0.1c0.7-2.9,2.3-3.7,4.9-2c1,1,1.9,2.3,3,3c2,1.2,3.1,0.4,2.8-2
		c1.1-3.1,3-2.1,4.9-0.9c0.9,1.2,1.3,3.1,3.3,2.8c1.5-0.3,0.9-1.8,1.2-2.7c1.9-1.9,3.9-1.2,5.9-0.2c2.6,1.4,5.1,1.2,7.7,0
		c2.3-0.7,4.4-0.4,6.3,0.9c0.6,0,1.2,0.1,1.8,0.1c3-2.1,5.6-1,8,0.9c0,0,0,0,0,0c1.2,4-1.8,3-3.7,3.1c-8.4,0.3-16.9-0.4-25.3,0.9
		C292.9,80.6,281.3,83.4,270,87.7z"/>
	<path class="st43" d="M200.9,74.9c-0.6-0.3-1.2-0.7-1.9-1c0-5,0-10,0.1-15c1.7,1.3-0.1,3.9,1.9,5.1
		C200.9,67.6,200.9,71.3,200.9,74.9z"/>
	<path class="st44" d="M194.8,70c-1.2,0-2.5,0-3.7,0c0-2.3,0-4.6,0-6.9c1.6-0.6,2.9-0.3,3.9,1C195,66,194.9,68,194.8,70z"/>
	<path class="st45" d="M195.1,64c-1.4,0.1-2.7-0.2-3.9-1c0.2-2.1,0.9-4.3,3.3-3.5C196.3,60.1,196.1,62.3,195.1,64z"/>
	<path class="st46" d="M186,68.9c-0.9,0.4-1.9,0.7-2.8,1.1c-0.5-2.5,0.7-4.8,0.8-7.1c0.6-0.5,1.3-0.5,1.9,0
		C185.9,64.9,185.9,66.9,186,68.9z"/>
	<path class="st47" d="M185.9,62.9c-0.6,0-1.3,0-1.9,0c0-1-0.7-2.6,0.9-2.6C186.4,60.3,185.9,61.9,185.9,62.9z"/>
	<path class="st46" d="M186.8,73.9c-1.5-1.4-0.7-3.3-0.9-4.9C187.4,70.4,186.6,72.2,186.8,73.9z"/>
	<path class="st48" d="M215,71.9c-1.8-0.3-2.9,0.6-3.9,2c-0.5-3.1,0.8-6,0.9-9c1.1-0.9,2-2.2,3.7-1.9C215.5,66,215.2,68.9,215,71.9z
		"/>
	<path class="st49" d="M223.7,73c-1.2,0-2.3,0-3.5,0c0-4,0-8,0-12c1.4,0.9-0.1,3.9,2.7,3.9C224.7,67.4,225,70.1,223.7,73z"/>
	<path class="st50" d="M206.9,71c-0.9,0.3-1.8,0.6-2.7,0.9c0.3-2.4,0.7-4.7,1-7.1c0.8-0.7,1.7-0.7,2.5,0C208.2,67,207.3,69,206.9,71
		z"/>
	<path class="st51" d="M215.8,63c-0.9,1.3-2,2.3-3.7,1.9c0-1.9-0.2-4.3,2.3-4.7C216.2,59.8,215.8,61.8,215.8,63z"/>
	<path class="st52" d="M207.7,64.8c-0.9,0-1.7,0-2.6,0c0.3-1.8,0.4-3.8,2.1-5.3C208.3,61.4,207.9,63.1,207.7,64.8z"/>
	<path class="st53" d="M289,72.9c-2-0.1-3.8,0.1-4.9,2c-4.1-5.4-2.8-11.8-3.1-17.9c0.3,0.7,1,1.5,0.9,2.1c-1,5.9,2.3,6.5,6.8,5.8
		C288.8,67.6,288.9,70.2,289,72.9z"/>
	<path class="st54" d="M270.1,74.8c-1.7,0.4-3.4,0.7-5.1,1.1c0.7-1.4,2.7-2.6,1.6-4.3c-1.2-1.8-2.5,0.3-3.8,0.6
		c-1.7,0.4-2.4-1-2.6-2.2c-0.4-2-0.8-4.2,0.6-6.1c2.5-0.5,4.9-0.7,7.1,1C267.9,68.4,267,72,270.1,74.8z"/>
	<path class="st55" d="M267.9,65c-2.4-0.3-5,1-7.1-1c1-6.4,3.7-2.6,6-1c0.4,0.4,0.8,0.8,1.2,1.3C268.1,64.4,268,64.7,267.9,65z"/>
	<path class="st56" d="M276,65.9c-0.1,0.8,0,1.7-0.3,2.4c-0.5,1-1.1,2.3-2.5,1.9c-1.4-0.4-1.2-1.8-0.9-3c0.2-0.8,0.5-1.6,0.8-2.4
		C274.3,64.4,275.2,65,276,65.9z"/>
	<path class="st57" d="M276,65.9c-1-0.3-1.9-0.6-2.9-1c0.7-1.8,1.1-3.7,3.3-4.5C277.4,62.4,276.7,64.1,276,65.9z"/>
	<path class="st58" d="M334,74.9c-2.6-0.6-5.3-1.1-8-0.9c1.5-2.5,1.7-5.3,2.2-8c1.3-1.1,2.6-0.9,3.8,0.1
		C332,69.1,331.8,72.2,334,74.9z"/>
	<path class="st59" d="M324.1,73.8c-2.2,0.2-4.4,0.3-6.3-0.9c1.8-2,2.9-4.5,4-6.9c0.6-0.3,1.2-0.6,1.8-0.9
		C323.2,67.9,322.5,70.9,324.1,73.8z"/>
	<path class="st60" d="M331.9,66c-1.3,0-2.5-0.1-3.8-0.1c0-0.2-0.1-0.3,0-0.5c0.6-1.9,0.4-5.3,2.8-4.9C333.3,60.9,331.8,64,331.9,66
		z"/>
	<path class="st61" d="M258.9,76c-4.4-0.1-8.7-0.1-13.1-0.2c1.7-3.5,0.8-7.3,1.2-10.9c0.9,0,1.8,0,2.8,0c1.6,1.1,1.2,2.9,1.5,4.4
		c0.4,2.2,1.4,2.8,3.3,1.5c0.4-0.2,0.9-0.1,1.2,0.2C256.1,73.1,258,74.2,258.9,76z"/>
	<path class="st62" d="M242.7,75c-1.2,0-2.4,0-3.6,0c1.3-3.3,0.4-6.8,1.1-10.1c0.6-0.5,1.2-0.5,1.8,0.1
		C242.2,68.3,241.6,71.7,242.7,75z"/>
	<path class="st61" d="M235.7,74c-1-0.1-2-0.2-3-0.3c-1-1.9,0.1-3.7,0.4-5.5c0.4-1.1,0.7-2.2,1.4-3.2c0.4-0.3,0.8-0.4,1.3-0.2
		C235.8,67.9,235.7,71,235.7,74z"/>
	<path class="st63" d="M235.8,64.9l-0.3,0l-0.3,0c-0.8-0.5-1.1-1.3-1.2-2.1c-0.1-1.4-0.1-2.9,1.3-3.8c0.5,0.3,1.1,0.6,1.6,1
		C236.4,61.6,236.1,63.2,235.8,64.9z"/>
	<path class="st64" d="M242,65c-0.6,0-1.2-0.1-1.8-0.1c0.3-1.7,0.5-3.4,0.9-5.8C242.5,61.5,242.1,63.3,242,65z"/>
	<path class="st7" d="M310,72.8c-2,0.1-3.9,0.1-5.9,0.2c-0.5-4.3-1.7-8.6-1-13c0.9,0.9,0.7,2.1,0.7,3.2c0,3.3,1.8,2.8,3.8,1.7
		C307.7,67.8,308.4,70.5,310,72.8z"/>
	<path class="st65" d="M312.6,62.8c0.6-1.5,0.6-4.3,3-3.2c3.4,1.5,1.7,4.2,0.5,6.5C312.8,67.4,312.1,65.8,312.6,62.8z"/>
	<path class="st66" d="M312.6,62.8c0,2.3,1.2,3.4,3.5,3.3c-0.3,1.5-0.6,4.2-2.5,3.2C311.3,68.1,311.3,65.3,312.6,62.8z"/>
	<path class="st67" d="M255.8,71c-0.3,0-0.6,0-0.8,0c-1.7-1.9-1.7-3.9-0.1-5.9c0.4,0,0.7,0,1.1,0C255.9,67,255.9,69,255.8,71z"/>
	<path class="st68" d="M299.6,73c-1.7,0.1-3.5-0.7-4.9,0.9c-2.5-2.6-1.8-5.9-1.7-9c1.7,1.2,3.7,1,5.6,0.9
		C299,68.2,299.3,70.6,299.6,73z"/>
	<path class="st20" d="M235.1,58.9c-0.1,1.4-0.2,2.7-0.4,4.1c-0.8,1.6,0.2,3.5-0.8,5.1c0.3,2.1-0.7,3.8-1.3,5.7
		c-4.7,3.9-5.9,3.8-9.1-0.7c-1-2.6-0.6-5.4-0.8-8.2c0.4-2.3,0.9-4.5,1.1-6.8c0.3-2.8,1.6-1.6,2.9-1c2,1.9,1.3,4.5,1.5,6.8
		c0,1.5-0.3,2.9,0.2,5c1.1-1.8,1.1-3.3,1.1-4.9c0.1-2.9-0.3-6,2.5-8C234.1,55.9,234.8,57.2,235.1,58.9z"/>
	<path class="st33" d="M232,56c-1.1,2.8-1,5.9-1.4,8.8c-1.2,1.2-2.3,1.2-3.5,0c-0.1-2.6-0.2-5.2-0.3-7.7
		C228.3,55.2,230.3,56.2,232,56z"/>
	<path class="st24" d="M254.8,65c0,2,0.1,4,0.1,5.9c-0.3,1.5-0.7,3.1-2.7,2.9c-1.6-0.2-2-1.7-2.2-3c-0.3-2-0.2-4-0.3-5.9
		c0.5-2.6-0.3-5.4,1.2-7.8C256.7,57.5,253.8,62.3,254.8,65z"/>
	<path class="st38" d="M30,148.5c1.5-6.1,0-12.9-0.9-19.7c-0.3-2.1-0.3-4.3,0.1-6.5c0.3-2.2,1.3-4.5,3.6-4.9
		c2.3-0.5,3.4,1.7,4.4,3.4c8.9,14,20.6,25.2,34.3,34.5c0.4,0.3,0.8,0.6,1.2,0.9c2.7,2,7,3.5,6,7.6c-1.2,4.9-6.5,4.1-9.7,3.9
		c-9.7-0.7-19.5-1.3-28.8-4.7C32.9,160.1,30,156.3,30,148.5z"/>
	<path class="st69" d="M25,74.5c0.3-2.1-1-4.7,1.6-6.2c0.9-0.5,1.9-0.2,2.8,0.5c2.3,1.9,2.1,4.5,1.2,6.9c-0.9,2.3,0.4,6.7-3.1,6.3
		C24.4,81.6,25.2,77.4,25,74.5z"/>
	<path class="st39" d="M219.8,118.8c-1.8,2.3-2.8,5.3-5.9,6.3c-1.4,0.4-2.8,0.6-4.1-0.3c-0.3-0.3-0.6-0.6-0.9-0.9
		c-3.7-2.8-3.9-7-4.5-11.1c-1.1-3.9-1.1-7.8-0.8-11.8c0.5-2.8,0.9-5.7,0.9-8.6c0-1.3,0.2-2.6,0.8-3.8c0.8-1.6,2-2.6,3.9-2.4
		c2.1,0.3,2.6,1.8,2.9,3.5c0.3,1.6,0,3.3,0.2,4.9c0.1,2.6,0,5.3,0,7.9c-0.1,4,0,8,0.7,12c0,0.3,0,0.7,0.1,1c0.2,0.6-0.3,1.4,0.2,2
		c0.1-0.6,0.3-1.3,0.5-1.9c1.2-4,2-8,1.7-12.1c-0.1-2.9-0.2-5.8,0.4-8.6c0.4-1.3,0.5-2.6,0.8-3.9c0.5-2.1,1.5-3.8,3.9-3.6
		c2.4,0.2,3.3,2,3.5,4.1c0.4,3.3,0.1,6.6,0.2,9.9c0.1,1.2,0,2.3,0,3.5C223.5,109.7,223.6,114.9,219.8,118.8z"/>
	<path class="st70" d="M205.6,113c0.4,3.8,1.8,7.4,3.3,10.9c-3.8,0-6.6-2.7-10-4c-0.1-1.3-0.1-2.7-0.2-4c-0.2-1.9-1.4-4.3,0.9-5.3
		C202,109.6,204.2,110.9,205.6,113z"/>
	<path class="st20" d="M257.7,94.9c0.6-2.1-0.2-4.8,2.4-5.8c1.4-0.6,2.3,0.6,3,1.8c-0.3,3.3,0.4,6.6-0.9,9.8c-0.4,1-0.5,2.6-1.9,2.5
		c-1.5-0.1-2.1-1.5-2.3-2.9C257.8,98.5,257.8,96.7,257.7,94.9z"/>
	<path class="st34" d="M261.9,111.5c-0.2,1.2-0.9,2.2-2.3,2.1c-1.3-0.2-2.7-0.8-2.4-2.5c0.2-1.5,1.2-2.3,2.8-2
		C261.3,109.2,261.9,110.1,261.9,111.5z"/>
	<path class="st71" d="M188,114c2.5-0.7,5.7-2.4,4.7,2.8C190.8,116.5,189,115.8,188,114z"/>
	<path class="st72" d="M209.9,124.8c1.4,0.1,2.7,0.2,4.1,0.3c-0.3,0.6-0.6,1.1-0.9,1.7C211.8,126.3,210.6,126,209.9,124.8z"/>
	<path class="st2" d="M211.2,94.8c0-1.5-0.1-2.9-0.1-4.4c-0.1-1.4,0.1-3.2-1.9-3.5c-2.2-0.3-2.7,1.5-3.1,3c-0.2,0.9-0.3,1.9-0.4,2.9
		c-2.1,1.6-4.4,1.8-6.8,0.9c-0.5-2.8,0.2-7.5-3-7.4c-3.8,0.1-2.4,4.9-2.9,7.7c-0.8,4.5,0.8,9.2-1.1,13.6c-1.9-0.8-4.4-0.4-5.2-3
		c0.1-5.9,0.1-11.9,0.2-17.8c0.6-1,1.5-1.9,1.8-2.9c1-4.6,4.5-6.5,8.5-6c12.6,1.6,25.5,1.3,37.9,4.1c8.2,1.9,10.7,7,7.8,14.7
		c-1.7-1.1-1.9-3-2.4-4.7c-0.7-1.9-1.8-3.5-3.4-4.7c-2.9-2.1-5.6-1.2-6.8,2.4c-0.6,1.7-0.7,3.6-1.9,5c-1.8,0.7-3.1,1.6-3.2,3.9
		c0,1.2,0.1,2.8-1.9,2.9c-0.1-3.3-0.1-6.5-0.2-9.8c-0.1-1.8-0.2-4-2.6-3.9c-2.1,0-2.3,2-2.5,3.6c-0.1,1.1-0.5,2.2-0.7,3.3
		C215.2,94,213.2,94.8,211.2,94.8z"/>
	<path class="st62" d="M205.6,113c-0.5-0.1-1-0.2-1.4-0.4c-3.8-2.1-5.9-1.4-5.5,3.4c-1.7-5.7-0.1-11.4,0.2-17.1
		c2.7-1.6,4.5-0.2,5.9,2C205.2,104.9,205.4,109,205.6,113z"/>
	<path class="st51" d="M204.9,100.8c-1.9-0.8-3.7-2.1-5.9-2c0-1.7,0-3.3-0.1-5c2.1-1.3,4.5-1,6.8-0.9
		C206,95.6,205.7,98.3,204.9,100.8z"/>
	<path class="st73" d="M186.8,104.8c1.7,1,3.4,2,5.2,3C189.6,107.9,184.8,112.1,186.8,104.8z"/>
	<path class="st74" d="M166,68.8c0.2-3.5,1.3-6.7,4.5-7.1c1.9-0.3,2.4,2.9,2.3,4.9c-0.1,2.7,0.3,6.1-3.6,6.6
		C165.9,73.5,166.8,70.4,166,68.8z"/>
	<path class="st75" d="M228,94.9c0.1-0.8,0.2-1.6,0.3-2.5c0.5-3.5,0.8-7.3,5.6-7.4c4.7-0.1,6.5,3.4,7.9,7.1c0.6,1.5,0.7,3.2,1.1,4.9
		c-1.2,3.3-1.5,6,1.7,9c2.9,2.8,2,7.2-0.1,10.7c-2.1,3.4-5.1,5.8-9.4,5.1c-2.1-0.3-4.3-0.4-6.1-1.9c-3.1-2.6-2.4-6.2-2.5-9.6
		c-0.1-2.1-0.1-4.3,0-6.4C226.6,100.8,225.7,97.6,228,94.9z"/>
	<path class="st7" d="M227.8,103.8c0.6,5.3-0.6,10.8,1.2,16.1c-3.1,0.3-6.2-0.1-9.1-1.1c1.1-4.7,2.2-9.3,3.3-14
		C224.4,103.4,225.8,102.5,227.8,103.8z"/>
	<path class="st23" d="M234,68.1c0.1-1.7-0.7-3.6,0.8-5.1c0.1,0.6,0.2,1.3,0.3,1.9C234.8,66,235,67.3,234,68.1z"/>
	<path class="st76" d="M227.2,64.8c1.2,0,2.3,0,3.5,0c0,2.6,0.1,6.6-2.5,6.4C225.8,71.1,227.2,67.1,227.2,64.8z"/>
	<path class="st19" d="M56.3,160.9c-10-0.1-19.7-6.4-21.8-14c-1-3.7-0.7-7.2,2.7-9.3c3.5-2.1,6.4,0.2,8.7,2.7
		c1.5,1.7,2.8,3.7,4.1,5.5c2.2,3.1,4.3,6.2,8.1,7.7c2.1,0.8,4.8,2.1,4.4,4.7C61.9,161.3,58.8,160.9,56.3,160.9z"/>
	<path class="st77" d="M212,115.9c-1.1-4.3-1.5-8.6-1-13.1c2.2-1.2,4.1-0.3,5.8,1.1c0.4,4.5-0.6,8.8-2.2,13
		C213.6,117.4,212.8,116.7,212,115.9z"/>
	<path class="st78" d="M216.9,103.9c-2.1,0.3-3.9-0.6-5.8-1.1c0-2.7,0.1-5.4,0.1-8c2-2.3,4.1-3.6,5.9,0.2
		C217.1,98,217,100.9,216.9,103.9z"/>
	<path class="st79" d="M227.8,103.8c-1.5,0.3-3.1,0.7-4.6,1c0-1,0-2,0-3c1.1-1.3,0.8-2.9,0.7-4.3c-0.2-3.5,1.2-4.2,4.1-2.6
		C227.9,97.9,227.8,100.8,227.8,103.8z"/>
	<path class="st80" d="M212,115.9c0.9,0.3,1.8,0.6,2.7,1c-0.3,0.9-0.5,2.4-1.5,2.2C211.6,118.8,212.1,117.2,212,115.9z"/>
	<path class="st81" d="M237,114.7c-1.7,0.4-3.1,0.2-3-1.9c0-1.8-0.9-4.1,0.6-5.2c1.7-1.2,3.7-0.1,5.2,1.4
		C239.7,111.4,238.2,113,237,114.7z"/>
	<path class="st82" d="M234.1,101.2c0-3.9,0-6.7,0-10.4C237.3,94.3,238.1,97.1,234.1,101.2z"/>
	<path class="st83" d="M237,114.7c0.4-2.2,1.4-4.1,2.8-5.7C241.7,112.4,239.3,113.5,237,114.7z"/>
	<path class="st84" d="M42.4,144.9c2.3,0,7.6,5.5,7.5,7.5c0,0.9-0.4,1.7-1.2,2c-2.9,1.1-4.6-1.2-6.4-2.7c-1.7-1.5-2.9-3.2-2.1-5.7
		C40.7,144.8,41.8,144.9,42.4,144.9z"/>
</g>
</svg>
