<?xml version="1.0" encoding="UTF-8"?>
<svg version="1.1" viewBox="0 0 106.91 89.865" xmlns="http://www.w3.org/2000/svg" xmlns:xlink="http://www.w3.org/1999/xlink">
<path fill="#fff" d="m26.163 88.879c-1.1571-0.73006-0.73991-3.5843-0.99913-12.485l-0.33606-11.538h-10.843c-8.5235 0-11.179-0.3361-12.414-1.5714-0.86429-0.86428-1.5714-2.077-1.5714-2.6949 0-2.4722 32.498-59.757 34.208-60.3 3.6918-1.1717 5.46 0.8039 12.136 13.56 3.7438 7.1533 6.9727 13.006 7.1754 13.006s3.3543-5.6283 7.0036-12.507c6.6629-12.56 8.936-15.117 12.448-14.002 1.1973 0.38 7.2219 10.259 16.347 26.805 20.036 36.331 18.764 33.478 16.11 36.132-1.2368 1.2369-3.8983 1.5714-12.5 1.5714h-10.929v11.3c0 7.4556-0.40826 11.708-1.2 12.5-1.6125 1.6125-16.987 1.6125-18.6 0-0.79774-0.79774-1.2-5.1556-1.2-13v-11.8h3.8776c3.9523 0 6.56-1.8403 5.955-4.2026-0.41124-1.6059-16.86-31.797-17.324-31.797-0.70632 0-17.509 30.929-17.509 32.229 0 2.3863 2.2762 3.7706 6.2 3.7706h3.8v11.8c0 7.8444-0.40226 12.202-1.2 13-1.4379 1.4379-16.43 1.6152-18.637 0.22294z"/>
</svg>
