<?xml version="1.0" encoding="UTF-8"?><svg xmlns="http://www.w3.org/2000/svg" xmlns:xlink="http://www.w3.org/1999/xlink" viewBox="0 0 980.96 721.94"><defs><style>.f{fill:url(#e);}.g{fill:url(#d);}.h{fill:#fff9ed;}.i{fill:#ffe5be;}.j{fill:#ffa600;}.k{fill:#da676b;}</style><linearGradient id="d" x1="5322.18" y1="-2764.26" x2="5477.68" y2="-2764.26" gradientTransform="translate(-1473.03 6123.73) rotate(-45)" gradientUnits="userSpaceOnUse"><stop offset="0" stop-color="#aeee80"/><stop offset="1" stop-color="#59ceb7"/></linearGradient><linearGradient id="e" x1="5459.27" y1="-2627.17" x2="5614.78" y2="-2627.17" xlink:href="#d"/></defs><g id="a"/><g id="b"><g id="c"><g><g><path class="h" d="M422.01,39.65c-3.06-4.5-6.84-8.71-10.99-12.24-6.81-5.78-14.72-6.34-22.16-1.36-5.9,3.95-11.94,8.2-16.51,13.53-6.62,7.72-12.57,16.18-17.73,24.96-10.95,18.61-18.41,38.79-24.67,59.39-9.65,31.77-15.36,64.44-21.71,96.95-.17,.87,.11,1.83,.19,2.8,.78-.14,1.33-.07,1.53-.3,1.36-1.52,8.96,17.96-1.38,40.11-14.32,30.67-19.91,62.69-15.18,96.24,5.26,37.34,21.24,69.74,46.05,98.03,16.94,19.32,37.9,32.96,60.67,44.17,39.49,19.43,81.05,27.6,124.61,19.67,48.48-8.84,89.63-31.6,121.98-69.29,31.89-37.14,44.85-80.43,39.91-128.76-3.64-35.68-17.14-67.37-37.81-95.73-3.4-4.66-6.82-32.92-3.67-33.43-.1-2.08,.04-4.13-.32-6.09-3.54-19.51-6.55-39.15-10.92-58.48-6.11-27-14.4-53.4-28.18-77.63-4.93-8.66-10.78-16.93-17.16-24.59-3.96-4.75-9.4-8.5-14.72-11.82-6.04-3.78-12.75-3.38-18.51,.83-4.07,2.98-7.87,6.58-11.03,10.51-6.98,8.7-11.51,18.79-15.18,29.29-7.33,21-10.7,42.81-13.56,64.74-.63,4.81-1.44,9.59-2.25,14.91,3.33,.5,1.28,15.19,1.28,15.19,0,0-7.5-.4-11.26-.49-17.93-.46-35.6,1.75-53.16,4.83-5.41,.95-1.49-18.43-1.62-20.44-1.25-19.89-4.88-39.35-10.59-58.44-3.88-12.98-8.29-25.78-15.96-37.06Z"/><path class="j" d="M303.93,243.97c-.97-6.82,3.56-71.09,25.05-132.52,21.49-61.43,58.12-85.32,58.71-86.46,.59-1.15,29.08,0,29.08,0,0,0,24.84,37.64,25.81,40.55,.97,2.91,13.94,86.27,13.94,86.27l-45.86,10.57,9.11-9.24s4.64-36.6-3-61.86c-7.64-25.26-12.7-43.09-29.08-26.9-16.38,16.19-52.25,109.27-52.25,143.2-14.54,14.54-31.51,36.39-31.51,36.39Z"/><path class="j" d="M350.87,203.36s32.52-43.11,121.98-57.35c72.98,41.72-17.45,296.21-181.66,223.45-24.59-95.34,59.68-166.1,59.68-166.1Z"/><path class="i" d="M655.7,235.25c.97-6.82-3.56-71.09-25.05-132.52-21.49-61.43-58.12-85.32-58.71-86.46-.59-1.15-29.08,0-29.08,0,0,0-24.84,37.64-25.81,40.55s-13.94,86.27-13.94,86.27l45.86,10.57-9.11-9.24s-4.64-36.6,3-61.86c7.64-25.26,12.7-43.09,29.08-26.9,16.38,16.19,52.25,109.27,52.25,143.2,14.54,14.54,31.51,36.39,31.51,36.39Z"/><path class="i" d="M622.32,198.74s-34.49-43.29-129.37-57.58c-77.4,41.89,18.5,297.43,192.67,224.37,26.08-95.73-63.3-166.79-63.3-166.79Z"/><g><g><circle class="g" cx="390.67" cy="350.78" r="77.75"/><path d="M390.67,274.33c10.32,0,20.34,2.02,29.76,6.01,9.1,3.85,17.28,9.36,24.3,16.39,7.02,7.02,12.54,15.2,16.39,24.3,3.98,9.42,6.01,19.43,6.01,29.76s-2.02,20.34-6.01,29.76c-3.85,9.1-9.36,17.28-16.39,24.3-7.02,7.02-15.2,12.54-24.3,16.39-9.42,3.98-19.43,6.01-29.76,6.01s-20.34-2.02-29.76-6.01c-9.1-3.85-17.28-9.36-24.3-16.39-7.02-7.02-12.54-15.2-16.39-24.3-3.98-9.42-6.01-19.43-6.01-29.76s2.02-20.34,6.01-29.76c3.85-9.1,9.36-17.28,16.39-24.3,7.02-7.02,15.2-12.54,24.3-16.39,9.42-3.98,19.43-6.01,29.76-6.01m0-7.25c-46.23,0-83.71,37.48-83.71,83.71s37.48,83.71,83.71,83.71,83.71-37.48,83.71-83.71-37.48-83.71-83.71-83.71h0Z"/><circle cx="390.67" cy="350.78" r="61.87"/><g><ellipse class="h" cx="418.79" cy="373.44" rx="39.7" ry="18.03"/><circle class="h" cx="408.53" cy="318.68" r="13.23"/><path class="h" d="M358.41,300.49c-1.47,22.73-12.61,40.8-26.62,43.18,14.02,2.38,25.15,20.44,26.62,43.18,1.47-22.73,12.61-40.8,26.62-43.18-14.02-2.38-25.15-20.44-26.62-43.18Z"/></g><path class="k" d="M510.9,410.44c-.65,.03-1.19,.53-1.2,1.2,0,.48-.03,.97-.09,1.45-.14,.93-.39,1.84-.74,2.72-.37,.84-.84,1.64-1.39,2.37-.57,.72-1.22,1.36-1.93,1.93-.74,.55-1.53,1.02-2.37,1.39-.87,.35-1.78,.6-2.71,.74-.96,.12-1.94,.12-2.9,0-.93-.14-1.84-.39-2.71-.74-.84-.37-1.64-.84-2.37-1.39-.72-.57-1.36-1.22-1.93-1.93-.55-.74-1.02-1.53-1.39-2.37-.35-.87-.6-1.78-.74-2.72-.01-.09-.02-.17-.03-.26v-9.55c.18-.1,.35-.23,.5-.38l8.56-8.56c1.57-1.57,.46-4.25-1.76-4.25h-17.11c-2.22,0-3.33,2.68-1.76,4.25l8.56,8.56c.19,.19,.4,.34,.63,.46v7.9c-.04,.12-.07,.24-.07,.37,0,.48-.03,.97-.09,1.45-.14,.93-.39,1.84-.74,2.72-.37,.84-.84,1.64-1.39,2.37-.57,.72-1.22,1.36-1.93,1.93-.74,.55-1.53,1.02-2.37,1.39-.87,.35-1.78,.6-2.71,.74-.96,.12-1.94,.12-2.9,0-.93-.14-1.84-.39-2.72-.74-.84-.37-1.64-.84-2.37-1.39-.72-.57-1.36-1.22-1.93-1.93-.55-.74-1.02-1.53-1.39-2.37-.35-.87-.6-1.78-.74-2.72-.06-.48-.09-.96-.09-1.45,0-.63-.55-1.22-1.2-1.2-.65,.03-1.2,.53-1.2,1.2,0,2.66,.82,5.33,2.37,7.5,.82,1.14,1.77,2.12,2.88,2.97,1.04,.79,2.2,1.4,3.42,1.85,2.53,.93,5.39,1.01,7.98,.27,2.49-.71,4.8-2.18,6.45-4.18,.44-.54,.86-1.1,1.22-1.7,.25-.41,.46-.84,.66-1.27,.33,.72,.71,1.41,1.17,2.05,.82,1.14,1.77,2.12,2.88,2.97,1.04,.79,2.2,1.4,3.42,1.85,2.53,.93,5.39,1.01,7.98,.27,2.49-.71,4.8-2.18,6.45-4.18,.44-.54,.86-1.1,1.22-1.7,.36-.6,.65-1.23,.92-1.87,.51-1.24,.79-2.56,.9-3.89,.03-.32,.04-.63,.04-.95,0-.63-.55-1.22-1.2-1.2Z"/></g><g><circle class="f" cx="584.55" cy="350.78" r="77.75"/><path d="M584.55,274.33c10.32,0,20.34,2.02,29.76,6.01,9.1,3.85,17.28,9.36,24.3,16.39,7.02,7.02,12.54,15.2,16.39,24.3,3.98,9.42,6.01,19.43,6.01,29.76s-2.02,20.34-6.01,29.76c-3.85,9.1-9.36,17.28-16.39,24.3-7.02,7.02-15.2,12.54-24.3,16.39-9.42,3.98-19.43,6.01-29.76,6.01s-20.34-2.02-29.76-6.01c-9.1-3.85-17.28-9.36-24.3-16.39-7.02-7.02-12.54-15.2-16.39-24.3-3.98-9.42-6.01-19.43-6.01-29.76s2.02-20.34,6.01-29.76c3.85-9.1,9.36-17.28,16.39-24.3,7.02-7.02,15.2-12.54,24.3-16.39,9.42-3.98,19.43-6.01,29.76-6.01m0-7.25c-46.23,0-83.71,37.48-83.71,83.71s37.48,83.71,83.71,83.71,83.71-37.48,83.71-83.71-37.48-83.71-83.71-83.71h0Z"/><circle cx="584.55" cy="350.78" r="61.87"/><g><ellipse class="h" cx="612.67" cy="373.44" rx="39.7" ry="18.03"/><circle class="h" cx="602.42" cy="318.68" r="13.23"/><path class="h" d="M552.29,300.49c-1.47,22.73-12.61,40.8-26.62,43.18,14.02,2.38,25.15,20.44,26.62,43.18,1.47-22.73,12.61-40.8,26.62-43.18-14.02-2.38-25.15-20.44-26.62-43.18Z"/></g></g></g><path d="M465.44,140.34c11.21-.84,21.82-1.63,32.55-2.43,.12-1.67,.28-2.64,.26-3.61-.83-33.65,5.05-66.05,18.13-97.1,3.81-9.05,8.88-17.34,15.86-24.35,14.5-14.57,33.64-16.92,51.23-6.22,9.53,5.8,16.75,13.98,23.15,22.94,12.38,17.32,20.62,36.68,27.61,56.63,8.5,24.28,14.29,49.23,17.84,74.68,1.78,12.79,3.15,25.64,4.56,38.48,.37,3.35,.82,6.9,.07,10.09-1.05,4.51,.71,7.48,3.29,10.73,20.18,25.41,33.48,53.98,38.56,86.12,6.27,39.68,.57,77.74-17.05,113.78-29.99,61.36-79.26,97.45-146.14,109.9-36.39,6.78-72.46,4.85-108.09-4.92-65.56-17.98-121.26-75.53-139.35-133.45-14.12-45.19-12.38-89.72,5.04-133.67,1.28-3.22,1.88-6.34,1.71-9.82-.84-17.37,1.27-34.56,3.89-51.66,5.97-38.91,17.15-76.38,32.89-112.41,5.55-12.71,12.56-24.81,19.4-36.91,4.92-8.69,11.68-16.07,19-22.88,6.71-6.25,14.53-10.27,23.57-12.04,10.82-2.13,20.53,.4,29.29,6.77,8.54,6.21,14.65,14.52,19.51,23.78,8.58,16.37,13.6,33.91,16.51,52.06,2.2,13.73,3.92,27.53,5.88,41.3,.16,1.15,.44,2.28,.82,4.18Zm-18,2.83c0-2.57,.11-4.53-.02-6.48-1.21-19.32-4.74-38.23-10.29-56.77-3.77-12.61-8.06-25.04-15.51-36-2.97-4.37-6.65-8.46-10.68-11.89-6.61-5.62-14.3-6.15-21.52-1.32-5.74,3.84-11.6,7.97-16.04,13.14-6.43,7.5-12.21,15.72-17.23,24.25-10.63,18.08-17.89,37.68-23.96,57.69-9.37,30.86-14.92,62.59-21.09,94.18-.17,.85,.11,1.78,.18,2.72,.76-.14,1.29-.07,1.49-.29,1.32-1.48,2.6-2.99,3.83-4.54,10.02-12.77,21.52-23.97,35.2-32.79,2.42-1.56,5.35-2.8,8.17-3.16,3.98-.51,6.24,2.92,4.67,6.68-.74,1.78-2.01,3.43-3.33,4.87-3.21,3.53-6.63,6.87-9.9,10.34-16.2,17.19-29.93,36.05-39.97,57.56-13.91,29.8-19.34,60.89-14.75,93.48,5.11,36.27,20.64,67.75,44.73,95.23,16.45,18.76,36.82,32.02,58.93,42.9,38.36,18.88,78.74,26.81,121.04,19.1,47.1-8.58,87.06-30.7,118.49-67.3,30.98-36.08,43.56-78.12,38.77-125.07-4.12-40.36-21.21-75.46-47.18-106.31-10.25-12.18-21.25-23.68-33.34-34.11-2.99-2.57-5.52-5.7-8.09-8.72-1.69-1.99-2.74-4.33-1.73-7.46,1.21,.17,2.43,.07,3.4,.51,3.61,1.65,7.24,3.28,10.67,5.26,10.9,6.29,20.64,14.17,30.14,22.36,1.54,1.33,2.76,3.5,5.83,3-.09-2.02,.04-4.01-.31-5.92-3.44-18.96-6.36-38.03-10.61-56.81-5.93-26.23-13.98-51.87-27.37-75.41-4.79-8.42-10.47-16.45-16.67-23.89-3.85-4.62-9.13-8.25-14.3-11.49-5.87-3.67-12.39-3.28-17.98,.81-3.96,2.89-7.64,6.39-10.71,10.21-6.78,8.45-11.18,18.25-14.74,28.45-7.12,20.4-10.4,41.58-13.17,62.89-.61,4.67-1.4,9.31-2.18,14.48,3.24,.48,5.94,.89,8.64,1.28,6.09,.88,12.2,1.62,18.26,2.69,2.71,.48,5.4,1.4,7.9,2.55,2.36,1.08,4.83,2.75,4.31,5.78-.52,3-3.32,3.74-5.95,4.02-2.17,.24-4.38,.27-6.55,.14-12.1-.72-24.19-1.88-36.3-2.2-22.78-.59-45.14,3.27-67.37,7.66-7.95,1.57-15.67,4.34-23.49,6.61-2.36,.69-4.63,1.32-6.94-1.46,.95-1.46,1.68-3.41,3.06-4.6,11.73-10.09,26.37-13.32,41.54-16.89Z"/></g><g><g><path d="M752.94,321.65c3.19-3.05,6.13-6.41,9.6-9.09,22.52-17.4,38.84-39.67,51.72-64.76,3.32-6.46,7.03-12.73,10.89-18.88,2.13-3.39,4.61-6.69,7.52-9.43,6.3-5.93,13.87-7.1,19.98-3.65,6.48,3.65,9.59,11.5,6.85,20.11-1.81,5.7-4.26,11.57-7.88,16.24-7.63,9.86-15.27,20.06-24.6,28.18-18.32,15.94-39.23,28.3-61.05,38.97-3.86,1.89-8.11,2.97-12.19,4.42-.28-.71-.57-1.42-.85-2.13Z"/><path d="M769.86,258.35c3.25-8.49,6.19-17.12,9.81-25.46,8.7-20,15.59-40.46,19.47-62.03,1.91-10.63,5.86-20.9,8.96-31.31,.57-1.92,1.4-3.78,2.32-5.56,4.26-8.22,10.47-11.91,17.19-10.31,6.68,1.59,11.96,7.97,10.6,16.77-2.07,13.4-4.47,27.17-9.62,39.59-10.89,26.24-29.17,48.07-46.31,70.42-2.78,3.62-6.94,6.19-10.46,9.25-.65-.46-1.31-.92-1.96-1.37Z"/></g><g><path d="M232.86,260.88c-4.56-1.94-9.59-3.2-13.6-5.94-11.78-8.04-23.56-16.18-34.55-25.23-9.33-7.68-17.61-16.65-26.31-25.09-10.08-9.79-18.54-20.93-22.39-34.48-2.17-7.66-2.49-16.14-2.02-24.16,.37-6.36,5.17-10.75,11.54-12.68,6.69-2.02,12.02,.77,16.18,5.53,2.8,3.2,4.95,7.1,6.81,10.96,9.96,20.7,20.92,40.73,34.72,59.26,9.79,13.15,18.34,27.23,27.27,41.01,1.74,2.68,2.66,5.89,3.96,8.86-.53,.65-1.06,1.31-1.59,1.96Z"/><path d="M235.64,310.67c-7.16-1.04-14.38-1.82-21.48-3.2-8.46-1.64-16.85-3.66-25.21-5.75-18.15-4.53-33.03-14.61-46.03-27.7-1.78-1.79-3.04-4.19-4.24-6.46-2.89-5.45-3.01-10.85,1.46-15.56,4.85-5.11,10.18-3.53,15.31-.44,9.25,5.57,18.65,10.94,27.57,17,16.76,11.38,33.25,23.17,49.79,34.87,1.61,1.14,2.79,2.88,4.18,4.33-.45,.97-.91,1.93-1.36,2.9Z"/></g><g><path d="M2.07,467.83c.7-1.7,1.57-3.19,2.61-4.47,1.03-1.29,2.13-2.62,3.3-4,14.1-15.37,28.57-30.08,43.43-44.12,14.85-14.05,30.43-27.36,46.75-39.97,5.39-4.08,10.92-8,16.59-11.74,5.67-3.74,11.42-7.38,17.26-10.91,2.25-1.57,4.69-2.9,7.33-3.99,2.64-1.09,5.35-1.95,8.14-2.59,3.5-.52,6.66,.01,9.49,1.62,2.83,1.6,4.93,3.9,6.3,6.9,2.65,5.38,1.45,10.32-3.61,14.82-6.46,5.85-12.87,11.49-19.24,16.93-6.38,5.44-12.72,10.91-19.03,16.42-4.3,3.9-8.68,7.91-13.11,12.03-4.44,4.12-9.13,8.5-14.08,13.14,11.88,3,22.33,7.42,31.35,13.28,9.02,5.86,16.49,13.91,22.43,24.17,5.73,9.74,8.25,19.66,7.57,29.76-.69,10.1-3.61,19.26-8.79,27.49-5.17,8.23-12.1,14.85-20.77,19.86-8.68,5.01-18.14,7.29-28.39,6.86-15.31,.2-28.12-4.27-38.42-13.42-10.31-9.15-18.72-23.85-25.23-44.1-1.23,.53-2.46,1.06-3.68,1.58-1.23,.53-2.46,1.06-3.68,1.58-3.79,1.44-7.54,1.72-11.25,.82-3.71-.9-6.96-2.84-9.77-5.83-3.02-3.27-4.81-6.78-5.35-10.55-.54-3.78,.08-7.63,1.88-11.57Zm110.03-2.44c-2.04-1.78-4.86-3.5-8.46-5.16-3.61-1.67-7.4-3-11.4-4.01-4-1.01-7.97-1.58-11.9-1.73-3.94-.15-7.32,.4-10.14,1.63-2.83,1.24-4.8,3.22-5.93,5.94-1.12,2.72-.94,6.43,.57,11.14,.8,2.54,1.88,5.32,3.25,8.31,1.37,3,3.01,5.83,4.94,8.5,1.92,2.66,4.14,5.04,6.64,7.13,2.5,2.09,5.21,3.56,8.15,4.39,5.27,1.69,10.18,1.97,14.74,.83,4.55-1.14,8.61-3.6,12.2-7.37,4.82-4.54,7-9.35,6.54-14.44-.46-5.08-3.53-10.14-9.19-15.15Z"/><path d="M134.53,593.63c1.7-7.82,4.44-15.89,8.23-24.23,3.78-8.34,8.48-16.2,14.09-23.59,5.6-7.38,11.88-14.01,18.82-19.89,6.94-5.88,14.38-10.2,22.3-12.97,3.87-1.25,7.5-1.59,10.88-1.03,3.38,.56,6.48,2.4,9.3,5.5,5.58,5.98,6.83,12.8,3.74,20.44-.71,1.66-1.58,3.31-2.59,4.96-1.02,1.64-2.17,3.39-3.44,5.25-5.36,8.43-11.12,16.44-17.29,24.02-6.17,7.58-12.53,15.67-19.07,24.26-2.33,3.09-4.53,6.37-6.59,9.84-2.06,3.47-4.06,6.78-6.01,9.94-5.19,7.57-11.28,10.62-18.24,9.16-4.28-.99-7.56-2.8-9.84-5.43-2.28-2.64-3.82-5.89-4.61-9.76-.61-2.57-.83-5.3-.66-8.22,.17-2.91,.5-5.66,.98-8.26Zm91.38-88.46c-2.44-1.47-4.43-3.28-5.97-5.41-1.55-2.14-2.61-4.43-3.19-6.88-.58-2.45-.67-4.9-.27-7.37,.4-2.46,1.32-4.75,2.78-6.88,2.73-3.98,6.71-6.33,11.94-7.04,5.22-.71,10.12,.31,14.7,3.06,2.2,1.51,4.01,3.33,5.44,5.49,1.43,2.15,2.49,4.44,3.19,6.88,.7,2.43,.91,4.87,.63,7.32-.28,2.45-1.1,4.66-2.47,6.66-2.82,4.12-6.9,6.6-12.21,7.44-5.32,.84-10.17-.24-14.56-3.25Z"/><path d="M347.15,603.88c1.33,9.01,2.25,18.22,2.78,27.63,.52,9.41-.07,18.55-1.8,27.42-1.73,8.87-5.01,17.06-9.84,24.58-4.83,7.51-11.94,13.88-21.31,19.1-10.61,4.95-21.58,7.6-32.9,7.95-11.33,.34-21.85-1.59-31.56-5.8-9.72-4.21-18.07-10.54-25.05-19-6.99-8.46-11.36-18.97-13.12-31.55,.04-1.18,.09-2.23,.13-3.16,.04-.92,.09-1.98,.13-3.16,.61-4.39,3.78-6.95,9.49-7.66,3.6-.6,6.76,.18,9.48,2.34,2.72,2.16,4.99,4.93,6.8,8.3,3.28,5.1,7.41,9.25,12.4,12.46,4.98,3.22,10.25,5.34,15.82,6.37,5.57,1.04,11.03,.75,16.4-.85,5.37-1.6,10.16-4.64,14.39-9.12,5.59-6.22,9.29-15.07,11.1-26.56-10.07,3.44-20.36,4.57-30.87,3.42-10.51-1.16-19.84-4.21-27.98-9.14s-14.46-11.57-18.94-19.91c-4.49-8.34-5.85-17.92-4.09-28.74,1.41-7.7,4.25-14.9,8.5-21.59,4.25-6.69,9.53-12.55,15.83-17.58,6.3-5.03,13.49-9.1,21.56-12.22,8.07-3.12,16.63-4.96,25.68-5.51,10.94-.57,21.21,.85,30.84,4.26,9.62,3.41,18.09,9.15,25.41,17.2,1.91,2.04,3.52,4.28,4.83,6.71,1.3,2.43,2.36,4.9,3.17,7.4,1.09,2.78,1.12,5.35,.09,7.72-1.03,2.37-2.64,4.53-4.84,6.49-2.48,2.2-5.23,3.19-8.26,2.97-3.03-.22-5.98-1.6-8.84-4.16-4.79-5.62-10.56-9.54-17.3-11.77-6.75-2.22-13.64-2.95-20.69-2.2-7.05,.75-13.62,2.82-19.72,6.21-6.1,3.39-10.81,7.92-14.13,13.57-2.45,4.26-3.98,8.71-4.59,13.36-.61,4.65-.07,8.69,1.64,12.11,1.7,3.42,4.72,5.82,9.04,7.17,4.32,1.36,10.27,.91,17.86-1.36,4.37-1.18,8.32-2.9,11.86-5.16,3.53-2.25,6.6-4.96,9.24-8.13,2.24-2.62,4.69-4.49,7.35-5.6s5.96-1.13,9.92-.08c4.29,1.18,7.52,3.09,9.69,5.74,2.17,2.65,3.64,5.82,4.4,9.51Z"/><path d="M500.4,720.64c-13.53,2.39-25.45,1.48-35.78-2.71-10.33-4.19-18.93-10.48-25.82-18.83-6.89-8.36-11.9-18.06-15.02-29.11-3.12-11.05-4.33-22.32-3.63-33.8,.66-8.73,2.38-17.16,5.17-25.29,2.78-8.13,6.71-15.35,11.77-21.67,5.06-6.32,11.31-11.53,18.74-15.62,7.43-4.1,16.12-6.4,26.07-6.9,10.13-.5,18.9,.76,26.31,3.79,7.41,3.02,13.43,7.12,18.06,12.28,4.63,5.16,7.92,11.04,9.86,17.62,1.94,6.58,2.56,13.19,1.84,19.81-.72,6.63-2.68,12.91-5.87,18.85-3.2,5.94-7.66,10.77-13.4,14.49-5.74,3.72-12.7,6.09-20.88,7.1-8.18,1.01-17.57-.18-28.18-3.57,.23,8.26,1.6,14.83,4.1,19.72,2.5,4.89,5.6,8.38,9.3,10.46,3.7,2.08,7.77,2.87,12.22,2.37,4.44-.5,8.77-2.01,12.98-4.54,4.21-2.52,8.03-5.99,11.47-10.39,3.44-4.4,6.09-9.5,7.95-15.3,2.02-4.34,4.68-7.17,7.98-8.5,3.3-1.32,6.46-1.6,9.47-.83,3,.77,5.47,2.51,7.38,5.21,1.91,2.7,2.48,5.91,1.72,9.62-.98,6.14-3.11,12.3-6.4,18.48-3.29,6.18-7.32,11.83-12.1,16.93-4.78,5.11-10.22,9.48-16.31,13.11-6.09,3.64-12.43,6.05-19.02,7.24Zm-33.14-100.02c2.79,3.12,6.57,5.68,11.34,7.69,4.77,2.01,9.41,3.05,13.93,3.12,4.53,.07,8.36-.97,11.5-3.11,3.14-2.14,4.66-5.88,4.56-11.22-.14-2.59-.99-5.11-2.55-7.56-1.56-2.45-3.62-4.46-6.17-6.04-2.55-1.57-5.38-2.59-8.48-3.04-3.1-.45-6.12-.09-9.07,1.08-2.95,1.17-5.77,3.28-8.48,6.31-2.71,3.03-4.9,7.29-6.58,12.77Z"/><path d="M676.46,530.44c2.31-1.99,4.93-3.41,7.83-4.24,2.91-.83,5.77-1.09,8.6-.78,2.83,.31,5.56,1.16,8.21,2.56,2.64,1.4,4.85,3.33,6.64,5.8,.76,1.11,1.45,2.29,2.06,3.53,.61,1.24,1.14,2.48,1.56,3.7,3.17,9.18,7.06,19.13,11.7,29.86,4.64,10.73,8.84,21.69,12.61,32.89,3.76,11.2,6.53,22.35,8.3,33.47,1.76,11.12,1.34,21.58-1.29,31.38-1.67,6.05-4.1,11.38-7.3,16-3.2,4.61-6.98,8.48-11.35,11.61-4.37,3.13-9.15,5.6-14.35,7.39-5.2,1.79-10.53,2.95-15.99,3.46-4.29,.1-8.25-.24-11.9-1.03-3.66-.79-7.08-2.27-10.26-4.42-5.5-3.41-7.19-8.05-5.08-13.91,.83-2.51,2.34-4.53,4.53-6.05,2.2-1.53,4.85-2.4,7.97-2.62,1.78-.27,3.31-.46,4.6-.56,4.67-.07,8.59-1.08,11.77-3.03,3.17-1.95,5.64-4.47,7.39-7.56,1.76-3.08,2.84-6.58,3.28-10.5,.43-3.91,.24-7.87-.57-11.87-.66-3.54-1.73-7.75-3.23-12.62-1.5-4.88-3.25-9.83-5.27-14.88-2.02-5.04-4.12-9.92-6.32-14.64-2.19-4.72-4.42-8.74-6.7-12.07-2.27,5.41-4.31,11.59-6.14,18.55-1.82,6.96-3.9,14.02-6.23,21.15-2.33,7.14-5.19,13.95-8.59,20.42-3.4,6.48-7.7,11.98-12.9,16.51-4.91,4.26-10.13,7.26-15.63,8.98-5.51,1.73-10.91,2.39-16.21,2-5.3-.4-10.35-1.7-15.14-3.89-4.8-2.2-9.05-5.13-12.76-8.82-4.86-4.83-8.79-10.23-11.79-16.22-3-5.98-5.4-12.26-7.2-18.83s-3.02-13.38-3.66-20.43c-.65-7.05-1.02-13.98-1.12-20.8,.53-4.46,1.77-8.61,3.73-12.46,1.96-3.84,5.7-6.46,11.24-7.85,7.69-1.11,13.48,1.26,17.38,7.1,1.02,1.87,1.94,3.87,2.76,5.98,.82,2.12,1.6,4.24,2.34,6.38,2.17,5.76,4.24,11.63,6.22,17.63,1.97,6,4.02,12.05,6.13,18.17,2.95,8.57,5.89,14.36,8.81,17.38,2.92,3.02,5.76,4.05,8.53,3.09,2.77-.95,5.39-3.57,7.86-7.84s4.83-9.41,7.08-15.41c2.25-5.99,4.32-12.53,6.2-19.6,1.88-7.07,3.53-13.88,4.92-20.44,1.4-6.56,2.58-12.53,3.54-17.91,.96-5.38,1.58-9.31,1.84-11.8,.63-4.16,1.73-8.04,3.3-11.67,1.57-3.62,4.24-7.02,8.03-10.21Z"/><path d="M867.39,582.4c-8.67,10.66-18.27,17.78-28.82,21.37-10.55,3.58-21.17,4.47-31.85,2.67-10.68-1.81-20.81-5.86-30.41-12.18-9.59-6.31-17.88-14.04-24.87-23.18-5.22-7.03-9.43-14.53-12.65-22.5-3.22-7.97-4.98-16-5.29-24.09-.31-8.09,1.01-16.11,3.94-24.08,2.93-7.96,8-15.38,15.19-22.28,7.33-7,14.79-11.79,22.37-14.36,7.58-2.57,14.81-3.41,21.69-2.54,6.88,.88,13.21,3.17,18.99,6.87,5.78,3.71,10.56,8.3,14.36,13.77,3.79,5.48,6.43,11.51,7.9,18.09,1.48,6.58,1.26,13.16-.64,19.72-1.9,6.57-5.61,12.91-11.14,19.03-5.52,6.12-13.4,11.37-23.64,15.74,5.58,6.09,10.92,10.17,16.01,12.22,5.09,2.06,9.72,2.67,13.88,1.82,4.16-.85,7.75-2.92,10.78-6.21,3.03-3.28,5.31-7.26,6.84-11.93,1.53-4.66,2.15-9.78,1.87-15.36-.28-5.58-1.62-11.17-4-16.77-1.32-4.6-1.16-8.48,.47-11.65,1.63-3.16,3.83-5.44,6.61-6.82,2.78-1.38,5.77-1.68,8.99-.9,3.21,.79,5.74,2.84,7.6,6.14,3.28,5.28,5.7,11.33,7.26,18.16,1.56,6.83,2.21,13.74,1.94,20.73-.27,6.99-1.52,13.85-3.74,20.58-2.23,6.74-5.44,12.71-9.63,17.92Zm-90.53-53.92c4.15,.53,8.69,0,13.61-1.61,4.92-1.6,9.11-3.85,12.58-6.76s5.69-6.21,6.66-9.88c.97-3.67-.33-7.49-3.9-11.47-1.8-1.86-4.1-3.22-6.88-4.05-2.78-.83-5.66-1-8.62-.53-2.96,.48-5.76,1.56-8.4,3.25-2.64,1.69-4.69,3.94-6.15,6.75s-2.22,6.26-2.28,10.32c-.06,4.07,1.07,8.72,3.39,13.96Z"/><path d="M881.71,416.05c4.63-2.4,9.84-4.83,15.63-7.28,5.79-2.45,11.75-4.47,17.89-6.09,6.14-1.61,12.33-2.68,18.57-3.2,6.24-.52,12.12-.12,17.64,1.2,5.52,1.33,10.55,3.8,15.07,7.42,4.53,3.62,8.25,8.68,11.17,15.17,3.49,8.07,4.19,16.85,2.12,26.36-2.08,9.51-6.14,18.4-12.19,26.67-6.05,8.28-13.62,15.29-22.69,21.05-9.07,5.76-19,8.84-29.79,9.24-5.67,.35-8.89-2.3-9.69-7.93-.35-2.89,.07-5.33,1.24-7.32,1.18-1.98,2.99-3.59,5.42-4.83,1.33-.65,2.77-1.4,4.3-2.25,1.54-.84,3.11-1.5,4.72-1.99,9.64-4.8,16.09-10.2,19.38-16.2s3.94-11.29,1.96-15.88c-1.98-4.58-6.23-7.73-12.74-9.44-6.52-1.71-14.88-.64-25.07,3.21-3.49,1.44-6.92,3.01-10.29,4.72-3.37,1.71-6.8,3.29-10.29,4.72-8.45,3.45-15.96,4.91-22.54,4.41-6.57-.5-12.24-2.53-17-6.08-4.76-3.55-8.65-8.25-11.68-14.07-3.03-5.83-5.25-12.21-6.68-19.16-1.43-6.94-2.05-14.13-1.86-21.56,.18-7.43,1.05-14.51,2.6-21.23,2-8.11,4.72-14.59,8.18-19.46,3.46-4.86,7.12-8.32,10.97-10.36,3.86-2.04,7.68-2.76,11.46-2.17,3.78,.6,6.94,2.27,9.45,5,2.51,2.74,4.17,6.51,4.98,11.33,.81,4.82,.23,10.46-1.74,16.93-.49,1.77-1.14,4.28-1.93,7.52-.8,3.24-1.47,6.67-2.01,10.27-.54,3.61-.85,7.14-.94,10.6-.08,3.47,.38,6.32,1.4,8.58,1.01,2.26,2.71,3.68,5.09,4.27,2.38,.59,5.68-.13,9.9-2.17Z"/></g></g></g></g></g></svg>